<?xml version="1.0" encoding="UTF-8"?>
<svg xmlns="http://www.w3.org/2000/svg" xmlns:xlink="http://www.w3.org/1999/xlink" width="432pt" height="216pt" viewBox="0 0 432 216">
<defs>
<g>
<g id="glyph-0-0">
<path d="M 3.5 -7.3125 C 2.9375 -7.3125 2.515625 -7.035156 2.234375 -6.484375 C 1.953125 -5.929688 1.8125 -5.101562 1.8125 -4 C 1.8125 -2.90625 1.953125 -2.082031 2.234375 -1.53125 C 2.515625 -0.976562 2.9375 -0.703125 3.5 -0.703125 C 4.0625 -0.703125 4.484375 -0.976562 4.765625 -1.53125 C 5.046875 -2.082031 5.1875 -2.90625 5.1875 -4 C 5.1875 -5.101562 5.046875 -5.929688 4.765625 -6.484375 C 4.484375 -7.035156 4.0625 -7.3125 3.5 -7.3125 Z M 3.5 -8.171875 C 4.394531 -8.171875 5.078125 -7.8125 5.546875 -7.09375 C 6.023438 -6.382812 6.265625 -5.351562 6.265625 -4 C 6.265625 -2.65625 6.023438 -1.625 5.546875 -0.90625 C 5.078125 -0.195312 4.394531 0.15625 3.5 0.15625 C 2.601562 0.15625 1.914062 -0.195312 1.4375 -0.90625 C 0.957031 -1.625 0.71875 -2.65625 0.71875 -4 C 0.71875 -5.351562 0.957031 -6.382812 1.4375 -7.09375 C 1.914062 -7.8125 2.601562 -8.171875 3.5 -8.171875 Z M 3.5 -8.171875 "/>
</g>
<g id="glyph-0-1">
<path d="M 2.109375 -0.90625 L 5.890625 -0.90625 L 5.890625 0 L 0.8125 0 L 0.8125 -0.90625 C 1.21875 -1.332031 1.773438 -1.90625 2.484375 -2.625 C 3.203125 -3.34375 3.648438 -3.804688 3.828125 -4.015625 C 4.171875 -4.410156 4.410156 -4.742188 4.546875 -5.015625 C 4.691406 -5.285156 4.765625 -5.550781 4.765625 -5.8125 C 4.765625 -6.238281 4.613281 -6.582031 4.3125 -6.84375 C 4.019531 -7.113281 3.628906 -7.25 3.140625 -7.25 C 2.804688 -7.25 2.445312 -7.1875 2.0625 -7.0625 C 1.6875 -6.945312 1.285156 -6.769531 0.859375 -6.53125 L 0.859375 -7.625 C 1.296875 -7.800781 1.703125 -7.9375 2.078125 -8.03125 C 2.460938 -8.125 2.8125 -8.171875 3.125 -8.171875 C 3.957031 -8.171875 4.617188 -7.960938 5.109375 -7.546875 C 5.609375 -7.128906 5.859375 -6.570312 5.859375 -5.875 C 5.859375 -5.539062 5.796875 -5.226562 5.671875 -4.9375 C 5.546875 -4.644531 5.320312 -4.296875 5 -3.890625 C 4.90625 -3.785156 4.617188 -3.484375 4.140625 -2.984375 C 3.660156 -2.492188 2.984375 -1.800781 2.109375 -0.90625 Z M 2.109375 -0.90625 "/>
</g>
<g id="glyph-0-2">
<path d="M 4.15625 -7.078125 L 1.421875 -2.796875 L 4.15625 -2.796875 Z M 3.875 -8.015625 L 5.234375 -8.015625 L 5.234375 -2.796875 L 6.375 -2.796875 L 6.375 -1.890625 L 5.234375 -1.890625 L 5.234375 0 L 4.15625 0 L 4.15625 -1.890625 L 0.53125 -1.890625 L 0.53125 -2.9375 Z M 3.875 -8.015625 "/>
</g>
<g id="glyph-0-3">
<path d="M 3.625 -4.4375 C 3.144531 -4.4375 2.757812 -4.269531 2.46875 -3.9375 C 2.1875 -3.601562 2.046875 -3.148438 2.046875 -2.578125 C 2.046875 -1.992188 2.1875 -1.535156 2.46875 -1.203125 C 2.757812 -0.867188 3.144531 -0.703125 3.625 -0.703125 C 4.113281 -0.703125 4.5 -0.867188 4.78125 -1.203125 C 5.070312 -1.535156 5.21875 -1.992188 5.21875 -2.578125 C 5.21875 -3.148438 5.070312 -3.601562 4.78125 -3.9375 C 4.5 -4.269531 4.113281 -4.4375 3.625 -4.4375 Z M 5.78125 -7.84375 L 5.78125 -6.859375 C 5.507812 -6.984375 5.234375 -7.078125 4.953125 -7.140625 C 4.679688 -7.210938 4.410156 -7.25 4.140625 -7.25 C 3.421875 -7.25 2.867188 -7.003906 2.484375 -6.515625 C 2.109375 -6.035156 1.894531 -5.304688 1.84375 -4.328125 C 2.0625 -4.640625 2.328125 -4.878906 2.640625 -5.046875 C 2.960938 -5.210938 3.316406 -5.296875 3.703125 -5.296875 C 4.503906 -5.296875 5.140625 -5.050781 5.609375 -4.5625 C 6.078125 -4.070312 6.3125 -3.410156 6.3125 -2.578125 C 6.3125 -1.753906 6.066406 -1.09375 5.578125 -0.59375 C 5.085938 -0.09375 4.4375 0.15625 3.625 0.15625 C 2.695312 0.15625 1.988281 -0.195312 1.5 -0.90625 C 1.007812 -1.625 0.765625 -2.65625 0.765625 -4 C 0.765625 -5.269531 1.066406 -6.28125 1.671875 -7.03125 C 2.273438 -7.789062 3.082031 -8.171875 4.09375 -8.171875 C 4.363281 -8.171875 4.632812 -8.140625 4.90625 -8.078125 C 5.1875 -8.023438 5.476562 -7.945312 5.78125 -7.84375 Z M 5.78125 -7.84375 "/>
</g>
<g id="glyph-0-4">
<path d="M 3.5 -3.8125 C 2.976562 -3.8125 2.570312 -3.671875 2.28125 -3.390625 C 1.988281 -3.117188 1.84375 -2.738281 1.84375 -2.25 C 1.84375 -1.769531 1.988281 -1.390625 2.28125 -1.109375 C 2.570312 -0.835938 2.976562 -0.703125 3.5 -0.703125 C 4.007812 -0.703125 4.410156 -0.835938 4.703125 -1.109375 C 5.003906 -1.390625 5.15625 -1.769531 5.15625 -2.25 C 5.15625 -2.738281 5.007812 -3.117188 4.71875 -3.390625 C 4.425781 -3.671875 4.019531 -3.8125 3.5 -3.8125 Z M 2.40625 -4.265625 C 1.945312 -4.378906 1.585938 -4.59375 1.328125 -4.90625 C 1.066406 -5.226562 0.9375 -5.617188 0.9375 -6.078125 C 0.9375 -6.722656 1.160156 -7.234375 1.609375 -7.609375 C 2.066406 -7.984375 2.695312 -8.171875 3.5 -8.171875 C 4.289062 -8.171875 4.914062 -7.984375 5.375 -7.609375 C 5.832031 -7.234375 6.0625 -6.722656 6.0625 -6.078125 C 6.0625 -5.617188 5.929688 -5.226562 5.671875 -4.90625 C 5.410156 -4.59375 5.050781 -4.378906 4.59375 -4.265625 C 5.113281 -4.148438 5.519531 -3.914062 5.8125 -3.5625 C 6.101562 -3.207031 6.25 -2.769531 6.25 -2.25 C 6.25 -1.476562 6.007812 -0.882812 5.53125 -0.46875 C 5.0625 -0.0507812 4.382812 0.15625 3.5 0.15625 C 2.613281 0.15625 1.929688 -0.0507812 1.453125 -0.46875 C 0.984375 -0.882812 0.75 -1.476562 0.75 -2.25 C 0.75 -2.769531 0.894531 -3.207031 1.1875 -3.5625 C 1.476562 -3.914062 1.882812 -4.148438 2.40625 -4.265625 Z M 2.015625 -5.984375 C 2.015625 -5.566406 2.144531 -5.238281 2.40625 -5 C 2.664062 -4.769531 3.03125 -4.65625 3.5 -4.65625 C 3.957031 -4.65625 4.316406 -4.769531 4.578125 -5 C 4.847656 -5.238281 4.984375 -5.566406 4.984375 -5.984375 C 4.984375 -6.398438 4.847656 -6.722656 4.578125 -6.953125 C 4.316406 -7.191406 3.957031 -7.3125 3.5 -7.3125 C 3.03125 -7.3125 2.664062 -7.191406 2.40625 -6.953125 C 2.144531 -6.722656 2.015625 -6.398438 2.015625 -5.984375 Z M 2.015625 -5.984375 "/>
</g>
<g id="glyph-0-5">
<path d="M 1.359375 -0.90625 L 3.140625 -0.90625 L 3.140625 -7.03125 L 1.203125 -6.640625 L 1.203125 -7.625 L 3.125 -8.015625 L 4.21875 -8.015625 L 4.21875 -0.90625 L 5.984375 -0.90625 L 5.984375 0 L 1.359375 0 Z M 1.359375 -0.90625 "/>
</g>
<g id="glyph-0-6">
<path d="M 1.1875 -8.015625 L 5.453125 -8.015625 L 5.453125 -7.109375 L 2.1875 -7.109375 L 2.1875 -5.140625 C 2.34375 -5.191406 2.5 -5.226562 2.65625 -5.25 C 2.8125 -5.28125 2.96875 -5.296875 3.125 -5.296875 C 4.019531 -5.296875 4.726562 -5.050781 5.25 -4.5625 C 5.769531 -4.070312 6.03125 -3.410156 6.03125 -2.578125 C 6.03125 -1.710938 5.757812 -1.039062 5.21875 -0.5625 C 4.6875 -0.0820312 3.929688 0.15625 2.953125 0.15625 C 2.617188 0.15625 2.273438 0.125 1.921875 0.0625 C 1.578125 0.0078125 1.21875 -0.0703125 0.84375 -0.1875 L 0.84375 -1.28125 C 1.164062 -1.101562 1.5 -0.96875 1.84375 -0.875 C 2.1875 -0.789062 2.550781 -0.75 2.9375 -0.75 C 3.5625 -0.75 4.050781 -0.910156 4.40625 -1.234375 C 4.769531 -1.566406 4.953125 -2.015625 4.953125 -2.578125 C 4.953125 -3.128906 4.769531 -3.566406 4.40625 -3.890625 C 4.050781 -4.222656 3.5625 -4.390625 2.9375 -4.390625 C 2.644531 -4.390625 2.351562 -4.351562 2.0625 -4.28125 C 1.78125 -4.21875 1.488281 -4.117188 1.1875 -3.984375 Z M 1.1875 -8.015625 "/>
</g>
<g id="glyph-0-7">
<path d="M 0.90625 -8.015625 L 6.0625 -8.015625 L 6.0625 -7.5625 L 3.140625 0 L 2.015625 0 L 4.75 -7.109375 L 0.90625 -7.109375 Z M 0.90625 -8.015625 "/>
</g>
<g id="glyph-1-0">
<path d="M -3.96875 -6.59375 L 0 -6.59375 L 0 -5.515625 L -3.921875 -5.515625 C -4.546875 -5.515625 -5.007812 -5.390625 -5.3125 -5.140625 C -5.625 -4.898438 -5.78125 -4.539062 -5.78125 -4.0625 C -5.78125 -3.476562 -5.59375 -3.015625 -5.21875 -2.671875 C -4.851562 -2.335938 -4.347656 -2.171875 -3.703125 -2.171875 L 0 -2.171875 L 0 -1.09375 L -6.5625 -1.09375 L -6.5625 -2.171875 L -5.546875 -2.171875 C -5.941406 -2.429688 -6.234375 -2.734375 -6.421875 -3.078125 C -6.617188 -3.429688 -6.71875 -3.835938 -6.71875 -4.296875 C -6.71875 -5.046875 -6.484375 -5.613281 -6.015625 -6 C -5.554688 -6.394531 -4.875 -6.59375 -3.96875 -6.59375 Z M -3.96875 -6.59375 "/>
</g>
<g id="glyph-1-1">
<path d="M -5.8125 -3.671875 C -5.8125 -3.097656 -5.582031 -2.640625 -5.125 -2.296875 C -4.675781 -1.960938 -4.0625 -1.796875 -3.28125 -1.796875 C -2.488281 -1.796875 -1.867188 -1.960938 -1.421875 -2.296875 C -0.972656 -2.628906 -0.75 -3.085938 -0.75 -3.671875 C -0.75 -4.242188 -0.972656 -4.695312 -1.421875 -5.03125 C -1.878906 -5.375 -2.5 -5.546875 -3.28125 -5.546875 C -4.050781 -5.546875 -4.664062 -5.375 -5.125 -5.03125 C -5.582031 -4.695312 -5.8125 -4.242188 -5.8125 -3.671875 Z M -6.71875 -3.671875 C -6.71875 -4.609375 -6.410156 -5.34375 -5.796875 -5.875 C -5.191406 -6.414062 -4.351562 -6.6875 -3.28125 -6.6875 C -2.207031 -6.6875 -1.363281 -6.414062 -0.75 -5.875 C -0.132812 -5.34375 0.171875 -4.609375 0.171875 -3.671875 C 0.171875 -2.734375 -0.132812 -1.992188 -0.75 -1.453125 C -1.363281 -0.921875 -2.207031 -0.65625 -3.28125 -0.65625 C -4.351562 -0.65625 -5.191406 -0.921875 -5.796875 -1.453125 C -6.410156 -1.992188 -6.71875 -2.734375 -6.71875 -3.671875 Z M -6.71875 -3.671875 "/>
</g>
<g id="glyph-1-2">
<path d="M -5.296875 -6.234375 C -5.785156 -6.503906 -6.144531 -6.828125 -6.375 -7.203125 C -6.601562 -7.578125 -6.71875 -8.019531 -6.71875 -8.53125 C -6.71875 -9.21875 -6.476562 -9.742188 -6 -10.109375 C -5.519531 -10.484375 -4.84375 -10.671875 -3.96875 -10.671875 L 0 -10.671875 L 0 -9.59375 L -3.921875 -9.59375 C -4.554688 -9.59375 -5.023438 -9.476562 -5.328125 -9.25 C -5.628906 -9.03125 -5.78125 -8.691406 -5.78125 -8.234375 C -5.78125 -7.671875 -5.59375 -7.226562 -5.21875 -6.90625 C -4.851562 -6.582031 -4.347656 -6.421875 -3.703125 -6.421875 L 0 -6.421875 L 0 -5.34375 L -3.921875 -5.34375 C -4.554688 -5.34375 -5.023438 -5.226562 -5.328125 -5 C -5.628906 -4.78125 -5.78125 -4.4375 -5.78125 -3.96875 C -5.78125 -3.414062 -5.59375 -2.976562 -5.21875 -2.65625 C -4.851562 -2.332031 -4.347656 -2.171875 -3.703125 -2.171875 L 0 -2.171875 L 0 -1.09375 L -6.5625 -1.09375 L -6.5625 -2.171875 L -5.546875 -2.171875 C -5.941406 -2.421875 -6.234375 -2.71875 -6.421875 -3.0625 C -6.617188 -3.40625 -6.71875 -3.8125 -6.71875 -4.28125 C -6.71875 -4.757812 -6.597656 -5.164062 -6.359375 -5.5 C -6.117188 -5.832031 -5.765625 -6.078125 -5.296875 -6.234375 Z M -5.296875 -6.234375 "/>
</g>
<g id="glyph-1-3">
<path d="M -3.28125 -5.84375 C -4.070312 -5.84375 -4.691406 -5.675781 -5.140625 -5.34375 C -5.585938 -5.019531 -5.8125 -4.578125 -5.8125 -4.015625 C -5.8125 -3.441406 -5.585938 -2.988281 -5.140625 -2.65625 C -4.691406 -2.332031 -4.070312 -2.171875 -3.28125 -2.171875 C -2.488281 -2.171875 -1.863281 -2.332031 -1.40625 -2.65625 C -0.957031 -2.988281 -0.734375 -3.441406 -0.734375 -4.015625 C -0.734375 -4.578125 -0.957031 -5.019531 -1.40625 -5.34375 C -1.863281 -5.675781 -2.488281 -5.84375 -3.28125 -5.84375 Z M -5.5625 -2.171875 C -5.957031 -2.398438 -6.25 -2.6875 -6.4375 -3.03125 C -6.625 -3.375 -6.71875 -3.785156 -6.71875 -4.265625 C -6.71875 -5.066406 -6.398438 -5.71875 -5.765625 -6.21875 C -5.140625 -6.71875 -4.3125 -6.96875 -3.28125 -6.96875 C -2.25 -6.96875 -1.414062 -6.71875 -0.78125 -6.21875 C -0.144531 -5.71875 0.171875 -5.066406 0.171875 -4.265625 C 0.171875 -3.785156 0.0742188 -3.375 -0.109375 -3.03125 C -0.304688 -2.6875 -0.597656 -2.398438 -0.984375 -2.171875 L 0 -2.171875 L 0 -1.09375 L -9.125 -1.09375 L -9.125 -2.171875 Z M -5.5625 -2.171875 "/>
</g>
<g id="glyph-1-4">
<path d="M -5.5625 -4.9375 C -5.625 -4.8125 -5.671875 -4.675781 -5.703125 -4.53125 C -5.742188 -4.394531 -5.765625 -4.238281 -5.765625 -4.0625 C -5.765625 -3.457031 -5.566406 -2.988281 -5.171875 -2.65625 C -4.773438 -2.332031 -4.203125 -2.171875 -3.453125 -2.171875 L 0 -2.171875 L 0 -1.09375 L -6.5625 -1.09375 L -6.5625 -2.171875 L -5.546875 -2.171875 C -5.941406 -2.398438 -6.234375 -2.695312 -6.421875 -3.0625 C -6.617188 -3.425781 -6.71875 -3.867188 -6.71875 -4.390625 C -6.71875 -4.460938 -6.710938 -4.539062 -6.703125 -4.625 C -6.691406 -4.71875 -6.675781 -4.816406 -6.65625 -4.921875 Z M -5.5625 -4.9375 "/>
</g>
<g id="glyph-1-5">
<path d="M -3.546875 -6.75 L -3.03125 -6.75 L -3.03125 -1.78125 C -2.28125 -1.832031 -1.710938 -2.054688 -1.328125 -2.453125 C -0.941406 -2.859375 -0.75 -3.414062 -0.75 -4.125 C -0.75 -4.539062 -0.796875 -4.941406 -0.890625 -5.328125 C -0.992188 -5.722656 -1.148438 -6.113281 -1.359375 -6.5 L -0.328125 -6.5 C -0.171875 -6.101562 -0.0507812 -5.703125 0.03125 -5.296875 C 0.125 -4.890625 0.171875 -4.476562 0.171875 -4.0625 C 0.171875 -3.019531 -0.128906 -2.191406 -0.734375 -1.578125 C -1.347656 -0.960938 -2.175781 -0.65625 -3.21875 -0.65625 C -4.289062 -0.65625 -5.140625 -0.945312 -5.765625 -1.53125 C -6.398438 -2.113281 -6.71875 -2.894531 -6.71875 -3.875 C -6.71875 -4.757812 -6.429688 -5.457031 -5.859375 -5.96875 C -5.296875 -6.488281 -4.523438 -6.75 -3.546875 -6.75 Z M -3.875 -5.671875 C -4.457031 -5.660156 -4.925781 -5.492188 -5.28125 -5.171875 C -5.632812 -4.847656 -5.8125 -4.421875 -5.8125 -3.890625 C -5.8125 -3.285156 -5.640625 -2.800781 -5.296875 -2.4375 C -4.953125 -2.082031 -4.472656 -1.878906 -3.859375 -1.828125 Z M -3.875 -5.671875 "/>
</g>
<g id="glyph-1-6">
</g>
<g id="glyph-1-7">
<path d="M -5.5625 -5.453125 L -9.125 -5.453125 L -9.125 -6.53125 L 0 -6.53125 L 0 -5.453125 L -0.984375 -5.453125 C -0.597656 -5.222656 -0.304688 -4.9375 -0.109375 -4.59375 C 0.0742188 -4.25 0.171875 -3.832031 0.171875 -3.34375 C 0.171875 -2.550781 -0.144531 -1.90625 -0.78125 -1.40625 C -1.414062 -0.90625 -2.25 -0.65625 -3.28125 -0.65625 C -4.3125 -0.65625 -5.140625 -0.90625 -5.765625 -1.40625 C -6.398438 -1.90625 -6.71875 -2.550781 -6.71875 -3.34375 C -6.71875 -3.832031 -6.625 -4.25 -6.4375 -4.59375 C -6.25 -4.9375 -5.957031 -5.222656 -5.5625 -5.453125 Z M -3.28125 -1.78125 C -2.488281 -1.78125 -1.863281 -1.941406 -1.40625 -2.265625 C -0.957031 -2.585938 -0.734375 -3.035156 -0.734375 -3.609375 C -0.734375 -4.179688 -0.957031 -4.628906 -1.40625 -4.953125 C -1.863281 -5.285156 -2.488281 -5.453125 -3.28125 -5.453125 C -4.070312 -5.453125 -4.691406 -5.285156 -5.140625 -4.953125 C -5.585938 -4.628906 -5.8125 -4.179688 -5.8125 -3.609375 C -5.8125 -3.035156 -5.585938 -2.585938 -5.140625 -2.265625 C -4.691406 -1.941406 -4.070312 -1.78125 -3.28125 -1.78125 Z M -3.28125 -1.78125 "/>
</g>
<g id="glyph-1-8">
<path d="M -8.75 -2.15625 L -5.5 -2.15625 L -5.5 -1.15625 L -8.75 -1.15625 Z M -8.75 -2.15625 "/>
</g>
<g id="glyph-1-9">
<path d="M -6.3125 -5.859375 L -5.296875 -5.859375 C -5.472656 -5.546875 -5.601562 -5.238281 -5.6875 -4.9375 C -5.769531 -4.632812 -5.8125 -4.328125 -5.8125 -4.015625 C -5.8125 -3.304688 -5.585938 -2.757812 -5.140625 -2.375 C -4.703125 -1.988281 -4.082031 -1.796875 -3.28125 -1.796875 C -2.476562 -1.796875 -1.851562 -1.988281 -1.40625 -2.375 C -0.96875 -2.757812 -0.75 -3.304688 -0.75 -4.015625 C -0.75 -4.328125 -0.789062 -4.632812 -0.875 -4.9375 C -0.957031 -5.238281 -1.082031 -5.546875 -1.25 -5.859375 L -0.25 -5.859375 C -0.113281 -5.554688 -0.0078125 -5.242188 0.0625 -4.921875 C 0.132812 -4.597656 0.171875 -4.253906 0.171875 -3.890625 C 0.171875 -2.898438 -0.132812 -2.113281 -0.75 -1.53125 C -1.375 -0.945312 -2.21875 -0.65625 -3.28125 -0.65625 C -4.34375 -0.65625 -5.179688 -0.945312 -5.796875 -1.53125 C -6.410156 -2.125 -6.71875 -2.9375 -6.71875 -3.96875 C -6.71875 -4.289062 -6.679688 -4.609375 -6.609375 -4.921875 C -6.546875 -5.242188 -6.445312 -5.554688 -6.3125 -5.859375 Z M -6.3125 -5.859375 "/>
</g>
<g id="glyph-1-10">
<path d="M -2.59375 -1.015625 L -6.5625 -1.015625 L -6.5625 -2.09375 L -2.625 -2.09375 C -2.007812 -2.09375 -1.546875 -2.210938 -1.234375 -2.453125 C -0.921875 -2.703125 -0.765625 -3.066406 -0.765625 -3.546875 C -0.765625 -4.128906 -0.945312 -4.585938 -1.3125 -4.921875 C -1.6875 -5.265625 -2.195312 -5.4375 -2.84375 -5.4375 L -6.5625 -5.4375 L -6.5625 -6.515625 L 0 -6.515625 L 0 -5.4375 L -1.015625 -5.4375 C -0.609375 -5.175781 -0.304688 -4.875 -0.109375 -4.53125 C 0.0742188 -4.1875 0.171875 -3.785156 0.171875 -3.328125 C 0.171875 -2.566406 -0.0625 -1.988281 -0.53125 -1.59375 C -1 -1.207031 -1.6875 -1.015625 -2.59375 -1.015625 Z M -6.71875 -3.734375 Z M -6.71875 -3.734375 "/>
</g>
<g id="glyph-2-0">
<path d="M 1.171875 -8.75 L 6.203125 -8.75 L 6.203125 -7.75 L 2.359375 -7.75 L 2.359375 -5.171875 L 5.828125 -5.171875 L 5.828125 -4.171875 L 2.359375 -4.171875 L 2.359375 0 L 1.171875 0 Z M 1.171875 -8.75 "/>
</g>
<g id="glyph-2-1">
<path d="M 4.9375 -5.5625 C 4.8125 -5.625 4.675781 -5.671875 4.53125 -5.703125 C 4.394531 -5.742188 4.238281 -5.765625 4.0625 -5.765625 C 3.457031 -5.765625 2.988281 -5.566406 2.65625 -5.171875 C 2.332031 -4.773438 2.171875 -4.203125 2.171875 -3.453125 L 2.171875 0 L 1.09375 0 L 1.09375 -6.5625 L 2.171875 -6.5625 L 2.171875 -5.546875 C 2.398438 -5.941406 2.695312 -6.234375 3.0625 -6.421875 C 3.425781 -6.617188 3.867188 -6.71875 4.390625 -6.71875 C 4.460938 -6.71875 4.539062 -6.710938 4.625 -6.703125 C 4.71875 -6.691406 4.816406 -6.675781 4.921875 -6.65625 Z M 4.9375 -5.5625 "/>
</g>
<g id="glyph-2-2">
<path d="M 6.75 -3.546875 L 6.75 -3.03125 L 1.78125 -3.03125 C 1.832031 -2.28125 2.054688 -1.710938 2.453125 -1.328125 C 2.859375 -0.941406 3.414062 -0.75 4.125 -0.75 C 4.539062 -0.75 4.941406 -0.796875 5.328125 -0.890625 C 5.722656 -0.992188 6.113281 -1.148438 6.5 -1.359375 L 6.5 -0.328125 C 6.101562 -0.171875 5.703125 -0.0507812 5.296875 0.03125 C 4.890625 0.125 4.476562 0.171875 4.0625 0.171875 C 3.019531 0.171875 2.191406 -0.128906 1.578125 -0.734375 C 0.960938 -1.347656 0.65625 -2.175781 0.65625 -3.21875 C 0.65625 -4.289062 0.945312 -5.140625 1.53125 -5.765625 C 2.113281 -6.398438 2.894531 -6.71875 3.875 -6.71875 C 4.757812 -6.71875 5.457031 -6.429688 5.96875 -5.859375 C 6.488281 -5.296875 6.75 -4.523438 6.75 -3.546875 Z M 5.671875 -3.875 C 5.660156 -4.457031 5.492188 -4.925781 5.171875 -5.28125 C 4.847656 -5.632812 4.421875 -5.8125 3.890625 -5.8125 C 3.285156 -5.8125 2.800781 -5.640625 2.4375 -5.296875 C 2.082031 -4.953125 1.878906 -4.472656 1.828125 -3.859375 Z M 4.625 -9.59375 L 5.796875 -9.59375 L 3.890625 -7.390625 L 2.984375 -7.390625 Z M 4.625 -9.59375 "/>
</g>
<g id="glyph-2-3">
<path d="M 1.78125 -3.28125 C 1.78125 -2.488281 1.941406 -1.863281 2.265625 -1.40625 C 2.585938 -0.957031 3.035156 -0.734375 3.609375 -0.734375 C 4.179688 -0.734375 4.628906 -0.957031 4.953125 -1.40625 C 5.285156 -1.863281 5.453125 -2.488281 5.453125 -3.28125 C 5.453125 -4.070312 5.285156 -4.691406 4.953125 -5.140625 C 4.628906 -5.585938 4.179688 -5.8125 3.609375 -5.8125 C 3.035156 -5.8125 2.585938 -5.585938 2.265625 -5.140625 C 1.941406 -4.691406 1.78125 -4.070312 1.78125 -3.28125 Z M 5.453125 -0.984375 C 5.222656 -0.597656 4.9375 -0.304688 4.59375 -0.109375 C 4.25 0.0742188 3.832031 0.171875 3.34375 0.171875 C 2.550781 0.171875 1.90625 -0.144531 1.40625 -0.78125 C 0.90625 -1.414062 0.65625 -2.25 0.65625 -3.28125 C 0.65625 -4.3125 0.90625 -5.140625 1.40625 -5.765625 C 1.90625 -6.398438 2.550781 -6.71875 3.34375 -6.71875 C 3.832031 -6.71875 4.25 -6.625 4.59375 -6.4375 C 4.9375 -6.25 5.222656 -5.957031 5.453125 -5.5625 L 5.453125 -6.5625 L 6.53125 -6.5625 L 6.53125 2.5 L 5.453125 2.5 Z M 5.453125 -0.984375 "/>
</g>
<g id="glyph-2-4">
<path d="M 1.015625 -2.59375 L 1.015625 -6.5625 L 2.09375 -6.5625 L 2.09375 -2.625 C 2.09375 -2.007812 2.210938 -1.546875 2.453125 -1.234375 C 2.703125 -0.921875 3.066406 -0.765625 3.546875 -0.765625 C 4.128906 -0.765625 4.585938 -0.945312 4.921875 -1.3125 C 5.265625 -1.6875 5.4375 -2.195312 5.4375 -2.84375 L 5.4375 -6.5625 L 6.515625 -6.5625 L 6.515625 0 L 5.4375 0 L 5.4375 -1.015625 C 5.175781 -0.609375 4.875 -0.304688 4.53125 -0.109375 C 4.1875 0.0742188 3.785156 0.171875 3.328125 0.171875 C 2.566406 0.171875 1.988281 -0.0625 1.59375 -0.53125 C 1.207031 -1 1.015625 -1.6875 1.015625 -2.59375 Z M 3.734375 -6.71875 Z M 3.734375 -6.71875 "/>
</g>
<g id="glyph-2-5">
<path d="M 6.75 -3.546875 L 6.75 -3.03125 L 1.78125 -3.03125 C 1.832031 -2.28125 2.054688 -1.710938 2.453125 -1.328125 C 2.859375 -0.941406 3.414062 -0.75 4.125 -0.75 C 4.539062 -0.75 4.941406 -0.796875 5.328125 -0.890625 C 5.722656 -0.992188 6.113281 -1.148438 6.5 -1.359375 L 6.5 -0.328125 C 6.101562 -0.171875 5.703125 -0.0507812 5.296875 0.03125 C 4.890625 0.125 4.476562 0.171875 4.0625 0.171875 C 3.019531 0.171875 2.191406 -0.128906 1.578125 -0.734375 C 0.960938 -1.347656 0.65625 -2.175781 0.65625 -3.21875 C 0.65625 -4.289062 0.945312 -5.140625 1.53125 -5.765625 C 2.113281 -6.398438 2.894531 -6.71875 3.875 -6.71875 C 4.757812 -6.71875 5.457031 -6.429688 5.96875 -5.859375 C 6.488281 -5.296875 6.75 -4.523438 6.75 -3.546875 Z M 5.671875 -3.875 C 5.660156 -4.457031 5.492188 -4.925781 5.171875 -5.28125 C 4.847656 -5.632812 4.421875 -5.8125 3.890625 -5.8125 C 3.285156 -5.8125 2.800781 -5.640625 2.4375 -5.296875 C 2.082031 -4.953125 1.878906 -4.472656 1.828125 -3.859375 Z M 5.671875 -3.875 "/>
</g>
<g id="glyph-2-6">
<path d="M 6.59375 -3.96875 L 6.59375 0 L 5.515625 0 L 5.515625 -3.921875 C 5.515625 -4.546875 5.390625 -5.007812 5.140625 -5.3125 C 4.898438 -5.625 4.539062 -5.78125 4.0625 -5.78125 C 3.476562 -5.78125 3.015625 -5.59375 2.671875 -5.21875 C 2.335938 -4.851562 2.171875 -4.347656 2.171875 -3.703125 L 2.171875 0 L 1.09375 0 L 1.09375 -6.5625 L 2.171875 -6.5625 L 2.171875 -5.546875 C 2.429688 -5.941406 2.734375 -6.234375 3.078125 -6.421875 C 3.429688 -6.617188 3.835938 -6.71875 4.296875 -6.71875 C 5.046875 -6.71875 5.613281 -6.484375 6 -6.015625 C 6.394531 -5.554688 6.59375 -4.875 6.59375 -3.96875 Z M 6.59375 -3.96875 "/>
</g>
<g id="glyph-2-7">
<path d="M 5.859375 -6.3125 L 5.859375 -5.296875 C 5.546875 -5.472656 5.238281 -5.601562 4.9375 -5.6875 C 4.632812 -5.769531 4.328125 -5.8125 4.015625 -5.8125 C 3.304688 -5.8125 2.757812 -5.585938 2.375 -5.140625 C 1.988281 -4.703125 1.796875 -4.082031 1.796875 -3.28125 C 1.796875 -2.476562 1.988281 -1.851562 2.375 -1.40625 C 2.757812 -0.96875 3.304688 -0.75 4.015625 -0.75 C 4.328125 -0.75 4.632812 -0.789062 4.9375 -0.875 C 5.238281 -0.957031 5.546875 -1.082031 5.859375 -1.25 L 5.859375 -0.25 C 5.554688 -0.113281 5.242188 -0.0078125 4.921875 0.0625 C 4.597656 0.132812 4.253906 0.171875 3.890625 0.171875 C 2.898438 0.171875 2.113281 -0.132812 1.53125 -0.75 C 0.945312 -1.375 0.65625 -2.21875 0.65625 -3.28125 C 0.65625 -4.34375 0.945312 -5.179688 1.53125 -5.796875 C 2.125 -6.410156 2.9375 -6.71875 3.96875 -6.71875 C 4.289062 -6.71875 4.609375 -6.679688 4.921875 -6.609375 C 5.242188 -6.546875 5.554688 -6.445312 5.859375 -6.3125 Z M 5.859375 -6.3125 "/>
</g>
<g id="glyph-2-8">
</g>
<g id="glyph-2-9">
<path d="M 5.453125 -5.5625 L 5.453125 -9.125 L 6.53125 -9.125 L 6.53125 0 L 5.453125 0 L 5.453125 -0.984375 C 5.222656 -0.597656 4.9375 -0.304688 4.59375 -0.109375 C 4.25 0.0742188 3.832031 0.171875 3.34375 0.171875 C 2.550781 0.171875 1.90625 -0.144531 1.40625 -0.78125 C 0.90625 -1.414062 0.65625 -2.25 0.65625 -3.28125 C 0.65625 -4.3125 0.90625 -5.140625 1.40625 -5.765625 C 1.90625 -6.398438 2.550781 -6.71875 3.34375 -6.71875 C 3.832031 -6.71875 4.25 -6.625 4.59375 -6.4375 C 4.9375 -6.25 5.222656 -5.957031 5.453125 -5.5625 Z M 1.78125 -3.28125 C 1.78125 -2.488281 1.941406 -1.863281 2.265625 -1.40625 C 2.585938 -0.957031 3.035156 -0.734375 3.609375 -0.734375 C 4.179688 -0.734375 4.628906 -0.957031 4.953125 -1.40625 C 5.285156 -1.863281 5.453125 -2.488281 5.453125 -3.28125 C 5.453125 -4.070312 5.285156 -4.691406 4.953125 -5.140625 C 4.628906 -5.585938 4.179688 -5.8125 3.609375 -5.8125 C 3.035156 -5.8125 2.585938 -5.585938 2.265625 -5.140625 C 1.941406 -4.691406 1.78125 -4.070312 1.78125 -3.28125 Z M 1.78125 -3.28125 "/>
</g>
<g id="glyph-2-10">
<path d="M 6.59375 -3.96875 L 6.59375 0 L 5.515625 0 L 5.515625 -3.921875 C 5.515625 -4.546875 5.390625 -5.007812 5.140625 -5.3125 C 4.898438 -5.625 4.539062 -5.78125 4.0625 -5.78125 C 3.476562 -5.78125 3.015625 -5.59375 2.671875 -5.21875 C 2.335938 -4.851562 2.171875 -4.347656 2.171875 -3.703125 L 2.171875 0 L 1.09375 0 L 1.09375 -9.125 L 2.171875 -9.125 L 2.171875 -5.546875 C 2.429688 -5.941406 2.734375 -6.234375 3.078125 -6.421875 C 3.429688 -6.617188 3.835938 -6.71875 4.296875 -6.71875 C 5.046875 -6.71875 5.613281 -6.484375 6 -6.015625 C 6.394531 -5.554688 6.59375 -4.875 6.59375 -3.96875 Z M 6.59375 -3.96875 "/>
</g>
<g id="glyph-2-11">
<path d="M 4.109375 -3.296875 C 3.242188 -3.296875 2.640625 -3.195312 2.296875 -3 C 1.960938 -2.800781 1.796875 -2.460938 1.796875 -1.984375 C 1.796875 -1.597656 1.921875 -1.289062 2.171875 -1.0625 C 2.429688 -0.84375 2.773438 -0.734375 3.203125 -0.734375 C 3.804688 -0.734375 4.285156 -0.941406 4.640625 -1.359375 C 5.003906 -1.785156 5.1875 -2.351562 5.1875 -3.0625 L 5.1875 -3.296875 Z M 6.265625 -3.75 L 6.265625 0 L 5.1875 0 L 5.1875 -1 C 4.9375 -0.601562 4.628906 -0.304688 4.265625 -0.109375 C 3.898438 0.0742188 3.453125 0.171875 2.921875 0.171875 C 2.242188 0.171875 1.707031 -0.015625 1.3125 -0.390625 C 0.914062 -0.773438 0.71875 -1.28125 0.71875 -1.90625 C 0.71875 -2.644531 0.960938 -3.203125 1.453125 -3.578125 C 1.953125 -3.953125 2.691406 -4.140625 3.671875 -4.140625 L 5.1875 -4.140625 L 5.1875 -4.25 C 5.1875 -4.75 5.019531 -5.132812 4.6875 -5.40625 C 4.363281 -5.675781 3.910156 -5.8125 3.328125 -5.8125 C 2.953125 -5.8125 2.582031 -5.765625 2.21875 -5.671875 C 1.863281 -5.578125 1.523438 -5.441406 1.203125 -5.265625 L 1.203125 -6.265625 C 1.597656 -6.421875 1.976562 -6.535156 2.34375 -6.609375 C 2.71875 -6.679688 3.082031 -6.71875 3.4375 -6.71875 C 4.382812 -6.71875 5.09375 -6.472656 5.5625 -5.984375 C 6.03125 -5.492188 6.265625 -4.75 6.265625 -3.75 Z M 6.265625 -3.75 "/>
</g>
<g id="glyph-2-12">
<path d="M 2.203125 -8.421875 L 2.203125 -6.5625 L 4.421875 -6.5625 L 4.421875 -5.71875 L 2.203125 -5.71875 L 2.203125 -2.15625 C 2.203125 -1.625 2.273438 -1.28125 2.421875 -1.125 C 2.566406 -0.976562 2.863281 -0.90625 3.3125 -0.90625 L 4.421875 -0.90625 L 4.421875 0 L 3.3125 0 C 2.476562 0 1.898438 -0.15625 1.578125 -0.46875 C 1.265625 -0.78125 1.109375 -1.34375 1.109375 -2.15625 L 1.109375 -5.71875 L 0.328125 -5.71875 L 0.328125 -6.5625 L 1.109375 -6.5625 L 1.109375 -8.421875 Z M 2.203125 -8.421875 "/>
</g>
<g id="glyph-2-13">
<path d="M 6.234375 -5.296875 C 6.503906 -5.785156 6.828125 -6.144531 7.203125 -6.375 C 7.578125 -6.601562 8.019531 -6.71875 8.53125 -6.71875 C 9.21875 -6.71875 9.742188 -6.476562 10.109375 -6 C 10.484375 -5.519531 10.671875 -4.84375 10.671875 -3.96875 L 10.671875 0 L 9.59375 0 L 9.59375 -3.921875 C 9.59375 -4.554688 9.476562 -5.023438 9.25 -5.328125 C 9.03125 -5.628906 8.691406 -5.78125 8.234375 -5.78125 C 7.671875 -5.78125 7.226562 -5.59375 6.90625 -5.21875 C 6.582031 -4.851562 6.421875 -4.347656 6.421875 -3.703125 L 6.421875 0 L 5.34375 0 L 5.34375 -3.921875 C 5.34375 -4.554688 5.226562 -5.023438 5 -5.328125 C 4.78125 -5.628906 4.4375 -5.78125 3.96875 -5.78125 C 3.414062 -5.78125 2.976562 -5.59375 2.65625 -5.21875 C 2.332031 -4.851562 2.171875 -4.347656 2.171875 -3.703125 L 2.171875 0 L 1.09375 0 L 1.09375 -6.5625 L 2.171875 -6.5625 L 2.171875 -5.546875 C 2.421875 -5.941406 2.71875 -6.234375 3.0625 -6.421875 C 3.40625 -6.617188 3.8125 -6.71875 4.28125 -6.71875 C 4.757812 -6.71875 5.164062 -6.597656 5.5 -6.359375 C 5.832031 -6.117188 6.078125 -5.765625 6.234375 -5.296875 Z M 6.234375 -5.296875 "/>
</g>
</g>
<clipPath id="clip-0">
<path clip-rule="nonzero" d="M 95 28.800781 L 96 28.800781 L 96 182.5 L 95 182.5 Z M 95 28.800781 "/>
</clipPath>
<clipPath id="clip-1">
<path clip-rule="nonzero" d="M 156 28.800781 L 158 28.800781 L 158 182.5 L 156 182.5 Z M 156 28.800781 "/>
</clipPath>
<clipPath id="clip-2">
<path clip-rule="nonzero" d="M 218 28.800781 L 219 28.800781 L 219 182.5 L 218 182.5 Z M 218 28.800781 "/>
</clipPath>
<clipPath id="clip-3">
<path clip-rule="nonzero" d="M 280 28.800781 L 281 28.800781 L 281 182.5 L 280 182.5 Z M 280 28.800781 "/>
</clipPath>
<clipPath id="clip-4">
<path clip-rule="nonzero" d="M 342 28.800781 L 343 28.800781 L 343 182.5 L 342 182.5 Z M 342 28.800781 "/>
</clipPath>
<clipPath id="clip-5">
<path clip-rule="nonzero" d="M 403 28.800781 L 405 28.800781 L 405 182.5 L 403 182.5 Z M 403 28.800781 "/>
</clipPath>
<clipPath id="clip-6">
<path clip-rule="nonzero" d="M 79.800781 177 L 419.039062 177 L 419.039062 178 L 79.800781 178 Z M 79.800781 177 "/>
</clipPath>
<clipPath id="clip-7">
<path clip-rule="nonzero" d="M 79.800781 147 L 419.039062 147 L 419.039062 148 L 79.800781 148 Z M 79.800781 147 "/>
</clipPath>
<clipPath id="clip-8">
<path clip-rule="nonzero" d="M 79.800781 117 L 419.039062 117 L 419.039062 118 L 79.800781 118 Z M 79.800781 117 "/>
</clipPath>
<clipPath id="clip-9">
<path clip-rule="nonzero" d="M 79.800781 87 L 419.039062 87 L 419.039062 88 L 79.800781 88 Z M 79.800781 87 "/>
</clipPath>
<clipPath id="clip-10">
<path clip-rule="nonzero" d="M 79.800781 57 L 419.039062 57 L 419.039062 58 L 79.800781 58 Z M 79.800781 57 "/>
</clipPath>
</defs>
<g clip-path="url(#clip-0)">
<path fill="none" stroke-width="0.35" stroke-linecap="butt" stroke-linejoin="round" stroke="rgb(50%, 50%, 50%)" stroke-opacity="1" stroke-dasharray="2.45 3.5" stroke-miterlimit="10" d="M 95.21875 33.5 L 95.21875 187.199219 " transform="matrix(1, 0, 0, -1, 0, 216)"/>
</g>
<g fill="rgb(83.999634%, 83.999634%, 83.999634%)" fill-opacity="1">
<use xlink:href="#glyph-0-0" x="91.72" y="200.359375"/>
</g>
<g clip-path="url(#clip-1)">
<path fill="none" stroke-width="0.35" stroke-linecap="butt" stroke-linejoin="round" stroke="rgb(50%, 50%, 50%)" stroke-opacity="1" stroke-dasharray="2.45 3.5" stroke-miterlimit="10" d="M 156.960938 33.5 L 156.960938 187.199219 " transform="matrix(1, 0, 0, -1, 0, 216)"/>
</g>
<g fill="rgb(83.999634%, 83.999634%, 83.999634%)" fill-opacity="1">
<use xlink:href="#glyph-0-1" x="146.461742" y="200.359375"/>
<use xlink:href="#glyph-0-0" x="153.457742" y="200.359375"/>
<use xlink:href="#glyph-0-0" x="160.453742" y="200.359375"/>
</g>
<g clip-path="url(#clip-2)">
<path fill="none" stroke-width="0.35" stroke-linecap="butt" stroke-linejoin="round" stroke="rgb(50%, 50%, 50%)" stroke-opacity="1" stroke-dasharray="2.45 3.5" stroke-miterlimit="10" d="M 218.703125 33.5 L 218.703125 187.199219 " transform="matrix(1, 0, 0, -1, 0, 216)"/>
</g>
<g fill="rgb(83.999634%, 83.999634%, 83.999634%)" fill-opacity="1">
<use xlink:href="#glyph-0-2" x="208.203483" y="200.359375"/>
<use xlink:href="#glyph-0-0" x="215.199483" y="200.359375"/>
<use xlink:href="#glyph-0-0" x="222.195483" y="200.359375"/>
</g>
<g clip-path="url(#clip-3)">
<path fill="none" stroke-width="0.35" stroke-linecap="butt" stroke-linejoin="round" stroke="rgb(50%, 50%, 50%)" stroke-opacity="1" stroke-dasharray="2.45 3.5" stroke-miterlimit="10" d="M 280.445312 33.5 L 280.445312 187.199219 " transform="matrix(1, 0, 0, -1, 0, 216)"/>
</g>
<g fill="rgb(83.999634%, 83.999634%, 83.999634%)" fill-opacity="1">
<use xlink:href="#glyph-0-3" x="269.945225" y="200.359375"/>
<use xlink:href="#glyph-0-0" x="276.941225" y="200.359375"/>
<use xlink:href="#glyph-0-0" x="283.937225" y="200.359375"/>
</g>
<g clip-path="url(#clip-4)">
<path fill="none" stroke-width="0.35" stroke-linecap="butt" stroke-linejoin="round" stroke="rgb(50%, 50%, 50%)" stroke-opacity="1" stroke-dasharray="2.45 3.5" stroke-miterlimit="10" d="M 342.1875 33.5 L 342.1875 187.199219 " transform="matrix(1, 0, 0, -1, 0, 216)"/>
</g>
<g fill="rgb(83.999634%, 83.999634%, 83.999634%)" fill-opacity="1">
<use xlink:href="#glyph-0-4" x="331.686967" y="200.359375"/>
<use xlink:href="#glyph-0-0" x="338.682967" y="200.359375"/>
<use xlink:href="#glyph-0-0" x="345.678967" y="200.359375"/>
</g>
<g clip-path="url(#clip-5)">
<path fill="none" stroke-width="0.35" stroke-linecap="butt" stroke-linejoin="round" stroke="rgb(50%, 50%, 50%)" stroke-opacity="1" stroke-dasharray="2.45 3.5" stroke-miterlimit="10" d="M 403.929688 33.5 L 403.929688 187.199219 " transform="matrix(1, 0, 0, -1, 0, 216)"/>
</g>
<g fill="rgb(83.999634%, 83.999634%, 83.999634%)" fill-opacity="1">
<use xlink:href="#glyph-0-5" x="389.928709" y="200.359375"/>
<use xlink:href="#glyph-0-0" x="396.924709" y="200.359375"/>
<use xlink:href="#glyph-0-0" x="403.920709" y="200.359375"/>
<use xlink:href="#glyph-0-0" x="410.916709" y="200.359375"/>
</g>
<g clip-path="url(#clip-6)">
<path fill="none" stroke-width="0.35" stroke-linecap="butt" stroke-linejoin="round" stroke="rgb(50%, 50%, 50%)" stroke-opacity="1" stroke-dasharray="2.45 3.5" stroke-miterlimit="10" d="M 79.800781 38.757812 L 419.039062 38.757812 " transform="matrix(1, 0, 0, -1, 0, 216)"/>
</g>
<g fill="rgb(83.999634%, 83.999634%, 83.999634%)" fill-opacity="1">
<use xlink:href="#glyph-0-0" x="63.3" y="181.422574"/>
</g>
<g clip-path="url(#clip-7)">
<path fill="none" stroke-width="0.35" stroke-linecap="butt" stroke-linejoin="round" stroke="rgb(50%, 50%, 50%)" stroke-opacity="1" stroke-dasharray="2.45 3.5" stroke-miterlimit="10" d="M 79.800781 68.652344 L 419.039062 68.652344 " transform="matrix(1, 0, 0, -1, 0, 216)"/>
</g>
<g fill="rgb(83.999634%, 83.999634%, 83.999634%)" fill-opacity="1">
<use xlink:href="#glyph-0-1" x="35.3" y="151.525435"/>
<use xlink:href="#glyph-0-6" x="42.296" y="151.525435"/>
<use xlink:href="#glyph-0-0" x="49.292" y="151.525435"/>
<use xlink:href="#glyph-0-0" x="56.288" y="151.525435"/>
<use xlink:href="#glyph-0-0" x="63.284" y="151.525435"/>
</g>
<g clip-path="url(#clip-8)">
<path fill="none" stroke-width="0.35" stroke-linecap="butt" stroke-linejoin="round" stroke="rgb(50%, 50%, 50%)" stroke-opacity="1" stroke-dasharray="2.45 3.5" stroke-miterlimit="10" d="M 79.800781 98.550781 L 419.039062 98.550781 " transform="matrix(1, 0, 0, -1, 0, 216)"/>
</g>
<g fill="rgb(83.999634%, 83.999634%, 83.999634%)" fill-opacity="1">
<use xlink:href="#glyph-0-6" x="35.3" y="121.628295"/>
<use xlink:href="#glyph-0-0" x="42.296" y="121.628295"/>
<use xlink:href="#glyph-0-0" x="49.292" y="121.628295"/>
<use xlink:href="#glyph-0-0" x="56.288" y="121.628295"/>
<use xlink:href="#glyph-0-0" x="63.284" y="121.628295"/>
</g>
<g clip-path="url(#clip-9)">
<path fill="none" stroke-width="0.35" stroke-linecap="butt" stroke-linejoin="round" stroke="rgb(50%, 50%, 50%)" stroke-opacity="1" stroke-dasharray="2.45 3.5" stroke-miterlimit="10" d="M 79.800781 128.449219 L 419.039062 128.449219 " transform="matrix(1, 0, 0, -1, 0, 216)"/>
</g>
<g fill="rgb(83.999634%, 83.999634%, 83.999634%)" fill-opacity="1">
<use xlink:href="#glyph-0-7" x="35.3" y="91.731155"/>
<use xlink:href="#glyph-0-6" x="42.296" y="91.731155"/>
<use xlink:href="#glyph-0-0" x="49.292" y="91.731155"/>
<use xlink:href="#glyph-0-0" x="56.288" y="91.731155"/>
<use xlink:href="#glyph-0-0" x="63.284" y="91.731155"/>
</g>
<g clip-path="url(#clip-10)">
<path fill="none" stroke-width="0.35" stroke-linecap="butt" stroke-linejoin="round" stroke="rgb(50%, 50%, 50%)" stroke-opacity="1" stroke-dasharray="2.45 3.5" stroke-miterlimit="10" d="M 79.800781 158.34375 L 419.039062 158.34375 " transform="matrix(1, 0, 0, -1, 0, 216)"/>
</g>
<g fill="rgb(83.999634%, 83.999634%, 83.999634%)" fill-opacity="1">
<use xlink:href="#glyph-0-5" x="28.3" y="61.834015"/>
<use xlink:href="#glyph-0-0" x="35.296" y="61.834015"/>
<use xlink:href="#glyph-0-0" x="42.292" y="61.834015"/>
<use xlink:href="#glyph-0-0" x="49.288" y="61.834015"/>
<use xlink:href="#glyph-0-0" x="56.284" y="61.834015"/>
<use xlink:href="#glyph-0-0" x="63.28" y="61.834015"/>
</g>
<g fill="rgb(83.999634%, 83.999634%, 83.999634%)" fill-opacity="1">
<use xlink:href="#glyph-1-0" x="21.8" y="167.095313"/>
<use xlink:href="#glyph-1-1" x="21.8" y="159.487313"/>
<use xlink:href="#glyph-1-2" x="21.8" y="152.143313"/>
<use xlink:href="#glyph-1-3" x="21.8" y="140.455312"/>
<use xlink:href="#glyph-1-4" x="21.8" y="132.835313"/>
</g>
<g fill="rgb(83.999634%, 83.999634%, 83.999634%)" fill-opacity="1">
<use xlink:href="#glyph-1-5" x="21.8" y="128.153312"/>
<use xlink:href="#glyph-1-6" x="21.8" y="120.773312"/>
<use xlink:href="#glyph-1-7" x="21.8" y="116.957312"/>
<use xlink:href="#glyph-1-8" x="21.8" y="109.337312"/>
<use xlink:href="#glyph-1-1" x="21.8" y="106.037312"/>
<use xlink:href="#glyph-1-9" x="21.8" y="98.693312"/>
<use xlink:href="#glyph-1-9" x="21.8" y="92.093312"/>
<use xlink:href="#glyph-1-10" x="21.8" y="85.493312"/>
<use xlink:href="#glyph-1-4" x="21.8" y="77.885312"/>
</g>
<g fill="rgb(83.999634%, 83.999634%, 83.999634%)" fill-opacity="1">
<use xlink:href="#glyph-1-5" x="21.8" y="73.203312"/>
<use xlink:href="#glyph-1-0" x="21.8" y="65.823312"/>
<use xlink:href="#glyph-1-9" x="21.8" y="58.215312"/>
<use xlink:href="#glyph-1-5" x="21.8" y="51.615312"/>
</g>
<path fill="none" stroke-width="1.5" stroke-linecap="round" stroke-linejoin="round" stroke="rgb(29.803467%, 44.7052%, 69.018555%)" stroke-opacity="1" stroke-miterlimit="10" d="M 95.21875 40.488281 L 163.753906 41.128906 L 218.394531 42.085938 L 219.9375 42.128906 L 227.65625 42.265625 L 234.449219 42.398438 L 237.84375 42.535156 L 240.929688 42.609375 L 258.21875 43.179688 L 261.304688 43.285156 L 264.699219 43.410156 L 268.097656 43.542969 L 271.183594 43.652344 L 273.960938 43.695312 L 284.765625 44.109375 L 286.003906 44.1875 L 289.089844 44.304688 L 296.808594 44.664062 L 297.734375 44.734375 L 306.996094 45.25 L 308.230469 45.441406 L 312.550781 45.664062 L 314.402344 45.773438 L 316.5625 45.898438 L 319.652344 46.066406 L 321.503906 46.25 L 323.355469 46.363281 L 325.824219 46.742188 L 328.605469 46.90625 L 330.765625 47.089844 L 333.851562 47.46875 L 335.394531 47.585938 L 336.011719 47.730469 L 337.863281 47.835938 L 341.261719 48.242188 L 343.421875 48.421875 L 344.65625 48.714844 L 347.125 48.859375 L 352.683594 49.5 L 353.300781 49.695312 L 354.226562 49.777344 L 354.84375 49.871094 L 356.078125 50.054688 L 358.546875 50.371094 L 358.855469 50.519531 L 359.164062 50.996094 L 360.402344 51.164062 L 365.648438 52.359375 L 366.882812 53.160156 L 371.824219 54.445312 L 373.058594 54.605469 L 373.367188 54.761719 L 373.675781 55.128906 L 374.601562 55.316406 L 374.910156 55.734375 L 375.21875 55.738281 L 375.835938 56.226562 L 376.144531 56.457031 L 376.453125 56.496094 L 377.070312 56.855469 L 378.304688 57.515625 L 378.921875 58.210938 L 379.230469 58.230469 L 379.539062 58.425781 L 380.777344 58.644531 L 382.628906 59.429688 L 382.9375 59.746094 L 383.246094 59.886719 L 383.554688 60.21875 L 383.863281 60.269531 L 384.171875 60.910156 L 384.480469 61.0625 L 384.789062 61.375 L 385.097656 61.390625 L 385.40625 61.726562 L 385.714844 62.453125 L 386.023438 62.558594 L 386.332031 62.824219 L 386.640625 62.859375 L 387.257812 64.527344 L 387.566406 64.835938 L 387.875 64.90625 L 388.492188 66.296875 L 388.800781 66.585938 L 389.417969 68.332031 L 390.035156 69.789062 L 390.34375 69.941406 L 390.652344 69.964844 L 390.964844 70.582031 L 391.273438 70.898438 L 391.582031 70.929688 L 392.507812 72.871094 L 393.742188 75.75 L 394.050781 75.828125 L 394.359375 76.550781 L 394.976562 77.035156 L 395.285156 77.554688 L 395.902344 79.480469 L 396.519531 80.035156 L 396.828125 81.035156 L 397.445312 84.667969 L 397.753906 88.597656 L 398.0625 89.664062 L 398.371094 93 L 398.679688 93.277344 L 398.988281 94.105469 L 399.296875 98.410156 L 399.605469 98.957031 L 399.914062 100.574219 L 400.53125 106.117188 L 401.148438 106.832031 L 401.460938 111.144531 L 401.769531 111.890625 L 402.078125 113.972656 L 402.386719 119.449219 L 402.695312 119.605469 L 403.003906 121.21875 L 403.3125 124.207031 L 403.621094 180.214844 " transform="matrix(1, 0, 0, -1, 0, 216)"/>
<path fill="none" stroke-width="1.25" stroke-linecap="square" stroke-linejoin="miter" stroke="rgb(83.999634%, 83.999634%, 83.999634%)" stroke-opacity="1" stroke-miterlimit="10" d="M 79.800781 33.5 L 79.800781 187.199219 " transform="matrix(1, 0, 0, -1, 0, 216)"/>
<path fill="none" stroke-width="1.25" stroke-linecap="square" stroke-linejoin="miter" stroke="rgb(83.999634%, 83.999634%, 83.999634%)" stroke-opacity="1" stroke-miterlimit="10" d="M 419.039062 33.5 L 419.039062 187.199219 " transform="matrix(1, 0, 0, -1, 0, 216)"/>
<path fill="none" stroke-width="1.25" stroke-linecap="square" stroke-linejoin="miter" stroke="rgb(83.999634%, 83.999634%, 83.999634%)" stroke-opacity="1" stroke-miterlimit="10" d="M 79.800781 33.5 L 419.039062 33.5 " transform="matrix(1, 0, 0, -1, 0, 216)"/>
<path fill="none" stroke-width="1.25" stroke-linecap="square" stroke-linejoin="miter" stroke="rgb(83.999634%, 83.999634%, 83.999634%)" stroke-opacity="1" stroke-miterlimit="10" d="M 79.800781 187.199219 L 419.039062 187.199219 " transform="matrix(1, 0, 0, -1, 0, 216)"/>
<g fill="rgb(100%, 100%, 100%)" fill-opacity="1">
<use xlink:href="#glyph-2-0" x="165.005938" y="22.8"/>
</g>
<g fill="rgb(100%, 100%, 100%)" fill-opacity="1">
<use xlink:href="#glyph-2-1" x="171.046563" y="22.8"/>
</g>
<g fill="rgb(100%, 100%, 100%)" fill-opacity="1">
<use xlink:href="#glyph-2-2" x="175.728563" y="22.8"/>
<use xlink:href="#glyph-2-3" x="183.108563" y="22.8"/>
<use xlink:href="#glyph-2-4" x="190.728563" y="22.8"/>
<use xlink:href="#glyph-2-5" x="198.336563" y="22.8"/>
<use xlink:href="#glyph-2-6" x="205.716563" y="22.8"/>
<use xlink:href="#glyph-2-7" x="213.324563" y="22.8"/>
<use xlink:href="#glyph-2-5" x="219.924563" y="22.8"/>
<use xlink:href="#glyph-2-8" x="227.304563" y="22.8"/>
<use xlink:href="#glyph-2-9" x="231.120563" y="22.8"/>
<use xlink:href="#glyph-2-5" x="238.740563" y="22.8"/>
<use xlink:href="#glyph-2-8" x="246.120563" y="22.8"/>
<use xlink:href="#glyph-2-7" x="249.936563" y="22.8"/>
<use xlink:href="#glyph-2-10" x="256.536563" y="22.8"/>
<use xlink:href="#glyph-2-11" x="264.144563" y="22.8"/>
<use xlink:href="#glyph-2-3" x="271.500563" y="22.8"/>
<use xlink:href="#glyph-2-4" x="279.120563" y="22.8"/>
<use xlink:href="#glyph-2-5" x="286.728563" y="22.8"/>
<use xlink:href="#glyph-2-8" x="294.108563" y="22.8"/>
<use xlink:href="#glyph-2-12" x="297.924563" y="22.8"/>
<use xlink:href="#glyph-2-5" x="302.628563" y="22.8"/>
<use xlink:href="#glyph-2-1" x="310.008563" y="22.8"/>
</g>
<g fill="rgb(100%, 100%, 100%)" fill-opacity="1">
<use xlink:href="#glyph-2-13" x="314.737438" y="22.8"/>
<use xlink:href="#glyph-2-5" x="326.425438" y="22.8"/>
</g>
</svg>
