<?xml version="1.0" encoding="UTF-8"?>
<svg xmlns="http://www.w3.org/2000/svg" xmlns:xlink="http://www.w3.org/1999/xlink" width="504pt" height="216pt" viewBox="0 0 504 216">
<defs>
<g>
<g id="glyph-0-0">
<path d="M 1.359375 -0.90625 L 3.140625 -0.90625 L 3.140625 -7.03125 L 1.203125 -6.640625 L 1.203125 -7.625 L 3.125 -8.015625 L 4.21875 -8.015625 L 4.21875 -0.90625 L 5.984375 -0.90625 L 5.984375 0 L 1.359375 0 Z M 1.359375 -0.90625 "/>
</g>
<g id="glyph-0-1">
<path d="M 3.5 -7.3125 C 2.9375 -7.3125 2.515625 -7.035156 2.234375 -6.484375 C 1.953125 -5.929688 1.8125 -5.101562 1.8125 -4 C 1.8125 -2.90625 1.953125 -2.082031 2.234375 -1.53125 C 2.515625 -0.976562 2.9375 -0.703125 3.5 -0.703125 C 4.0625 -0.703125 4.484375 -0.976562 4.765625 -1.53125 C 5.046875 -2.082031 5.1875 -2.90625 5.1875 -4 C 5.1875 -5.101562 5.046875 -5.929688 4.765625 -6.484375 C 4.484375 -7.035156 4.0625 -7.3125 3.5 -7.3125 Z M 3.5 -8.171875 C 4.394531 -8.171875 5.078125 -7.8125 5.546875 -7.09375 C 6.023438 -6.382812 6.265625 -5.351562 6.265625 -4 C 6.265625 -2.65625 6.023438 -1.625 5.546875 -0.90625 C 5.078125 -0.195312 4.394531 0.15625 3.5 0.15625 C 2.601562 0.15625 1.914062 -0.195312 1.4375 -0.90625 C 0.957031 -1.625 0.71875 -2.65625 0.71875 -4 C 0.71875 -5.351562 0.957031 -6.382812 1.4375 -7.09375 C 1.914062 -7.8125 2.601562 -8.171875 3.5 -8.171875 Z M 3.5 -8.171875 "/>
</g>
<g id="glyph-0-2">
<path d="M 1.171875 -1.359375 L 2.3125 -1.359375 L 2.3125 0 L 1.171875 0 Z M 1.171875 -1.359375 "/>
</g>
<g id="glyph-0-3">
<path d="M 2.109375 -0.90625 L 5.890625 -0.90625 L 5.890625 0 L 0.8125 0 L 0.8125 -0.90625 C 1.21875 -1.332031 1.773438 -1.90625 2.484375 -2.625 C 3.203125 -3.34375 3.648438 -3.804688 3.828125 -4.015625 C 4.171875 -4.410156 4.410156 -4.742188 4.546875 -5.015625 C 4.691406 -5.285156 4.765625 -5.550781 4.765625 -5.8125 C 4.765625 -6.238281 4.613281 -6.582031 4.3125 -6.84375 C 4.019531 -7.113281 3.628906 -7.25 3.140625 -7.25 C 2.804688 -7.25 2.445312 -7.1875 2.0625 -7.0625 C 1.6875 -6.945312 1.285156 -6.769531 0.859375 -6.53125 L 0.859375 -7.625 C 1.296875 -7.800781 1.703125 -7.9375 2.078125 -8.03125 C 2.460938 -8.125 2.8125 -8.171875 3.125 -8.171875 C 3.957031 -8.171875 4.617188 -7.960938 5.109375 -7.546875 C 5.609375 -7.128906 5.859375 -6.570312 5.859375 -5.875 C 5.859375 -5.539062 5.796875 -5.226562 5.671875 -4.9375 C 5.546875 -4.644531 5.320312 -4.296875 5 -3.890625 C 4.90625 -3.785156 4.617188 -3.484375 4.140625 -2.984375 C 3.660156 -2.492188 2.984375 -1.800781 2.109375 -0.90625 Z M 2.109375 -0.90625 "/>
</g>
<g id="glyph-0-4">
<path d="M 4.15625 -7.078125 L 1.421875 -2.796875 L 4.15625 -2.796875 Z M 3.875 -8.015625 L 5.234375 -8.015625 L 5.234375 -2.796875 L 6.375 -2.796875 L 6.375 -1.890625 L 5.234375 -1.890625 L 5.234375 0 L 4.15625 0 L 4.15625 -1.890625 L 0.53125 -1.890625 L 0.53125 -2.9375 Z M 3.875 -8.015625 "/>
</g>
<g id="glyph-0-5">
<path d="M 3.625 -4.4375 C 3.144531 -4.4375 2.757812 -4.269531 2.46875 -3.9375 C 2.1875 -3.601562 2.046875 -3.148438 2.046875 -2.578125 C 2.046875 -1.992188 2.1875 -1.535156 2.46875 -1.203125 C 2.757812 -0.867188 3.144531 -0.703125 3.625 -0.703125 C 4.113281 -0.703125 4.5 -0.867188 4.78125 -1.203125 C 5.070312 -1.535156 5.21875 -1.992188 5.21875 -2.578125 C 5.21875 -3.148438 5.070312 -3.601562 4.78125 -3.9375 C 4.5 -4.269531 4.113281 -4.4375 3.625 -4.4375 Z M 5.78125 -7.84375 L 5.78125 -6.859375 C 5.507812 -6.984375 5.234375 -7.078125 4.953125 -7.140625 C 4.679688 -7.210938 4.410156 -7.25 4.140625 -7.25 C 3.421875 -7.25 2.867188 -7.003906 2.484375 -6.515625 C 2.109375 -6.035156 1.894531 -5.304688 1.84375 -4.328125 C 2.0625 -4.640625 2.328125 -4.878906 2.640625 -5.046875 C 2.960938 -5.210938 3.316406 -5.296875 3.703125 -5.296875 C 4.503906 -5.296875 5.140625 -5.050781 5.609375 -4.5625 C 6.078125 -4.070312 6.3125 -3.410156 6.3125 -2.578125 C 6.3125 -1.753906 6.066406 -1.09375 5.578125 -0.59375 C 5.085938 -0.09375 4.4375 0.15625 3.625 0.15625 C 2.695312 0.15625 1.988281 -0.195312 1.5 -0.90625 C 1.007812 -1.625 0.765625 -2.65625 0.765625 -4 C 0.765625 -5.269531 1.066406 -6.28125 1.671875 -7.03125 C 2.273438 -7.789062 3.082031 -8.171875 4.09375 -8.171875 C 4.363281 -8.171875 4.632812 -8.140625 4.90625 -8.078125 C 5.1875 -8.023438 5.476562 -7.945312 5.78125 -7.84375 Z M 5.78125 -7.84375 "/>
</g>
<g id="glyph-0-6">
<path d="M 4.46875 -4.328125 C 4.988281 -4.210938 5.394531 -3.976562 5.6875 -3.625 C 5.976562 -3.28125 6.125 -2.847656 6.125 -2.328125 C 6.125 -1.535156 5.847656 -0.921875 5.296875 -0.484375 C 4.753906 -0.0546875 3.984375 0.15625 2.984375 0.15625 C 2.640625 0.15625 2.289062 0.117188 1.9375 0.046875 C 1.582031 -0.0117188 1.21875 -0.109375 0.84375 -0.234375 L 0.84375 -1.296875 C 1.144531 -1.117188 1.472656 -0.984375 1.828125 -0.890625 C 2.179688 -0.796875 2.554688 -0.75 2.953125 -0.75 C 3.628906 -0.75 4.144531 -0.882812 4.5 -1.15625 C 4.851562 -1.425781 5.03125 -1.816406 5.03125 -2.328125 C 5.03125 -2.804688 4.863281 -3.175781 4.53125 -3.4375 C 4.207031 -3.707031 3.75 -3.84375 3.15625 -3.84375 L 2.21875 -3.84375 L 2.21875 -4.734375 L 3.203125 -4.734375 C 3.734375 -4.734375 4.140625 -4.835938 4.421875 -5.046875 C 4.703125 -5.265625 4.84375 -5.570312 4.84375 -5.96875 C 4.84375 -6.382812 4.695312 -6.703125 4.40625 -6.921875 C 4.113281 -7.140625 3.695312 -7.25 3.15625 -7.25 C 2.863281 -7.25 2.546875 -7.21875 2.203125 -7.15625 C 1.859375 -7.09375 1.484375 -6.992188 1.078125 -6.859375 L 1.078125 -7.828125 C 1.492188 -7.941406 1.878906 -8.023438 2.234375 -8.078125 C 2.597656 -8.140625 2.9375 -8.171875 3.25 -8.171875 C 4.070312 -8.171875 4.722656 -7.984375 5.203125 -7.609375 C 5.691406 -7.234375 5.9375 -6.722656 5.9375 -6.078125 C 5.9375 -5.640625 5.804688 -5.265625 5.546875 -4.953125 C 5.296875 -4.648438 4.9375 -4.441406 4.46875 -4.328125 Z M 4.46875 -4.328125 "/>
</g>
<g id="glyph-0-7">
<path d="M 1.1875 -8.015625 L 5.453125 -8.015625 L 5.453125 -7.109375 L 2.1875 -7.109375 L 2.1875 -5.140625 C 2.34375 -5.191406 2.5 -5.226562 2.65625 -5.25 C 2.8125 -5.28125 2.96875 -5.296875 3.125 -5.296875 C 4.019531 -5.296875 4.726562 -5.050781 5.25 -4.5625 C 5.769531 -4.070312 6.03125 -3.410156 6.03125 -2.578125 C 6.03125 -1.710938 5.757812 -1.039062 5.21875 -0.5625 C 4.6875 -0.0820312 3.929688 0.15625 2.953125 0.15625 C 2.617188 0.15625 2.273438 0.125 1.921875 0.0625 C 1.578125 0.0078125 1.21875 -0.0703125 0.84375 -0.1875 L 0.84375 -1.28125 C 1.164062 -1.101562 1.5 -0.96875 1.84375 -0.875 C 2.1875 -0.789062 2.550781 -0.75 2.9375 -0.75 C 3.5625 -0.75 4.050781 -0.910156 4.40625 -1.234375 C 4.769531 -1.566406 4.953125 -2.015625 4.953125 -2.578125 C 4.953125 -3.128906 4.769531 -3.566406 4.40625 -3.890625 C 4.050781 -4.222656 3.5625 -4.390625 2.9375 -4.390625 C 2.644531 -4.390625 2.351562 -4.351562 2.0625 -4.28125 C 1.78125 -4.21875 1.488281 -4.117188 1.1875 -3.984375 Z M 1.1875 -8.015625 "/>
</g>
<g id="glyph-1-0">
<path d="M 2.453125 -5.109375 C 2.054688 -5.109375 1.757812 -4.914062 1.5625 -4.53125 C 1.363281 -4.144531 1.265625 -3.566406 1.265625 -2.796875 C 1.265625 -2.023438 1.363281 -1.445312 1.5625 -1.0625 C 1.757812 -0.6875 2.054688 -0.5 2.453125 -0.5 C 2.847656 -0.5 3.140625 -0.6875 3.328125 -1.0625 C 3.523438 -1.445312 3.625 -2.023438 3.625 -2.796875 C 3.625 -3.566406 3.523438 -4.144531 3.328125 -4.53125 C 3.140625 -4.914062 2.847656 -5.109375 2.453125 -5.109375 Z M 2.453125 -5.71875 C 3.078125 -5.71875 3.554688 -5.46875 3.890625 -4.96875 C 4.222656 -4.46875 4.390625 -3.742188 4.390625 -2.796875 C 4.390625 -1.859375 4.222656 -1.140625 3.890625 -0.640625 C 3.554688 -0.140625 3.078125 0.109375 2.453125 0.109375 C 1.816406 0.109375 1.332031 -0.140625 1 -0.640625 C 0.664062 -1.140625 0.5 -1.859375 0.5 -2.796875 C 0.5 -3.742188 0.664062 -4.46875 1 -4.96875 C 1.332031 -5.46875 1.816406 -5.71875 2.453125 -5.71875 Z M 2.453125 -5.71875 "/>
</g>
<g id="glyph-1-1">
<path d="M 0.953125 -0.640625 L 2.203125 -0.640625 L 2.203125 -4.921875 L 0.84375 -4.65625 L 0.84375 -5.34375 L 2.1875 -5.609375 L 2.953125 -5.609375 L 2.953125 -0.640625 L 4.1875 -0.640625 L 4.1875 0 L 0.953125 0 Z M 0.953125 -0.640625 "/>
</g>
<g id="glyph-1-2">
<path d="M 1.484375 -0.640625 L 4.125 -0.640625 L 4.125 0 L 0.5625 0 L 0.5625 -0.640625 C 0.851562 -0.941406 1.242188 -1.34375 1.734375 -1.84375 C 2.234375 -2.34375 2.550781 -2.664062 2.6875 -2.8125 C 2.925781 -3.082031 3.09375 -3.3125 3.1875 -3.5 C 3.289062 -3.695312 3.34375 -3.882812 3.34375 -4.0625 C 3.34375 -4.363281 3.234375 -4.609375 3.015625 -4.796875 C 2.804688 -4.984375 2.535156 -5.078125 2.203125 -5.078125 C 1.960938 -5.078125 1.707031 -5.035156 1.4375 -4.953125 C 1.175781 -4.867188 0.898438 -4.742188 0.609375 -4.578125 L 0.609375 -5.34375 C 0.910156 -5.46875 1.191406 -5.5625 1.453125 -5.625 C 1.722656 -5.6875 1.96875 -5.71875 2.1875 -5.71875 C 2.769531 -5.71875 3.234375 -5.570312 3.578125 -5.28125 C 3.921875 -4.988281 4.09375 -4.597656 4.09375 -4.109375 C 4.09375 -3.878906 4.050781 -3.660156 3.96875 -3.453125 C 3.882812 -3.242188 3.726562 -3.003906 3.5 -2.734375 C 3.4375 -2.660156 3.234375 -2.445312 2.890625 -2.09375 C 2.554688 -1.75 2.085938 -1.265625 1.484375 -0.640625 Z M 1.484375 -0.640625 "/>
</g>
<g id="glyph-1-3">
<path d="M 3.125 -3.03125 C 3.488281 -2.945312 3.769531 -2.78125 3.96875 -2.53125 C 4.175781 -2.289062 4.28125 -1.988281 4.28125 -1.625 C 4.28125 -1.070312 4.085938 -0.644531 3.703125 -0.34375 C 3.328125 -0.0390625 2.789062 0.109375 2.09375 0.109375 C 1.851562 0.109375 1.609375 0.0820312 1.359375 0.03125 C 1.109375 -0.0078125 0.851562 -0.078125 0.59375 -0.171875 L 0.59375 -0.90625 C 0.800781 -0.78125 1.03125 -0.6875 1.28125 -0.625 C 1.53125 -0.5625 1.789062 -0.53125 2.0625 -0.53125 C 2.539062 -0.53125 2.90625 -0.625 3.15625 -0.8125 C 3.40625 -1 3.53125 -1.269531 3.53125 -1.625 C 3.53125 -1.957031 3.410156 -2.21875 3.171875 -2.40625 C 2.941406 -2.59375 2.625 -2.6875 2.21875 -2.6875 L 1.5625 -2.6875 L 1.5625 -3.3125 L 2.234375 -3.3125 C 2.609375 -3.3125 2.894531 -3.382812 3.09375 -3.53125 C 3.289062 -3.6875 3.390625 -3.90625 3.390625 -4.1875 C 3.390625 -4.46875 3.285156 -4.6875 3.078125 -4.84375 C 2.878906 -5 2.59375 -5.078125 2.21875 -5.078125 C 2.007812 -5.078125 1.785156 -5.050781 1.546875 -5 C 1.304688 -4.957031 1.039062 -4.890625 0.75 -4.796875 L 0.75 -5.46875 C 1.039062 -5.550781 1.3125 -5.613281 1.5625 -5.65625 C 1.8125 -5.695312 2.050781 -5.71875 2.28125 -5.71875 C 2.851562 -5.71875 3.304688 -5.585938 3.640625 -5.328125 C 3.984375 -5.066406 4.15625 -4.710938 4.15625 -4.265625 C 4.15625 -3.953125 4.066406 -3.6875 3.890625 -3.46875 C 3.710938 -3.257812 3.457031 -3.113281 3.125 -3.03125 Z M 3.125 -3.03125 "/>
</g>
<g id="glyph-1-4">
<path d="M 2.90625 -4.953125 L 1 -1.953125 L 2.90625 -1.953125 Z M 2.71875 -5.609375 L 3.671875 -5.609375 L 3.671875 -1.953125 L 4.46875 -1.953125 L 4.46875 -1.328125 L 3.671875 -1.328125 L 3.671875 0 L 2.90625 0 L 2.90625 -1.328125 L 0.375 -1.328125 L 0.375 -2.0625 Z M 2.71875 -5.609375 "/>
</g>
<g id="glyph-2-0">
<path d="M 1.171875 -8.75 L 2.9375 -8.75 L 5.171875 -2.796875 L 7.421875 -8.75 L 9.1875 -8.75 L 9.1875 0 L 8.03125 0 L 8.03125 -7.6875 L 5.765625 -1.6875 L 4.578125 -1.6875 L 2.328125 -7.6875 L 2.328125 0 L 1.171875 0 Z M 1.171875 -8.75 "/>
</g>
<g id="glyph-2-1">
<path d="M 3.671875 -5.8125 C 3.097656 -5.8125 2.640625 -5.582031 2.296875 -5.125 C 1.960938 -4.675781 1.796875 -4.0625 1.796875 -3.28125 C 1.796875 -2.488281 1.960938 -1.867188 2.296875 -1.421875 C 2.628906 -0.972656 3.085938 -0.75 3.671875 -0.75 C 4.242188 -0.75 4.695312 -0.972656 5.03125 -1.421875 C 5.375 -1.878906 5.546875 -2.5 5.546875 -3.28125 C 5.546875 -4.050781 5.375 -4.664062 5.03125 -5.125 C 4.695312 -5.582031 4.242188 -5.8125 3.671875 -5.8125 Z M 3.671875 -6.71875 C 4.609375 -6.71875 5.34375 -6.410156 5.875 -5.796875 C 6.414062 -5.191406 6.6875 -4.351562 6.6875 -3.28125 C 6.6875 -2.207031 6.414062 -1.363281 5.875 -0.75 C 5.34375 -0.132812 4.609375 0.171875 3.671875 0.171875 C 2.734375 0.171875 1.992188 -0.132812 1.453125 -0.75 C 0.921875 -1.363281 0.65625 -2.207031 0.65625 -3.28125 C 0.65625 -4.351562 0.921875 -5.191406 1.453125 -5.796875 C 1.992188 -6.410156 2.734375 -6.71875 3.671875 -6.71875 Z M 3.671875 -6.71875 "/>
</g>
<g id="glyph-2-2">
<path d="M 6.59375 -3.96875 L 6.59375 0 L 5.515625 0 L 5.515625 -3.921875 C 5.515625 -4.546875 5.390625 -5.007812 5.140625 -5.3125 C 4.898438 -5.625 4.539062 -5.78125 4.0625 -5.78125 C 3.476562 -5.78125 3.015625 -5.59375 2.671875 -5.21875 C 2.335938 -4.851562 2.171875 -4.347656 2.171875 -3.703125 L 2.171875 0 L 1.09375 0 L 1.09375 -6.5625 L 2.171875 -6.5625 L 2.171875 -5.546875 C 2.429688 -5.941406 2.734375 -6.234375 3.078125 -6.421875 C 3.429688 -6.617188 3.835938 -6.71875 4.296875 -6.71875 C 5.046875 -6.71875 5.613281 -6.484375 6 -6.015625 C 6.394531 -5.554688 6.59375 -4.875 6.59375 -3.96875 Z M 6.59375 -3.96875 "/>
</g>
<g id="glyph-2-3">
<path d="M 2.203125 -8.421875 L 2.203125 -6.5625 L 4.421875 -6.5625 L 4.421875 -5.71875 L 2.203125 -5.71875 L 2.203125 -2.15625 C 2.203125 -1.625 2.273438 -1.28125 2.421875 -1.125 C 2.566406 -0.976562 2.863281 -0.90625 3.3125 -0.90625 L 4.421875 -0.90625 L 4.421875 0 L 3.3125 0 C 2.476562 0 1.898438 -0.15625 1.578125 -0.46875 C 1.265625 -0.78125 1.109375 -1.34375 1.109375 -2.15625 L 1.109375 -5.71875 L 0.328125 -5.71875 L 0.328125 -6.5625 L 1.109375 -6.5625 L 1.109375 -8.421875 Z M 2.203125 -8.421875 "/>
</g>
<g id="glyph-2-4">
<path d="M 4.109375 -3.296875 C 3.242188 -3.296875 2.640625 -3.195312 2.296875 -3 C 1.960938 -2.800781 1.796875 -2.460938 1.796875 -1.984375 C 1.796875 -1.597656 1.921875 -1.289062 2.171875 -1.0625 C 2.429688 -0.84375 2.773438 -0.734375 3.203125 -0.734375 C 3.804688 -0.734375 4.285156 -0.941406 4.640625 -1.359375 C 5.003906 -1.785156 5.1875 -2.351562 5.1875 -3.0625 L 5.1875 -3.296875 Z M 6.265625 -3.75 L 6.265625 0 L 5.1875 0 L 5.1875 -1 C 4.9375 -0.601562 4.628906 -0.304688 4.265625 -0.109375 C 3.898438 0.0742188 3.453125 0.171875 2.921875 0.171875 C 2.242188 0.171875 1.707031 -0.015625 1.3125 -0.390625 C 0.914062 -0.773438 0.71875 -1.28125 0.71875 -1.90625 C 0.71875 -2.644531 0.960938 -3.203125 1.453125 -3.578125 C 1.953125 -3.953125 2.691406 -4.140625 3.671875 -4.140625 L 5.1875 -4.140625 L 5.1875 -4.25 C 5.1875 -4.75 5.019531 -5.132812 4.6875 -5.40625 C 4.363281 -5.675781 3.910156 -5.8125 3.328125 -5.8125 C 2.953125 -5.8125 2.582031 -5.765625 2.21875 -5.671875 C 1.863281 -5.578125 1.523438 -5.441406 1.203125 -5.265625 L 1.203125 -6.265625 C 1.597656 -6.421875 1.976562 -6.535156 2.34375 -6.609375 C 2.71875 -6.679688 3.082031 -6.71875 3.4375 -6.71875 C 4.382812 -6.71875 5.09375 -6.472656 5.5625 -5.984375 C 6.03125 -5.492188 6.265625 -4.75 6.265625 -3.75 Z M 6.265625 -3.75 "/>
</g>
<g id="glyph-3-0">
<path d="M -7.78125 -2.359375 L -0.96875 -2.359375 L -0.96875 -3.796875 C -0.96875 -5.003906 -1.238281 -5.882812 -1.78125 -6.4375 C -2.332031 -7 -3.203125 -7.28125 -4.390625 -7.28125 C -5.554688 -7.28125 -6.410156 -7 -6.953125 -6.4375 C -7.503906 -5.882812 -7.78125 -5.003906 -7.78125 -3.796875 Z M -8.75 -1.171875 L -8.75 -3.609375 C -8.75 -5.304688 -8.394531 -6.550781 -7.6875 -7.34375 C -6.988281 -8.132812 -5.890625 -8.53125 -4.390625 -8.53125 C -2.878906 -8.53125 -1.769531 -8.128906 -1.0625 -7.328125 C -0.351562 -6.535156 0 -5.296875 0 -3.609375 L 0 -1.171875 Z M -8.75 -1.171875 "/>
</g>
<g id="glyph-3-1">
<path d="M -3.546875 -6.75 L -3.03125 -6.75 L -3.03125 -1.78125 C -2.28125 -1.832031 -1.710938 -2.054688 -1.328125 -2.453125 C -0.941406 -2.859375 -0.75 -3.414062 -0.75 -4.125 C -0.75 -4.539062 -0.796875 -4.941406 -0.890625 -5.328125 C -0.992188 -5.722656 -1.148438 -6.113281 -1.359375 -6.5 L -0.328125 -6.5 C -0.171875 -6.101562 -0.0507812 -5.703125 0.03125 -5.296875 C 0.125 -4.890625 0.171875 -4.476562 0.171875 -4.0625 C 0.171875 -3.019531 -0.128906 -2.191406 -0.734375 -1.578125 C -1.347656 -0.960938 -2.175781 -0.65625 -3.21875 -0.65625 C -4.289062 -0.65625 -5.140625 -0.945312 -5.765625 -1.53125 C -6.398438 -2.113281 -6.71875 -2.894531 -6.71875 -3.875 C -6.71875 -4.757812 -6.429688 -5.457031 -5.859375 -5.96875 C -5.296875 -6.488281 -4.523438 -6.75 -3.546875 -6.75 Z M -3.875 -5.671875 C -4.457031 -5.660156 -4.925781 -5.492188 -5.28125 -5.171875 C -5.632812 -4.847656 -5.8125 -4.421875 -5.8125 -3.890625 C -5.8125 -3.285156 -5.640625 -2.800781 -5.296875 -2.4375 C -4.953125 -2.082031 -4.472656 -1.878906 -3.859375 -1.828125 Z M -3.875 -5.671875 "/>
</g>
<g id="glyph-3-2">
<path d="M -3.96875 -6.59375 L 0 -6.59375 L 0 -5.515625 L -3.921875 -5.515625 C -4.546875 -5.515625 -5.007812 -5.390625 -5.3125 -5.140625 C -5.625 -4.898438 -5.78125 -4.539062 -5.78125 -4.0625 C -5.78125 -3.476562 -5.59375 -3.015625 -5.21875 -2.671875 C -4.851562 -2.335938 -4.347656 -2.171875 -3.703125 -2.171875 L 0 -2.171875 L 0 -1.09375 L -6.5625 -1.09375 L -6.5625 -2.171875 L -5.546875 -2.171875 C -5.941406 -2.429688 -6.234375 -2.734375 -6.421875 -3.078125 C -6.617188 -3.429688 -6.71875 -3.835938 -6.71875 -4.296875 C -6.71875 -5.046875 -6.484375 -5.613281 -6.015625 -6 C -5.554688 -6.394531 -4.875 -6.59375 -3.96875 -6.59375 Z M -3.96875 -6.59375 "/>
</g>
<g id="glyph-3-3">
<path d="M -6.375 -5.3125 L -5.34375 -5.3125 C -5.5 -5.007812 -5.613281 -4.691406 -5.6875 -4.359375 C -5.769531 -4.035156 -5.8125 -3.695312 -5.8125 -3.34375 C -5.8125 -2.8125 -5.726562 -2.410156 -5.5625 -2.140625 C -5.40625 -1.867188 -5.160156 -1.734375 -4.828125 -1.734375 C -4.578125 -1.734375 -4.378906 -1.828125 -4.234375 -2.015625 C -4.097656 -2.210938 -3.96875 -2.601562 -3.84375 -3.1875 L -3.75 -3.546875 C -3.59375 -4.316406 -3.363281 -4.863281 -3.0625 -5.1875 C -2.757812 -5.507812 -2.34375 -5.671875 -1.8125 -5.671875 C -1.195312 -5.671875 -0.710938 -5.425781 -0.359375 -4.9375 C -0.00390625 -4.457031 0.171875 -3.796875 0.171875 -2.953125 C 0.171875 -2.597656 0.132812 -2.226562 0.0625 -1.84375 C 0 -1.46875 -0.0976562 -1.070312 -0.234375 -0.65625 L -1.359375 -0.65625 C -1.148438 -1.050781 -0.992188 -1.441406 -0.890625 -1.828125 C -0.785156 -2.210938 -0.734375 -2.597656 -0.734375 -2.984375 C -0.734375 -3.484375 -0.816406 -3.867188 -0.984375 -4.140625 C -1.160156 -4.421875 -1.410156 -4.5625 -1.734375 -4.5625 C -2.023438 -4.5625 -2.25 -4.460938 -2.40625 -4.265625 C -2.5625 -4.066406 -2.710938 -3.632812 -2.859375 -2.96875 L -2.9375 -2.59375 C -3.082031 -1.925781 -3.300781 -1.441406 -3.59375 -1.140625 C -3.882812 -0.847656 -4.28125 -0.703125 -4.78125 -0.703125 C -5.40625 -0.703125 -5.882812 -0.921875 -6.21875 -1.359375 C -6.550781 -1.796875 -6.71875 -2.414062 -6.71875 -3.21875 C -6.71875 -3.613281 -6.6875 -3.988281 -6.625 -4.34375 C -6.570312 -4.695312 -6.488281 -5.019531 -6.375 -5.3125 Z M -6.375 -5.3125 "/>
</g>
<g id="glyph-3-4">
<path d="M -6.5625 -1.125 L -6.5625 -2.203125 L 0 -2.203125 L 0 -1.125 Z M -9.125 -1.125 L -9.125 -2.203125 L -7.75 -2.203125 L -7.75 -1.125 Z M -9.125 -1.125 "/>
</g>
<g id="glyph-3-5">
<path d="M -8.421875 -2.203125 L -6.5625 -2.203125 L -6.5625 -4.421875 L -5.71875 -4.421875 L -5.71875 -2.203125 L -2.15625 -2.203125 C -1.625 -2.203125 -1.28125 -2.273438 -1.125 -2.421875 C -0.976562 -2.566406 -0.90625 -2.863281 -0.90625 -3.3125 L -0.90625 -4.421875 L 0 -4.421875 L 0 -3.3125 C 0 -2.476562 -0.15625 -1.898438 -0.46875 -1.578125 C -0.78125 -1.265625 -1.34375 -1.109375 -2.15625 -1.109375 L -5.71875 -1.109375 L -5.71875 -0.328125 L -6.5625 -0.328125 L -6.5625 -1.109375 L -8.421875 -1.109375 Z M -8.421875 -2.203125 "/>
</g>
<g id="glyph-3-6">
<path d="M 0.609375 -3.859375 C 1.390625 -3.554688 1.898438 -3.257812 2.140625 -2.96875 C 2.378906 -2.675781 2.5 -2.289062 2.5 -1.8125 L 2.5 -0.953125 L 1.59375 -0.953125 L 1.59375 -1.578125 C 1.59375 -1.878906 1.519531 -2.109375 1.375 -2.265625 C 1.238281 -2.429688 0.910156 -2.613281 0.390625 -2.8125 L -0.109375 -3.015625 L -6.5625 -0.359375 L -6.5625 -1.5 L -1.4375 -3.546875 L -6.5625 -5.609375 L -6.5625 -6.75 Z M 0.609375 -3.859375 "/>
</g>
</g>
<clipPath id="clip-0">
<path clip-rule="nonzero" d="M 72.917969 12.960938 L 74 12.960938 L 74 162.421875 L 72.917969 162.421875 Z M 72.917969 12.960938 "/>
</clipPath>
<clipPath id="clip-1">
<path clip-rule="nonzero" d="M 169 12.960938 L 170 12.960938 L 170 162.421875 L 169 162.421875 Z M 169 12.960938 "/>
</clipPath>
<clipPath id="clip-2">
<path clip-rule="nonzero" d="M 265 12.960938 L 267 12.960938 L 267 162.421875 L 265 162.421875 Z M 265 12.960938 "/>
</clipPath>
<clipPath id="clip-3">
<path clip-rule="nonzero" d="M 362 12.960938 L 363 12.960938 L 363 162.421875 L 362 162.421875 Z M 362 12.960938 "/>
</clipPath>
<clipPath id="clip-4">
<path clip-rule="nonzero" d="M 458 12.960938 L 460 12.960938 L 460 162.421875 L 458 162.421875 Z M 458 12.960938 "/>
</clipPath>
<clipPath id="clip-5">
<path clip-rule="nonzero" d="M 72.917969 155 L 491.039062 155 L 491.039062 156 L 72.917969 156 Z M 72.917969 155 "/>
</clipPath>
<clipPath id="clip-6">
<path clip-rule="nonzero" d="M 72.917969 116 L 491.039062 116 L 491.039062 118 L 72.917969 118 Z M 72.917969 116 "/>
</clipPath>
<clipPath id="clip-7">
<path clip-rule="nonzero" d="M 72.917969 77 L 491.039062 77 L 491.039062 79 L 72.917969 79 Z M 72.917969 77 "/>
</clipPath>
<clipPath id="clip-8">
<path clip-rule="nonzero" d="M 72.917969 39 L 491.039062 39 L 491.039062 40 L 72.917969 40 Z M 72.917969 39 "/>
</clipPath>
<clipPath id="clip-9">
<path clip-rule="nonzero" d="M 72.917969 82 L 390 82 L 390 157 L 72.917969 157 Z M 72.917969 82 "/>
</clipPath>
<clipPath id="clip-10">
<path clip-rule="nonzero" d="M 72.917969 22 L 369 22 L 369 157 L 72.917969 157 Z M 72.917969 22 "/>
</clipPath>
<clipPath id="clip-11">
<path clip-rule="nonzero" d="M 72.917969 42 L 373 42 L 373 157 L 72.917969 157 Z M 72.917969 42 "/>
</clipPath>
<clipPath id="clip-12">
<path clip-rule="nonzero" d="M 72.917969 19 L 372 19 L 372 157 L 72.917969 157 Z M 72.917969 19 "/>
</clipPath>
<clipPath id="clip-13">
<path clip-rule="nonzero" d="M 72.917969 114 L 405 114 L 405 157 L 72.917969 157 Z M 72.917969 114 "/>
</clipPath>
<clipPath id="clip-14">
<path clip-rule="nonzero" d="M 72.917969 131 L 490 131 L 490 157 L 72.917969 157 Z M 72.917969 131 "/>
</clipPath>
</defs>
<g clip-path="url(#clip-0)">
<path fill="none" stroke-width="4" stroke-linecap="butt" stroke-linejoin="round" stroke="rgb(69.921875%, 69.921875%, 69.921875%)" stroke-opacity="1" stroke-dasharray="40 20" stroke-miterlimit="10" d="M 729.179688 535.78125 L 729.179688 2030.390625 " transform="matrix(0.1, 0, 0, -0.1, 0, 216)"/>
</g>
<g fill="rgb(83.984375%, 83.984375%, 83.984375%)" fill-opacity="1">
<use xlink:href="#glyph-0-0" x="62.9199" y="184.0738"/>
</g>
<g fill="rgb(83.984375%, 83.984375%, 83.984375%)" fill-opacity="1">
<use xlink:href="#glyph-0-1" x="69.918335" y="184.0738"/>
</g>
<g fill="rgb(83.984375%, 83.984375%, 83.984375%)" fill-opacity="1">
<use xlink:href="#glyph-1-0" x="77.0222" y="179.86286"/>
</g>
<g clip-path="url(#clip-1)">
<path fill="none" stroke-width="4" stroke-linecap="butt" stroke-linejoin="round" stroke="rgb(69.921875%, 69.921875%, 69.921875%)" stroke-opacity="1" stroke-dasharray="40 20" stroke-miterlimit="10" d="M 1694.53125 535.78125 L 1694.53125 2030.390625 " transform="matrix(0.1, 0, 0, -0.1, 0, 216)"/>
</g>
<g fill="rgb(83.984375%, 83.984375%, 83.984375%)" fill-opacity="1">
<use xlink:href="#glyph-0-0" x="159.454" y="183.9645"/>
</g>
<g fill="rgb(83.984375%, 83.984375%, 83.984375%)" fill-opacity="1">
<use xlink:href="#glyph-0-1" x="166.452441" y="183.9645"/>
</g>
<g fill="rgb(83.984375%, 83.984375%, 83.984375%)" fill-opacity="1">
<use xlink:href="#glyph-1-1" x="173.5563" y="179.75356"/>
</g>
<g clip-path="url(#clip-2)">
<path fill="none" stroke-width="4" stroke-linecap="butt" stroke-linejoin="round" stroke="rgb(69.921875%, 69.921875%, 69.921875%)" stroke-opacity="1" stroke-dasharray="40 20" stroke-miterlimit="10" d="M 2659.882812 535.78125 L 2659.882812 2030.390625 " transform="matrix(0.1, 0, 0, -0.1, 0, 216)"/>
</g>
<g fill="rgb(83.984375%, 83.984375%, 83.984375%)" fill-opacity="1">
<use xlink:href="#glyph-0-0" x="255.988" y="184.0738"/>
</g>
<g fill="rgb(83.984375%, 83.984375%, 83.984375%)" fill-opacity="1">
<use xlink:href="#glyph-0-1" x="262.986441" y="184.0738"/>
</g>
<g fill="rgb(83.984375%, 83.984375%, 83.984375%)" fill-opacity="1">
<use xlink:href="#glyph-1-2" x="270.0903" y="179.86286"/>
</g>
<g clip-path="url(#clip-3)">
<path fill="none" stroke-width="4" stroke-linecap="butt" stroke-linejoin="round" stroke="rgb(69.921875%, 69.921875%, 69.921875%)" stroke-opacity="1" stroke-dasharray="40 20" stroke-miterlimit="10" d="M 3625.234375 535.78125 L 3625.234375 2030.390625 " transform="matrix(0.1, 0, 0, -0.1, 0, 216)"/>
</g>
<g fill="rgb(83.984375%, 83.984375%, 83.984375%)" fill-opacity="1">
<use xlink:href="#glyph-0-0" x="352.522" y="184.0738"/>
</g>
<g fill="rgb(83.984375%, 83.984375%, 83.984375%)" fill-opacity="1">
<use xlink:href="#glyph-0-1" x="359.520832" y="184.0738"/>
</g>
<g fill="rgb(83.984375%, 83.984375%, 83.984375%)" fill-opacity="1">
<use xlink:href="#glyph-1-3" x="366.6243" y="179.86286"/>
</g>
<g clip-path="url(#clip-4)">
<path fill="none" stroke-width="4" stroke-linecap="butt" stroke-linejoin="round" stroke="rgb(69.921875%, 69.921875%, 69.921875%)" stroke-opacity="1" stroke-dasharray="40 20" stroke-miterlimit="10" d="M 4590.585938 535.78125 L 4590.585938 2030.390625 " transform="matrix(0.1, 0, 0, -0.1, 0, 216)"/>
</g>
<g fill="rgb(83.984375%, 83.984375%, 83.984375%)" fill-opacity="1">
<use xlink:href="#glyph-0-0" x="449.057" y="183.9645"/>
</g>
<g fill="rgb(83.984375%, 83.984375%, 83.984375%)" fill-opacity="1">
<use xlink:href="#glyph-0-1" x="456.055441" y="183.9645"/>
</g>
<g fill="rgb(83.984375%, 83.984375%, 83.984375%)" fill-opacity="1">
<use xlink:href="#glyph-1-4" x="463.1593" y="179.75356"/>
</g>
<g fill="rgb(83.984375%, 83.984375%, 83.984375%)" fill-opacity="1">
<use xlink:href="#glyph-2-0" x="257.1363" y="199.54886"/>
<use xlink:href="#glyph-2-1" x="267.4923" y="199.54886"/>
<use xlink:href="#glyph-2-2" x="274.8363" y="199.54886"/>
<use xlink:href="#glyph-2-3" x="282.4443" y="199.54886"/>
<use xlink:href="#glyph-2-4" x="287.1483" y="199.54886"/>
<use xlink:href="#glyph-2-2" x="294.5043" y="199.54886"/>
<use xlink:href="#glyph-2-3" x="302.1123" y="199.54886"/>
</g>
<g clip-path="url(#clip-5)">
<path fill="none" stroke-width="4" stroke-linecap="butt" stroke-linejoin="round" stroke="rgb(69.921875%, 69.921875%, 69.921875%)" stroke-opacity="1" stroke-dasharray="40 20" stroke-miterlimit="10" d="M 729.179688 603.710938 L 4910.390625 603.710938 " transform="matrix(0.1, 0, 0, -0.1, 0, 216)"/>
</g>
<g fill="rgb(83.984375%, 83.984375%, 83.984375%)" fill-opacity="1">
<use xlink:href="#glyph-0-1" x="28.4199" y="159.8098"/>
<use xlink:href="#glyph-0-2" x="35.4159" y="159.8098"/>
<use xlink:href="#glyph-0-1" x="38.9139" y="159.8098"/>
<use xlink:href="#glyph-0-1" x="45.9099" y="159.8098"/>
<use xlink:href="#glyph-0-1" x="52.9059" y="159.8098"/>
</g>
<g clip-path="url(#clip-6)">
<path fill="none" stroke-width="4" stroke-linecap="butt" stroke-linejoin="round" stroke="rgb(69.921875%, 69.921875%, 69.921875%)" stroke-opacity="1" stroke-dasharray="40 20" stroke-miterlimit="10" d="M 729.179688 991.484375 L 4910.390625 991.484375 " transform="matrix(0.1, 0, 0, -0.1, 0, 216)"/>
</g>
<g fill="rgb(83.984375%, 83.984375%, 83.984375%)" fill-opacity="1">
<use xlink:href="#glyph-0-1" x="28.4199" y="121.0316"/>
<use xlink:href="#glyph-0-2" x="35.4159" y="121.0316"/>
<use xlink:href="#glyph-0-1" x="38.9139" y="121.0316"/>
<use xlink:href="#glyph-0-1" x="45.9099" y="121.0316"/>
<use xlink:href="#glyph-0-3" x="52.9059" y="121.0316"/>
</g>
<g clip-path="url(#clip-7)">
<path fill="none" stroke-width="4" stroke-linecap="butt" stroke-linejoin="round" stroke="rgb(69.921875%, 69.921875%, 69.921875%)" stroke-opacity="1" stroke-dasharray="40 20" stroke-miterlimit="10" d="M 729.179688 1379.257812 L 4910.390625 1379.257812 " transform="matrix(0.1, 0, 0, -0.1, 0, 216)"/>
</g>
<g fill="rgb(83.984375%, 83.984375%, 83.984375%)" fill-opacity="1">
<use xlink:href="#glyph-0-1" x="28.4199" y="82.253"/>
<use xlink:href="#glyph-0-2" x="35.4159" y="82.253"/>
<use xlink:href="#glyph-0-1" x="38.9139" y="82.253"/>
<use xlink:href="#glyph-0-1" x="45.9099" y="82.253"/>
<use xlink:href="#glyph-0-4" x="52.9059" y="82.253"/>
</g>
<g clip-path="url(#clip-8)">
<path fill="none" stroke-width="4" stroke-linecap="butt" stroke-linejoin="round" stroke="rgb(69.921875%, 69.921875%, 69.921875%)" stroke-opacity="1" stroke-dasharray="40 20" stroke-miterlimit="10" d="M 729.179688 1767.03125 L 4910.390625 1767.03125 " transform="matrix(0.1, 0, 0, -0.1, 0, 216)"/>
</g>
<g fill="rgb(83.984375%, 83.984375%, 83.984375%)" fill-opacity="1">
<use xlink:href="#glyph-0-1" x="28.4199" y="43.475"/>
<use xlink:href="#glyph-0-2" x="35.4159" y="43.475"/>
<use xlink:href="#glyph-0-1" x="38.9139" y="43.475"/>
<use xlink:href="#glyph-0-1" x="45.9099" y="43.475"/>
<use xlink:href="#glyph-0-5" x="52.9059" y="43.475"/>
</g>
<g fill="rgb(83.984375%, 83.984375%, 83.984375%)" fill-opacity="1">
<use xlink:href="#glyph-3-0" x="21.9199" y="110.505"/>
<use xlink:href="#glyph-3-1" x="21.9199" y="101.265"/>
<use xlink:href="#glyph-3-2" x="21.9199" y="93.885"/>
<use xlink:href="#glyph-3-3" x="21.9199" y="86.277"/>
<use xlink:href="#glyph-3-4" x="21.9199" y="80.025"/>
<use xlink:href="#glyph-3-5" x="21.9199" y="76.689"/>
<use xlink:href="#glyph-3-6" x="21.9199" y="71.985"/>
</g>
<g clip-path="url(#clip-9)">
<path fill="none" stroke-width="15" stroke-linecap="round" stroke-linejoin="round" stroke="rgb(29.80957%, 44.700623%, 68.943787%)" stroke-opacity="1" stroke-miterlimit="10" d="M -10 754.101562 L 320.234375 754.101562 L 1165.898438 771.289062 L 1427.617188 789.53125 L 1587.539062 808.828125 L 1703.007812 829.0625 L 1793.476562 850.234375 L 1867.8125 872.1875 L 1930.9375 894.84375 L 1985.78125 918.046875 L 2034.296875 941.71875 L 2077.773438 965.664062 L 2117.148438 989.765625 L 2153.125 1013.867188 L 2186.289062 1037.8125 L 2245.625 1084.609375 L 2297.617188 1128.984375 L 2404.84375 1223.125 L 2441.09375 1252.34375 L 2474.453125 1276.25 L 2505.3125 1294.921875 L 2534.101562 1308.554688 L 2561.015625 1317.617188 L 2586.328125 1322.617188 L 2610.195312 1324.101562 L 2632.773438 1322.695312 L 2654.179688 1318.945312 L 2674.570312 1313.320312 L 2703.398438 1302.226562 L 2730.351562 1288.828125 L 2755.703125 1273.632812 L 2779.570312 1256.992188 L 2802.1875 1239.023438 L 2830.546875 1213.28125 L 2857.109375 1186.054688 L 2894.023438 1144.53125 L 2993.28125 1027.929688 L 3020.273438 992.890625 L 3045.664062 956.484375 L 3117.1875 850.546875 L 3134.140625 831.445312 L 3150.429688 816.523438 L 3172.226562 800.195312 L 3198.671875 780.234375 L 3218.164062 762.148438 L 3257.109375 723.867188 L 3271.71875 713.164062 L 3288.125 704.0625 L 3333.867188 681.328125 L 3371.367188 657.460938 L 3384.375 653.242188 L 3402.265625 650.15625 L 3434.335938 645.078125 L 3474.53125 635.078125 L 3517.96875 629.804688 L 3529.765625 624.726562 L 3557.304688 611.5625 L 3570.429688 608.164062 L 3584.257812 607.03125 L 3624.335938 607.03125 L 3642.5 606.796875 L 3684.765625 604.21875 L 3728.828125 603.945312 L 3763.554688 603.710938 L 3883.203125 603.710938 " transform="matrix(0.1, 0, 0, -0.1, 0, 216)"/>
</g>
<g clip-path="url(#clip-10)">
<path fill="none" stroke-width="15" stroke-linecap="round" stroke-linejoin="round" stroke="rgb(86.71875%, 51.756287%, 32.151794%)" stroke-opacity="1" stroke-miterlimit="10" d="M -10 667.304688 L 323.046875 667.304688 L 997.773438 682.539062 L 1244.21875 700.507812 L 1398.398438 721.484375 L 1510.859375 745.703125 L 1599.414062 773.28125 L 1672.539062 804.492188 L 1734.765625 839.296875 L 1788.945312 877.773438 L 1836.875 919.84375 L 1879.921875 965.390625 L 1918.945312 1014.101562 L 1954.648438 1065.664062 L 1987.539062 1119.6875 L 2018.046875 1175.664062 L 2046.484375 1233.085938 L 2073.125 1291.25 L 2121.796875 1407.421875 L 2185.585938 1571.679688 L 2223.28125 1667.96875 L 2257.890625 1749.882812 L 2274.179688 1784.882812 L 2289.84375 1815.78125 L 2304.960938 1842.617188 L 2319.53125 1865.46875 L 2333.632812 1884.53125 L 2347.265625 1899.921875 L 2360.46875 1911.953125 L 2373.28125 1920.820312 L 2385.703125 1926.757812 L 2397.773438 1930.039062 L 2409.492188 1930.898438 L 2420.898438 1929.492188 L 2431.992188 1926.015625 L 2442.8125 1920.625 L 2453.398438 1913.476562 L 2463.671875 1904.726562 L 2483.515625 1882.929688 L 2502.460938 1856.367188 L 2520.585938 1826.328125 L 2546.40625 1778.125 L 2601.09375 1672.8125 L 2629.414062 1623.710938 L 2704.414062 1498.007812 L 2732.109375 1445.507812 L 2772.890625 1361.953125 L 2831.757812 1241.054688 L 2875.820312 1156.523438 L 2890.78125 1119.882812 L 2935.9375 1001.328125 L 2961.523438 947.851562 L 2982.65625 900.585938 L 3011.132812 835.46875 L 3027.34375 804.570312 L 3045.507812 775.078125 L 3060.46875 754.335938 L 3074.882812 737.8125 L 3093.398438 720.3125 L 3106.757812 709.804688 L 3115.429688 705.3125 L 3123.945312 703.359375 L 3148.476562 700.429688 L 3162.109375 694.179688 L 3217.8125 665.3125 L 3235.898438 654.335938 L 3245.46875 651.679688 L 3260.9375 647.617188 L 3285.976562 638.4375 L 3304.140625 633.4375 L 3322.890625 627.578125 L 3337.03125 626.367188 L 3366.367188 626.328125 L 3378.007812 627.773438 L 3385.976562 626.09375 L 3402.539062 621.210938 L 3412.148438 621.757812 L 3422.617188 621.835938 L 3431.796875 619.453125 L 3445.703125 615.820312 L 3460.117188 614.921875 L 3474.023438 613.59375 L 3491.875 609.21875 L 3507.34375 605.585938 L 3523.867188 603.789062 L 3575.664062 603.710938 L 3679.21875 603.710938 " transform="matrix(0.1, 0, 0, -0.1, 0, 216)"/>
</g>
<g clip-path="url(#clip-11)">
<path fill="none" stroke-width="15" stroke-linecap="round" stroke-linejoin="round" stroke="rgb(33.325195%, 65.818787%, 40.795898%)" stroke-opacity="1" stroke-miterlimit="10" d="M -10 720.9375 L 360.46875 720.9375 L 1035.234375 739.21875 L 1281.640625 759.492188 L 1435.820312 781.71875 L 1548.28125 806.015625 L 1636.875 832.304688 L 1709.960938 860.625 L 1772.1875 890.859375 L 1826.367188 922.96875 L 1874.335938 956.757812 L 1917.382812 992.148438 L 1956.40625 1028.867188 L 1992.109375 1066.757812 L 2025 1105.585938 L 2055.507812 1145.078125 L 2083.945312 1184.960938 L 2110.585938 1224.960938 L 2159.21875 1304.179688 L 2202.8125 1380.546875 L 2295.351562 1546.601562 L 2327.304688 1599.453125 L 2356.992188 1643.359375 L 2384.726562 1678.125 L 2397.929688 1692.109375 L 2410.742188 1703.90625 L 2423.164062 1713.515625 L 2435.195312 1721.09375 L 2446.953125 1726.640625 L 2458.359375 1730.3125 L 2469.453125 1732.226562 L 2480.273438 1732.460938 L 2490.820312 1731.132812 L 2501.09375 1728.359375 L 2511.171875 1724.257812 L 2530.546875 1712.617188 L 2549.0625 1697.148438 L 2566.835938 1678.671875 L 2583.867188 1658.085938 L 2608.164062 1624.609375 L 2638.515625 1577.539062 L 2673.632812 1518.007812 L 2724.335938 1426.210938 L 2764.140625 1355.46875 L 2800.507812 1295.78125 L 2838.554688 1232.695312 L 2860.664062 1191.484375 L 2885.78125 1139.609375 L 2983.164062 931.015625 L 3005.117188 890.78125 L 3025.976562 856.953125 L 3045.820312 828.945312 L 3070.078125 798.710938 L 3092.96875 773.4375 L 3109.960938 757.8125 L 3161.367188 714.179688 L 3177.890625 700.195312 L 3189.84375 692.890625 L 3205.273438 686.445312 L 3238.085938 675.703125 L 3258.59375 669.296875 L 3271.757812 662.578125 L 3295.3125 650.273438 L 3324.84375 638.359375 L 3334.6875 636.875 L 3364.257812 634.726562 L 3393.046875 628.75 L 3402.617188 629.921875 L 3420.039062 633.046875 L 3427.890625 631.640625 L 3448.554688 626.328125 L 3464.140625 623.4375 L 3479.21875 620.664062 L 3497.539062 617.851562 L 3527.578125 610.039062 L 3549.804688 606.484375 L 3562.96875 604.0625 L 3582.65625 603.710938 L 3716.679688 603.710938 " transform="matrix(0.1, 0, 0, -0.1, 0, 216)"/>
</g>
<g clip-path="url(#clip-12)">
<path fill="none" stroke-width="15" stroke-linecap="round" stroke-linejoin="round" stroke="rgb(76.951599%, 30.589294%, 32.151794%)" stroke-opacity="1" stroke-miterlimit="10" d="M -10 679.414062 L 618.59375 679.453125 L 1093.75 696.953125 L 1310.78125 717.421875 L 1453.046875 741.132812 L 1559.0625 768.28125 L 1643.632812 799.023438 L 1713.984375 833.4375 L 1774.179688 871.601562 L 1826.835938 913.398438 L 1873.59375 958.671875 L 1915.664062 1007.1875 L 1953.867188 1058.59375 L 1988.90625 1112.460938 L 2021.25 1168.320312 L 2051.25 1225.585938 L 2079.257812 1283.554688 L 2105.507812 1341.71875 L 2153.554688 1455.820312 L 2253.945312 1702.890625 L 2288.242188 1778.828125 L 2319.921875 1840.117188 L 2334.921875 1865.429688 L 2349.375 1887.382812 L 2363.359375 1906.171875 L 2376.914062 1921.914062 L 2390.039062 1934.882812 L 2402.734375 1945.15625 L 2415.078125 1952.96875 L 2427.070312 1958.398438 L 2438.710938 1961.523438 L 2450.078125 1962.460938 L 2461.09375 1961.25 L 2471.875 1957.890625 L 2482.34375 1952.460938 L 2492.578125 1944.960938 L 2502.578125 1935.46875 L 2512.304688 1923.984375 L 2521.875 1910.664062 L 2540.3125 1878.867188 L 2557.96875 1841.40625 L 2574.921875 1799.960938 L 2606.875 1713.359375 L 2636.601562 1633.59375 L 2657.578125 1583.046875 L 2677.539062 1540.078125 L 2800.625 1289.101562 L 2828.75 1227.734375 L 2850.820312 1173.242188 L 2879.882812 1093.476562 L 2903.320312 1031.015625 L 2921.875 987.929688 L 2939.648438 952.8125 L 2956.679688 924.492188 L 3004.023438 852.148438 L 3046.5625 775.46875 L 3059.84375 757.539062 L 3075.234375 740.390625 L 3090.078125 727.304688 L 3099.6875 721.210938 L 3109.0625 717.539062 L 3120.546875 715.820312 L 3138.242188 714.257812 L 3146.835938 711.015625 L 3157.304688 704.296875 L 3173.554688 693.515625 L 3183.398438 690.273438 L 3198.671875 686.210938 L 3206.09375 681.5625 L 3217.03125 671.40625 L 3227.65625 662.070312 L 3236.328125 657.421875 L 3248.164062 654.296875 L 3258.046875 651.09375 L 3267.695312 645.429688 L 3283.320312 635.703125 L 3292.421875 633.203125 L 3318.59375 628.984375 L 3331.09375 625.976562 L 3341.875 626.445312 L 3351.132812 625.9375 L 3360.15625 622.539062 L 3372.734375 617.929688 L 3383.710938 616.953125 L 3401.445312 617.578125 L 3409.453125 620.898438 L 3420.664062 626.015625 L 3427.226562 626.445312 L 3439.023438 624.023438 L 3452.539062 622.265625 L 3462.65625 620.273438 L 3497.1875 610.15625 L 3529.921875 604.414062 L 3549.882812 603.789062 L 3634.140625 603.710938 L 3709.335938 603.710938 " transform="matrix(0.1, 0, 0, -0.1, 0, 216)"/>
</g>
<g clip-path="url(#clip-13)">
<path fill="none" stroke-width="15" stroke-linecap="round" stroke-linejoin="round" stroke="rgb(50.584412%, 44.700623%, 70.117188%)" stroke-opacity="1" stroke-miterlimit="10" d="M -10 881.601562 L 1059.882812 881.640625 L 1461.601562 888.242188 L 1662.96875 894.765625 L 1798.398438 901.25 L 1900.585938 907.617188 L 2051.328125 920.039062 L 2161.992188 931.953125 L 2249.414062 943.320312 L 2353.710938 959.0625 L 2506.71875 985.234375 L 2601.875 1000.664062 L 2665 1008.4375 L 2706.796875 1011.523438 L 2744.804688 1012.265625 L 2779.648438 1010.742188 L 2811.796875 1007.070312 L 2841.640625 1001.367188 L 2869.53125 993.828125 L 2895.703125 984.648438 L 2920.3125 974.0625 L 2951.015625 958.125 L 2979.648438 940.664062 L 3012.851562 917.460938 L 3049.53125 888.867188 L 3104.335938 842.773438 L 3170.703125 787.460938 L 3208.398438 759.023438 L 3243.007812 735.820312 L 3274.960938 717.070312 L 3307.851562 700.507812 L 3338.320312 687.578125 L 3369.453125 676.796875 L 3398.4375 669.023438 L 3430.3125 662.929688 L 3475.039062 657.109375 L 3525 649.921875 L 3584.570312 640.859375 L 3620.546875 638.359375 L 3655.078125 635.507812 L 3679.21875 631.210938 L 3749.84375 616.601562 L 3807.382812 610.742188 L 3834.335938 610.15625 L 3871.367188 609.6875 L 3900.039062 605.976562 L 3923.984375 604.0625 L 3965.507812 603.710938 L 4036.796875 603.710938 " transform="matrix(0.1, 0, 0, -0.1, 0, 216)"/>
</g>
<g clip-path="url(#clip-14)">
<path fill="none" stroke-width="15" stroke-linecap="round" stroke-linejoin="round" stroke="rgb(57.617188%, 47.068787%, 37.646484%)" stroke-opacity="1" stroke-miterlimit="10" d="M -10 603.710938 L 3102.890625 604.453125 L 3203.359375 606.796875 L 3259.023438 610.898438 L 3284.335938 614.296875 L 3308.164062 618.828125 L 3330.742188 624.84375 L 3352.148438 632.578125 L 3372.539062 642.1875 L 3391.953125 653.828125 L 3410.507812 667.5 L 3428.28125 683.085938 L 3445.351562 700.3125 L 3477.539062 737.8125 L 3521.5625 791.796875 L 3535.273438 806.328125 L 3548.554688 818.125 L 3561.445312 826.835938 L 3573.90625 832.265625 L 3586.054688 834.453125 L 3597.8125 833.632812 L 3609.296875 830.15625 L 3620.429688 824.453125 L 3631.289062 817.109375 L 3652.226562 799.335938 L 3709.375 746.835938 L 3743.554688 720.390625 L 3790.117188 687.65625 L 3818.515625 670.507812 L 3838.632812 660.898438 L 3857.8125 653.828125 L 3882.070312 647.421875 L 3942.421875 634.414062 L 3995.117188 617.34375 L 4017.070312 613.710938 L 4045.976562 611.914062 L 4119.023438 607.734375 L 4154.335938 605.742188 L 4262.382812 604.6875 L 4296.640625 604.0625 L 4340.351562 603.710938 L 4884.257812 603.710938 " transform="matrix(0.1, 0, 0, -0.1, 0, 216)"/>
</g>
<path fill="none" stroke-width="12.5" stroke-linecap="square" stroke-linejoin="miter" stroke="rgb(83.984375%, 83.984375%, 83.984375%)" stroke-opacity="1" stroke-miterlimit="10" d="M 729.179688 535.78125 L 729.179688 2030.390625 " transform="matrix(0.1, 0, 0, -0.1, 0, 216)"/>
<path fill="none" stroke-width="12.5" stroke-linecap="square" stroke-linejoin="miter" stroke="rgb(83.984375%, 83.984375%, 83.984375%)" stroke-opacity="1" stroke-miterlimit="10" d="M 4910.390625 535.78125 L 4910.390625 2030.390625 " transform="matrix(0.1, 0, 0, -0.1, 0, 216)"/>
<path fill="none" stroke-width="12.5" stroke-linecap="square" stroke-linejoin="miter" stroke="rgb(83.984375%, 83.984375%, 83.984375%)" stroke-opacity="1" stroke-miterlimit="10" d="M 729.179688 535.78125 L 4910.390625 535.78125 " transform="matrix(0.1, 0, 0, -0.1, 0, 216)"/>
<path fill="none" stroke-width="12.5" stroke-linecap="square" stroke-linejoin="miter" stroke="rgb(83.984375%, 83.984375%, 83.984375%)" stroke-opacity="1" stroke-miterlimit="10" d="M 729.179688 2030.390625 L 4910.390625 2030.390625 " transform="matrix(0.1, 0, 0, -0.1, 0, 216)"/>
<path fill="none" stroke-width="15" stroke-linecap="round" stroke-linejoin="round" stroke="rgb(29.80957%, 44.700623%, 68.943787%)" stroke-opacity="1" stroke-miterlimit="10" d="M 4433.398438 1886.289062 L 4653.398438 1886.289062 " transform="matrix(0.1, 0, 0, -0.1, 0, 216)"/>
<g fill="rgb(100%, 100%, 100%)" fill-opacity="1">
<use xlink:href="#glyph-0-1" x="474.14" y="31.22"/>
</g>
<path fill="none" stroke-width="15" stroke-linecap="round" stroke-linejoin="round" stroke="rgb(86.71875%, 51.756287%, 32.151794%)" stroke-opacity="1" stroke-miterlimit="10" d="M 4433.398438 1724.882812 L 4653.398438 1724.882812 " transform="matrix(0.1, 0, 0, -0.1, 0, 216)"/>
<g fill="rgb(100%, 100%, 100%)" fill-opacity="1">
<use xlink:href="#glyph-0-0" x="474.14" y="47.36"/>
</g>
<path fill="none" stroke-width="15" stroke-linecap="round" stroke-linejoin="round" stroke="rgb(33.325195%, 65.818787%, 40.795898%)" stroke-opacity="1" stroke-miterlimit="10" d="M 4433.398438 1563.476562 L 4653.398438 1563.476562 " transform="matrix(0.1, 0, 0, -0.1, 0, 216)"/>
<g fill="rgb(100%, 100%, 100%)" fill-opacity="1">
<use xlink:href="#glyph-0-3" x="474.14" y="63.501"/>
</g>
<path fill="none" stroke-width="15" stroke-linecap="round" stroke-linejoin="round" stroke="rgb(76.951599%, 30.589294%, 32.151794%)" stroke-opacity="1" stroke-miterlimit="10" d="M 4433.398438 1402.109375 L 4653.398438 1402.109375 " transform="matrix(0.1, 0, 0, -0.1, 0, 216)"/>
<g fill="rgb(100%, 100%, 100%)" fill-opacity="1">
<use xlink:href="#glyph-0-6" x="474.14" y="79.641"/>
</g>
<path fill="none" stroke-width="15" stroke-linecap="round" stroke-linejoin="round" stroke="rgb(50.584412%, 44.700623%, 70.117188%)" stroke-opacity="1" stroke-miterlimit="10" d="M 4433.398438 1240.664062 L 4653.398438 1240.664062 " transform="matrix(0.1, 0, 0, -0.1, 0, 216)"/>
<g fill="rgb(100%, 100%, 100%)" fill-opacity="1">
<use xlink:href="#glyph-0-4" x="474.14" y="95.782"/>
</g>
<path fill="none" stroke-width="15" stroke-linecap="round" stroke-linejoin="round" stroke="rgb(57.617188%, 47.068787%, 37.646484%)" stroke-opacity="1" stroke-miterlimit="10" d="M 4433.398438 1079.257812 L 4653.398438 1079.257812 " transform="matrix(0.1, 0, 0, -0.1, 0, 216)"/>
<g fill="rgb(100%, 100%, 100%)" fill-opacity="1">
<use xlink:href="#glyph-0-7" x="474.14" y="111.923"/>
</g>
</svg>
