<svg xmlns="http://www.w3.org/2000/svg" width="484" height="132" viewBox="0 0 484 132"><g fill="none" fill-rule="evenodd" transform="translate(.075 .188)"><g transform="translate(0 .608)"><path fill="#FFF" fill-rule="nonzero" d="M97.6302374,54.6665204 C92.6605537,51.7808976 89.2939938,46.3302768 89.2939938,40.0780942 C89.2939938,33.8259115 92.6605537,28.535603 97.6302374,25.4896679 L97.6302374,10.0996797 C84.6449348,13.7868644 75.1865046,25.8102926 75.1865046,40.0780942 C75.1865046,54.1855833 84.6449348,66.2090115 97.6302374,70.0565086 L97.6302374,54.6665204 Z"/><path fill="#00AFCB" fill-rule="nonzero" d="M4.33776673 0C6.74245238 0 8.6662009 1.92374852 8.6662009 4.32843417 8.6662009 6.73311982 6.74245238 8.65686834 4.33776673 8.65686834 1.93308108 8.65686834.00933256524 6.73311982.00933256524 4.32843417-.150979811 1.92374852 1.93308108 0 4.33776673 0ZM4.33776673 24.688106C6.74245238 24.688106 8.6662009 26.6118545 8.6662009 29.0165402 8.6662009 31.4212258 6.74245238 33.3449743 4.33776673 33.3449743 1.93308108 33.3449743.00933256524 31.4212258.00933256524 29.0165402-.150979811 26.6118545 1.77276871 24.688106 4.33776673 24.688106Z" transform="translate(212.886)"/><g fill="#FFF" transform="translate(0 10.42)"><path d="M29.9784144,22.7643575 C26.1309174,22.7643575 23.0849822,25.8102926 23.0849822,29.6577897 C23.0849822,33.5052867 26.1309174,36.5512219 29.9784144,36.5512219 C33.8259115,36.5512219 36.8718466,33.5052867 36.8718466,29.6577897 C36.8718466,25.8102926 33.6655991,22.7643575 29.9784144,22.7643575 Z M29.9784144,35.1084105 C27.0927916,35.1084105 24.688106,32.7037248 24.688106,29.818102 C24.688106,26.9324793 27.0927916,24.5277936 29.9784144,24.5277936 C32.8640372,24.5277936 35.2687229,26.9324793 35.2687229,29.818102 C35.2687229,32.7037248 32.8640372,35.1084105 29.9784144,35.1084105 Z"/><path d="M46.811214,29.6577897 C46.811214,39.1162199 39.1162199,46.811214 29.6577897,46.811214 C20.1993595,46.811214 12.5043654,39.1162199 12.5043654,29.6577897 C12.5043654,20.1993595 20.1993595,12.5043654 29.6577897,12.5043654 C39.1162199,12.5043654 46.811214,20.1993595 46.811214,29.6577897 Z M29.6577897,0 C13.3059273,0 0,13.3059273 0,29.6577897 C0,46.0096521 13.3059273,59.3155793 29.6577897,59.3155793 C46.0096521,59.3155793 59.3155793,46.0096521 59.3155793,29.6577897 C59.3155793,13.3059273 46.0096521,0 29.6577897,0 Z"/><path fill-rule="nonzero" d="M29.9784144,26.2912298 C31.9021629,26.2912298 33.3449743,27.8943535 33.3449743,29.6577897 C33.3449743,31.5815382 31.7418506,33.0243496 29.9784144,33.0243496 C28.0546659,33.0243496 26.6118545,31.4212258 26.6118545,29.6577897 C26.4515421,27.8943535 28.0546659,26.2912298 29.9784144,26.2912298 Z"/></g><path fill="#FFF" d="M217.22327,10.4203045 C200.871408,10.4203045 187.565481,23.7262317 187.565481,40.0780942 C187.565481,56.4299566 200.871408,69.7358838 217.22327,69.7358838 C233.575133,69.7358838 246.88106,56.4299566 246.88106,40.0780942 C246.720748,23.7262317 233.41482,10.4203045 217.22327,10.4203045 Z M217.22327,57.2315184 C207.76484,57.2315184 200.069846,49.5365244 200.069846,40.0780942 C200.069846,30.6196639 207.76484,22.9246699 217.22327,22.9246699 C226.681701,22.9246699 234.376695,30.6196639 234.376695,40.0780942 C234.376695,49.5365244 226.681701,57.2315184 217.22327,57.2315184 Z"/><polygon fill="#FFF" fill-rule="nonzero" points="148.61 33.185 148.61 10.26 134.662 10.26 134.662 33.185 111.738 33.185 111.738 46.972 134.823 46.972 134.823 69.896 148.77 69.896 148.77 46.972 171.855 46.972 171.855 33.185"/></g><path fill="#FFF" fill-opacity=".2" fill-rule="nonzero" d="M465.849647,0 C475.790772,-1.94851414e-14 483.849647,8.0588745 483.849647,18 C483.849647,18.7294229 483.805309,19.4581713 483.716878,20.1822139 L479.600597,53.8849297 C478.497709,62.9150063 470.830544,69.7027157 461.733366,69.7027157 L295.517471,69.7027157 C285.576346,69.7027157 277.517471,61.6438412 277.517471,51.7027157 C277.517471,50.9732929 277.561809,50.2445444 277.65024,49.5205018 L278.019266,46.488 L260.668098,30.9158561 C259.873931,30.1892864 260.07815,28.8999021 261.057969,28.4543041 L281.340266,19.308 L281.766521,15.8177861 C282.869409,6.78770943 290.536574,1.67112448e-15 299.633752,0 L465.849647,0 Z"/><g fill="#FFF" fill-rule="nonzero" transform="translate(294.327 9.442)"><path d="M0 25.703397.901873579 18.7890329 7.66592542 18.7890329 9.01873579 9.31936032 17.135598 9.31936032 15.7827876 18.7890329 24.8015234 18.7890329 23.8996499 25.703397 14.8809141 25.703397 12.9268546 39.983062C12.4759178 43.2899318 13.0771669 45.2439912 16.6846612 45.2439912 18.1877839 45.2439912 20.1418433 44.9433667 21.1940291 44.1918054L20.2921555 51.1061695C18.4884084 51.8577308 15.4821631 52.1583553 13.678416 52.1583553 5.11061695 52.1583553 3.60749432 48.2502365 4.65968016 40.5843111L6.76405185 25.5530847 0 25.5530847 0 25.703397ZM47.6489874 47.0477384 47.4986752 47.0477384C44.6427422 50.6552327 40.5843111 52.3086676 36.2252554 52.3086676 30.2127649 52.3086676 24.8015234 49.0017978 25.703397 42.5383705 27.2065196 31.8661998 39.6824375 31.1146385 47.7992997 31.1146385L49.9036714 31.1146385 50.0539837 30.2127649C50.6552327 26.1543338 47.7992997 24.0499621 43.4402441 24.0499621 39.983062 24.0499621 36.6761922 25.4027725 34.1208838 27.5071442L30.5133894 23.1480885C34.7221328 19.5405942 39.983062 17.8871593 45.093679 17.8871593 59.0727194 17.8871593 57.5695968 27.958081 56.9683478 32.6177611L54.262727 51.406794 46.8974261 51.406794 47.6489874 47.0477384ZM48.550861 36.8265045 46.8974261 36.8265045C42.3880582 36.8265045 34.7221328 37.127129 33.9705715 41.7868092 33.5196347 44.7930544 36.3755677 45.9955525 39.0811884 45.9955525 44.6427422 45.9955525 47.6489874 43.1396195 48.4005488 38.4799394L48.550861 36.8265045Z"/><polygon points="70.496 0 78.613 0 71.398 51.407 63.281 51.407"/><polygon points="88.083 0 96.2 0 91.69 32.317 106.12 18.789 116.642 18.789 100.559 33.67 112.885 51.557 102.062 51.557 91.39 34.872 91.39 34.872 89.135 51.557 80.868 51.557"/><path d="M138.13697,27.8077687 C136.78416,25.703397 134.980412,24.5008989 132.274792,24.5008989 C130.17042,24.5008989 127.314487,25.5530847 127.013862,27.958081 C126.262301,33.8202592 144.450085,29.0102668 142.79665,41.7868092 C141.744464,49.6030469 133.928227,52.3086676 127.164175,52.3086676 C122.20387,52.3086676 117.995127,50.9558572 115.139194,47.3483629 L121.301996,42.237746 C123.105744,44.4924299 125.059803,46.2961771 128.516985,46.2961771 C130.921981,46.2961771 134.078539,45.093679 134.529476,42.5383705 C135.431349,35.7743186 117.093253,41.0352479 118.746688,28.7096423 C119.798874,21.4946536 126.713238,18.1877839 133.326977,18.1877839 C137.686033,18.1877839 142.045089,19.5405942 144.299773,23.1480885 L138.13697,27.8077687 Z"/></g><path fill="#FFF" fill-rule="nonzero" d="M457.416149 51.6795921C460.572706 51.6795921 462.977703 54.0845884 462.526766 57.2411459 462.075829 60.3977034 459.069584 62.9530119 455.762714 62.9530119 452.606156 62.9530119 450.20116 60.5480157 450.652097 57.3914582 451.103034 54.3852129 454.109279 51.6795921 457.416149 51.6795921ZM462.526766 46.2683507 453.658342 46.2683507 458.768959 10.494032 467.637383 10.494032 462.526766 46.2683507ZM134.607116 131.320712C135.701663 131.320712 136.755671 131.259904 137.76914 131.138288 139.593384 130.874786 141.189598 130.525139 142.557781 130.089348 143.925964 129.653556 145.106656 129.167091 146.099855 128.629952 147.093055 128.092814 147.913965 127.525271 148.562585 126.927324 149.211205 126.329377 149.71794 125.741565 150.082789 125.163888 150.447637 124.586211 150.69087 124.038937 150.812486 123.522068 150.934103 123.005199 150.974641 122.56434 150.934103 122.199491 150.853025 121.672487 150.609792 121.236695 150.204405 120.892116 149.799017 120.547537 149.322687 120.405651 148.775414 120.466459 148.390295 120.527267 148.111591 120.633681 147.939302 120.785702 147.767012 120.937722 147.665665 121.110012 147.635261 121.302571 147.604857 121.49513 147.625126 121.697824 147.696069 121.910652 147.767012 122.123481 147.853157 122.331242 147.954504 122.533936 148.05585 122.696091 148.106524 122.797438 148.106524 122.837977L148.106524 122.837977 148.07612 122.777168C148.116659 123.101479 148.030514 123.46126 147.817685 123.856513 147.604857 124.251766 147.270412 124.631817 146.814351 124.996666 146.35829 125.361515 145.78568 125.690892 145.096521 125.984798 144.407362 126.278704 143.616856 126.4966 142.725003 126.638485 141.812881 126.780371 140.921028 126.876651 140.049445 126.927324 139.177862 126.977998 138.336682 127.003334 137.525907 127.003334 135.336814 127.003334 133.233866 126.810775 131.217062 126.425657 129.200259 126.040539 127.274668 125.549006 125.440289 124.95106 123.60591 124.353113 121.877945 123.689291 120.256395 122.959593 118.634844 122.229895 117.124775 121.520467 115.726188 120.831308 114.773527 120.365112 113.856337 119.924253 112.974619 119.508731 112.092901 119.093208 111.256789 118.733427 110.466284 118.429386 110.5879 117.233493 110.8362 115.971724 111.211183 114.644079 111.586167 113.316435 112.047295 111.973588 112.594569 110.61554 113.141842 109.257491 113.744856 107.90451 114.403611 106.556596 115.062366 105.208682 115.736323 103.89624 116.425482 102.619269 117.11464 101.342298 117.793665 100.131203 118.462554 98.9859825 119.131444 97.8407625 119.759795 96.7918221 120.347607 95.8391611 121.117843 94.5824595 121.766463 93.487913 122.293467 92.5555214 122.820471 91.6231299 123.083973 90.9947791 123.083973 90.670469 123.083973 90.2042732 122.967424 89.7684816 122.734326 89.3630939 122.501228 88.9577063 122.21239 88.6029921 121.86781 88.2989514 121.523231 87.9949107 121.138113 87.7516781 120.712456 87.5692537 120.286799 87.3868293 119.881411 87.2956171 119.496293 87.2956171 117.61124 87.2956171 115.751525 87.5135129 113.917146 87.9493046 112.082767 88.3850963 110.3396 88.967841 108.687645 89.6975387 107.035691 90.4272364 105.51042 91.2684157 104.111833 92.2210766 102.713245 93.1737376 101.50215 94.1618699 100.478546 95.1854736 99.4549423 96.2090773 98.6543018 97.2428158 98.0766244 98.2866889 97.498947 99.330562 97.2101084 100.298425 97.2101084 101.190278 97.2101084 101.859167 97.3266573 102.457114 97.5597552 102.984118 97.7928531 103.511122 98.1019611 103.957048 98.4870794 104.321897 98.8721976 104.686746 99.3130566 104.96545 99.8096565 105.158009 100.306256 105.350568 100.828193 105.446848 101.375466 105.446848 101.882201 105.446848 102.252117 105.406309 102.485215 105.325231 102.718313 105.244154 102.855131 105.127605 102.89567 104.975585 102.936208 104.823564 102.910872 104.625938 102.81966 104.382705 102.728447 104.139473 102.611898 103.865836 102.470013 103.561795 102.348396 103.338832 102.231847 103.080397 102.120366 102.786491 102.008884 102.492585 101.953144 102.173343 101.953144 101.828763 101.953144 100.673409 102.206511 99.5737946 102.713245 98.5299215 103.21998 97.4860483 103.899004 96.5181854 104.750318 95.6263326 105.601632 94.7344799 106.57963 93.928772 107.684311 93.209209 108.788992 92.4896459 109.93928 91.8663625 111.135173 91.3393586 112.331067 90.8123547 113.52696 90.3866977 114.722854 90.0623876 115.918747 89.7380775 117.043698 89.5353837 118.097705 89.4543061L118.097705 89.4543061 117.063967 91.096126C116.496424 91.9677094 115.837669 93.0115825 115.087702 94.2277454 114.337735 95.4439082 113.547229 96.77662 112.716185 98.2258808 111.88514 99.6751415 111.059163 101.20548 110.238253 102.816896 109.417343 104.428311 108.657241 106.059996 107.957948 107.711951 107.258654 109.363906 106.650573 111.010793 106.133703 112.652613 105.616834 114.294433 105.267187 115.86531 105.084763 117.365244L105.084763 117.365244 104.947945 117.365244 104.947945 117.365244C104.949971 117.369298 104.894231 117.379432 104.780722 117.395648 104.314526 117.476725 103.873667 117.643948 103.458145 117.897315 103.042623 118.150682 102.677774 118.449656 102.363598 118.794235 102.049423 119.138815 101.796056 119.498596 101.603497 119.87358 101.410938 120.248563 101.314658 120.59821 101.314658 120.92252 101.314658 121.408985 101.50215 121.794103 101.877133 122.077875 102.252117 122.361646 102.834862 122.452858 103.625367 122.351511 104.152371 122.290703 104.790857 122.351511 105.540824 122.533936 105.905673 123.506866 106.447879 124.317641 107.167442 124.966262 107.887005 125.614882 108.753521 125.939192 109.76699 125.939192 110.41561 125.939192 110.866604 125.842912 111.119971 125.650353 111.373338 125.457794 111.500022 125.168955 111.500022 124.783837L111.500022 124.783837 112.746589 125.33111 112.746589 125.300706C114.307331 125.969596 115.974488 126.658755 117.748059 127.368183 119.521629 128.077612 121.340806 128.726232 123.205589 129.314044 125.070372 129.901856 126.96556 130.383254 128.891151 130.758237 130.816742 131.133221 132.722064 131.320712 134.607116 131.320712ZM124.452156 118.703023C125.64805 118.703023 126.79327 118.439521 127.887816 117.912517 128.982363 117.385513 130.005967 116.706489 130.958628 115.875444 131.911289 115.0444 132.782872 114.122143 133.573378 113.108674 134.363884 112.095205 135.068245 111.107072 135.686461 110.144277 136.304677 109.181481 136.821546 108.299763 137.237068 107.499123 137.652591 106.698482 137.961699 106.095468 138.164393 105.69008 138.225201 105.527925 138.179595 105.36577 138.027574 105.203615 137.875554 105.04146 137.688062 104.914776 137.465099 104.823564 137.242136 104.732352 137.014105 104.686746 136.781007 104.686746 136.547909 104.686746 136.390822 104.767823 136.309744 104.929979 136.147589 105.254289 135.87902 105.745821 135.504036 106.404576 135.129053 107.063331 134.667924 107.803163 134.120651 108.624073 133.573378 109.444983 132.950094 110.286162 132.250801 111.147611 131.551507 112.00906 130.806607 112.794498 130.016101 113.503927 129.225596 114.213355 128.394551 114.7961 127.522968 115.252161 126.651384 115.708222 125.769666 115.936252 124.877813 115.936252 124.492695 115.936252 124.219058 115.789299 124.056903 115.495393 123.894748 115.201487 123.813671 114.821436 123.813671 114.355241 123.813671 113.970122 123.85421 113.585004 123.935287 113.199886 124.583907 113.058 125.262932 112.779296 125.97236 112.363774 126.681788 111.948252 127.376015 111.446584 128.055039 110.858772 128.734063 110.27096 129.377616 109.62234 129.985697 108.912912 130.593779 108.203484 131.130917 107.483921 131.597113 106.754223 132.063309 106.024525 132.433225 105.320164 132.706862 104.64114 132.980498 103.962116 133.117317 103.359101 133.117317 102.832098 133.117317 102.122669 132.909556 101.555127 132.494033 101.12947 132.078511 100.703813 131.394419 100.490984 130.441758 100.490984 128.982363 100.490984 127.548304 100.830496 126.139582 101.50952 124.73086 102.188545 123.464024 103.07533 122.339073 104.169877 121.214123 105.264423 120.307068 106.505923 119.617909 107.894375 118.92875 109.282828 118.584171 110.686483 118.584171 112.105339 118.584171 112.814768 118.70072 113.5546 118.933817 114.324837 119.166915 115.095073 119.526697 115.804501 120.013162 116.453122 120.499627 117.101742 121.107709 117.63888 121.837406 118.064537 122.567104 118.490194 123.438687 118.703023 124.452156 118.703023ZM124.695389 110.61554C125.039968 109.683148 125.460558 108.740622 125.957158 107.787961 126.453758 106.8353 126.980762 105.978919 127.53817 105.218817 128.095578 104.458715 128.66312 103.840499 129.240798 103.364169 129.818475 102.887838 130.350546 102.649673 130.837011 102.649673 130.938358 102.649673 130.989032 102.710481 130.989032 102.832098 130.989032 103.278024 130.80154 103.865836 130.426556 104.595534 130.051573 105.325231 129.56004 106.075199 128.951959 106.845435 128.343878 107.615671 127.664853 108.345369 126.914886 109.034528 126.164919 109.723687 125.425087 110.250691 124.695389 110.61554ZM166.014522 125.300706C167.615803 125.300706 169.293094 125.072676 171.046396 124.616615 172.799697 124.160554 174.522595 123.552472 176.215088 122.79237 177.907581 122.032269 179.524064 121.155618 181.064537 120.162418 182.60501 119.169219 183.952924 118.13548 185.108279 117.061203 186.263634 115.986926 187.18589 114.902514 187.875049 113.807967 188.564208 112.713421 188.908788 111.689817 188.908788 110.737156 188.908788 109.96692 188.766902 109.247357 188.483131 108.578467 188.199359 107.909578 187.824376 107.316698 187.35818 106.799829 186.891984 106.28296 186.36498 105.837033 185.777168 105.46205 185.189356 105.087066 184.581275 104.798228 183.952924 104.595534 185.432589 103.845567 186.841311 102.994253 188.17909 102.041592 189.516869 101.088931 190.692493 100.110933 191.705962 99.1075988 192.719431 98.1042645 193.525139 97.0907954 194.123086 96.0671917 194.721033 95.0435879 195.020006 94.075725 195.020006 93.1636029 195.020006 92.8595621 194.984535 92.4845786 194.913592 92.0386522 194.842649 91.5927258 194.685561 91.1163954 194.442329 90.6096609 194.199096 90.1029263 193.839315 89.6012592 193.362984 89.1046593 192.886654 88.6080595 192.238034 88.1570658 191.417124 87.7516781 190.596214 87.3462905 189.582745 87.0169131 188.376717 86.7635458 187.170688 86.5101786 185.71636 86.3834949 184.013732 86.3834949 180.871978 86.3834949 177.877177 86.692603 175.029329 87.3108191 172.181481 87.9290352 169.526192 88.7499452 167.063462 89.7735489 164.600733 90.7971526 162.371101 91.9727767 160.374567 93.3004212 158.378033 94.6280656 156.670337 96.0013162 155.251481 97.4201729 153.832624 98.8390295 152.738077 100.247752 151.967841 101.646339 151.197605 103.044926 150.812486 104.332032 150.812486 105.507656 150.812486 106.440047 150.959439 107.215351 151.253345 107.833567 151.547251 108.451783 151.927302 108.943316 152.393498 109.308165 152.859694 109.673014 153.371496 109.926381 153.928904 110.068267 154.486312 110.210152 155.028518 110.281095 155.555521 110.281095L155.555521 110.281095 155.737946 110.281095C156.690607 110.281095 157.769951 109.961852 158.975979 109.323367 160.182008 108.684881 161.438709 107.879173 162.746084 106.906243 164.053459 105.933313 165.360834 104.864103 166.66821 103.698614 167.975585 102.533124 169.196815 101.413241 170.3319 100.338964 171.223753 99.5281885 171.999057 98.8136928 172.657812 98.1954767 173.316566 97.5772606 173.93985 97.055324 174.527662 96.629667 174.142544 97.5823279 173.656079 98.6718071 173.068267 99.8981047 172.480455 101.124402 171.872373 102.376037 171.244022 103.653008 171.122406 103.612469 171.010924 103.561795 170.909578 103.500987 170.808231 103.440179 170.717018 103.389506 170.635941 103.348967 170.514325 103.24762 170.382574 103.156408 170.240688 103.07533 170.098802 102.994253 169.936647 102.953714 169.754223 102.953714 169.328566 102.953714 169.019458 103.060128 168.826899 103.272957 168.634339 103.485785 168.53806 103.764489 168.53806 104.109069 168.53806 104.433379 168.659676 104.803295 168.902909 105.218817 169.146141 105.634339 169.470451 106.01439 169.875839 106.35897 169.470451 107.210284 169.085333 108.031194 168.720484 108.8217 168.355636 109.612206 168.036393 110.352038 167.762756 111.041197 167.489119 111.730356 167.276291 112.358707 167.124271 112.926249 166.97225 113.493792 166.89624 113.970122 166.89624 114.355241 166.89624 114.922783 167.012789 115.434585 167.245887 115.890646 167.478985 116.346707 167.772891 116.736893 168.127605 117.061203 168.482319 117.385513 168.867437 117.63888 169.28296 117.821305 169.698482 118.003729 170.078533 118.094941 170.423112 118.094941 170.747422 118.094941 170.990655 118.054403 171.15281 117.973325 171.314965 117.892248 171.411245 117.775699 171.441649 117.623678 171.472053 117.471658 171.466985 117.294301 171.426447 117.091607 171.385908 116.888913 171.335235 116.676085 171.274426 116.453122L171.274426 116.453122 171.274426 116.483526C171.233888 116.382179 171.203484 116.285899 171.183214 116.194687 171.162945 116.103475 171.15281 116.007195 171.15281 115.905848 171.15281 115.581538 171.254157 115.135612 171.456851 114.568069 171.659545 114.000526 171.928114 113.346839 172.262559 112.607007 172.597003 111.867174 172.982122 111.061466 173.417913 110.189883 173.853705 109.318299 174.314834 108.416312 174.801299 107.483921 175.672882 107.402843 176.564735 107.25589 177.476857 107.043061 178.388979 106.830233 179.321371 106.551529 180.274032 106.20695L180.274032 106.20695 180.942921 106.20695C181.733427 106.20695 182.387114 106.277892 182.903984 106.419778 183.420853 106.561664 183.826241 106.739021 184.120147 106.951849 184.414053 107.164678 184.616746 107.412978 184.728228 107.696749 184.83971 107.98052 184.89545 108.254157 184.89545 108.517659 184.89545 109.247357 184.626881 110.068267 184.089742 110.980389 183.552604 111.892511 182.807704 112.819835 181.855043 113.762361 180.902382 114.704887 179.757162 115.627144 178.419383 116.529132 177.081604 117.431119 175.622209 118.23176 174.041197 118.931053 172.460185 119.630347 170.772759 120.192822 168.978919 120.618479 167.185079 121.044136 165.345632 121.256965 163.46058 121.256965 162.629535 121.256965 162.061993 121.115079 161.757952 120.831308 161.453911 120.547537 161.301891 120.284035 161.301891 120.040802 161.301891 119.250296 161.144803 118.652349 160.830628 118.246962 160.516452 117.841574 160.166806 117.63888 159.781687 117.63888 159.437108 117.63888 159.112798 117.831439 158.808757 118.216558 158.504716 118.601676 158.352696 119.209757 158.352696 120.040802 158.352696 120.567806 158.464178 121.140416 158.687141 121.758632 158.910104 122.376848 159.310424 122.949458 159.888102 123.476462 160.465779 124.003466 161.24615 124.439258 162.229215 124.783837 163.21228 125.128417 164.474049 125.300706 166.014522 125.300706ZM155.981178 107.939982 155.950774 107.939982C155.808889 107.899443 155.682205 107.813298 155.570723 107.681547 155.459242 107.549796 155.403501 107.3319 155.403501 107.027859 155.403501 106.35897 155.717676 105.451915 156.346027 104.306695 156.974378 103.161475 157.876366 101.919975 159.05199 100.582196 160.227614 99.2444171 161.661672 97.8863686 163.354166 96.5080507 165.046659 95.1297328 166.957048 93.8831659 169.085333 92.7683499 171.213618 91.653534 173.53953 90.7414118 176.063068 90.0319835 178.586606 89.3225552 181.277366 88.967841 184.135349 88.967841 186.081209 88.967841 187.565941 89.1249287 188.589545 89.4391041 189.613149 89.7532795 190.352981 90.1231957 190.809042 90.5488527 191.265103 90.9745097 191.518471 91.4001667 191.569144 91.8258237 191.619817 92.2514807 191.645154 92.5757908 191.645154 92.798754 191.645154 93.2446804 191.452595 93.7463476 191.067477 94.3037555 190.682359 94.8611635 190.150287 95.4489756 189.471263 96.0671917 188.792239 96.6854078 187.991598 97.3086913 187.069341 97.9370421 186.147085 98.5653929 185.148818 99.1785417 184.07454 99.7764884 183.000263 100.374435 181.88038 100.926776 180.714891 101.43351 179.549401 101.940245 178.388979 102.376037 177.233624 102.740885 177.922783 101.342298 178.495393 100.06026 178.951454 98.8947703 179.407515 97.7292809 179.635546 96.8120914 179.635546 96.1432019 179.635546 95.7580836 179.488593 95.367898 179.194687 94.9726451 178.900781 94.5773922 178.556201 94.2277454 178.160949 93.9237046 177.765696 93.6196639 177.360308 93.3865661 176.944786 93.224411 176.529263 93.062256 176.199886 93.0014478 175.956653 93.0419866L175.956653 93.0419866 175.987057 93.0419866C175.541131 93.1027947 175.019194 93.3206906 174.421248 93.6956741 173.823301 94.0706577 173.159479 94.5520555 172.429781 95.1398675 171.700083 95.7276796 170.92478 96.3965691 170.10387 97.1465362 169.28296 97.8965033 168.436713 98.6768745 167.56513 99.4876497 166.490852 100.501119 165.401373 101.50952 164.296692 102.512855 163.192011 103.516189 162.132936 104.418177 161.119467 105.218817 160.105997 106.019458 159.153337 106.673145 158.261484 107.17988 157.369631 107.686614 156.609529 107.939982 155.981178 107.939982L155.981178 107.939982ZM192.952529 118.703023C193.641688 118.703023 194.371386 118.439521 195.141622 117.912517 195.911859 117.385513 196.687163 116.716624 197.467534 115.905848 198.247905 115.095073 199.008007 114.188018 199.747839 113.184684 200.487672 112.18135 201.161629 111.203352 201.76971 110.250691 202.377791 109.29803 202.904795 108.421379 203.350722 107.620739 203.796648 106.820098 204.120958 106.217084 204.323652 105.811697 204.38446 105.649542 204.338854 105.487386 204.186834 105.325231 204.034813 105.163076 203.842254 105.036393 203.609156 104.945181 203.376058 104.853968 203.148028 104.81343 202.925065 104.823564 202.702102 104.833699 202.550081 104.919844 202.469004 105.081999 202.306849 105.406309 202.038279 105.892774 201.663296 106.541394 201.288312 107.190014 200.847453 107.914645 200.340719 108.715285 199.833984 109.515926 199.286711 110.336836 198.698899 111.178015 198.111087 112.019194 197.533409 112.789431 196.965867 113.488725 196.398324 114.188018 195.856118 114.760628 195.339249 115.206555 194.82238 115.652481 194.381521 115.875444 194.016672 115.875444 193.996402 115.875444 193.986268 115.804501 193.986268 115.662616 193.986268 115.236959 194.112951 114.644079 194.366319 113.883978 194.619686 113.123876 194.959198 112.262427 195.384855 111.299631 195.810512 110.336836 196.29191 109.303097 196.829048 108.198416 197.366187 107.093735 197.908393 105.973852 198.455666 104.838766 199.002939 103.74422 199.529943 102.659808 200.036678 101.585531 200.543412 100.511253 200.994406 99.5129864 201.389659 98.5907296 201.784912 97.6684728 202.104155 96.8374282 202.347387 96.0975958 202.59062 95.3577633 202.712236 94.764884 202.712236 94.3189576 202.712236 93.8933006 202.499408 93.4575089 202.073751 93.0115825 201.648094 92.5656561 201.181898 92.1957399 200.675163 91.9018339 200.168429 91.6079279 199.702233 91.4305708 199.276576 91.3697626 198.850919 91.3089545 198.638091 91.4407055 198.638091 91.7650156 198.638091 92.0893257 198.516474 92.6061949 198.273242 93.3156232 198.030009 94.0250516 197.705699 94.8510288 197.300311 95.793555 196.894924 96.7360813 196.438863 97.7647523 195.932128 98.8795683 195.425394 99.9943842 194.89839 101.12947 194.351117 102.284824 193.763305 103.541526 193.185627 104.803295 192.618084 106.070131 192.050542 107.336967 191.533673 108.527794 191.067477 109.64261 190.601281 110.757426 190.226298 111.750625 189.942526 112.622209 189.658755 113.493792 189.516869 114.152547 189.516869 114.598473 189.516869 115.855175 189.836112 116.853442 190.474597 117.593274 191.113083 118.333107 191.93906 118.703023 192.952529 118.703023ZM204.658097 118.703023C205.894529 118.703023 207.090422 118.297635 208.245777 117.48686 209.401132 116.676085 210.43487 115.632212 211.346992 114.355241 212.198306 114.233624 212.998947 113.97519 213.748914 113.579937 214.498881 113.184684 215.193108 112.718488 215.831593 112.18135 216.470079 111.644211 217.057891 111.066534 217.595029 110.448317 218.132168 109.830101 218.603431 109.227087 219.008818 108.639275 219.414206 108.051463 219.753718 107.514325 220.027355 107.027859 220.300992 106.541394 220.508753 106.156276 220.650638 105.872505 220.731716 105.69008 220.701312 105.507656 220.559426 105.325231 220.41754 105.142807 220.240183 104.990787 220.027355 104.86917 219.814526 104.747554 219.591563 104.686746 219.358465 104.686746 219.125367 104.686746 218.96828 104.777958 218.887202 104.960383 218.725047 105.264423 218.461545 105.71035 218.096696 106.298162 217.731847 106.885974 217.285921 107.50419 216.758917 108.15281 216.231913 108.80143 215.639034 109.439916 214.980279 110.068267 214.321524 110.696617 213.627298 111.213487 212.8976 111.618874 214.093494 109.186549 214.69144 106.642741 214.69144 103.987452 214.69144 103.480718 214.6357 103.009455 214.524218 102.573663 214.412736 102.137871 214.210043 101.762888 213.916137 101.448712 213.622231 101.134537 213.226978 100.891304 212.730378 100.719015 212.233778 100.546725 211.60036 100.46058 210.830123 100.46058 210.303119 100.46058 209.78625 100.55686 209.279516 100.749419 208.772781 100.941978 208.281249 101.195345 207.804918 101.50952 207.328588 101.823696 206.882661 102.193612 206.467139 102.619269 206.051617 103.044926 205.661431 103.500987 205.296582 103.987452 205.073619 103.926644 204.840521 103.875971 204.597289 103.835432 204.354056 103.794893 204.131093 103.774624 203.928399 103.774624 203.644628 103.774624 203.244307 104.04826 202.727438 104.595534 202.210569 105.142807 201.703835 105.842101 201.207235 106.693415 200.710635 107.544729 200.274843 108.482188 199.89986 109.505791 199.524876 110.529395 199.337384 111.527662 199.337384 112.500592 199.337384 113.534331 199.489405 114.436318 199.793445 115.206555 200.097486 115.976791 200.497806 116.620344 200.994406 117.137213 201.491006 117.654082 202.058549 118.044268 202.697034 118.30777 203.33552 118.571272 203.989207 118.703023 204.658097 118.703023ZM209.826789 112.40938C209.238977 112.328303 208.833589 112.125609 208.610626 111.801299 208.387663 111.476989 208.276181 111.081736 208.276181 110.61554 208.276181 109.885842 208.438336 109.085202 208.762646 108.213618 209.086957 107.342035 209.467007 106.521125 209.902799 105.750888 210.338591 104.980652 210.769315 104.337099 211.194972 103.82023 211.620629 103.303361 211.934805 103.044926 212.137498 103.044926 212.340192 103.044926 212.441539 103.450314 212.441539 104.261089 212.441539 104.747554 212.380731 105.320164 212.259115 105.978919 212.137498 106.637674 211.965209 107.326833 211.742245 108.046396 211.519282 108.765959 211.245646 109.500724 210.921335 110.250691 210.597025 111.000658 210.232177 111.720221 209.826789 112.40938ZM204.749309 116.361909C204.343921 116.361909 204.06015 116.26563 203.897995 116.073071 203.73584 115.880512 203.654762 115.611942 203.654762 115.267363 203.654762 114.821436 203.740907 114.304567 203.913197 113.716755 204.085487 113.128943 204.303383 112.520862 204.566885 111.892511 205.05335 112.439784 205.636094 112.921182 206.315119 113.336704 206.994143 113.752227 207.718773 114.061335 208.48901 114.264028 207.941736 114.912649 207.358992 115.42445 206.740776 115.799434 206.12256 116.174418 205.458737 116.361909 204.749309 116.361909ZM216.394068 131.624753C217.042689 131.624753 217.72678 131.396723 218.446343 130.940662 219.165906 130.484601 219.895604 129.871452 220.635436 129.101215 221.375269 128.330979 222.110034 127.434059 222.839731 126.410455 223.569429 125.386851 224.278858 124.302439 224.968016 123.157219 225.657175 122.011999 226.310863 120.841443 226.929079 119.645549 227.547295 118.449656 228.109771 117.294301 228.616505 116.179485 229.731321 115.287632 230.815733 114.390712 231.869741 113.488725 232.923749 112.586737 233.891611 111.694884 234.77333 110.813166 235.655048 109.931448 236.430351 109.059865 237.099241 108.198416 237.768131 107.336967 238.285 106.500856 238.649849 105.69008 238.812004 105.284693 238.847475 104.950248 238.756263 104.686746 238.665051 104.423244 238.502896 104.245887 238.269798 104.154675 238.0367 104.063462 237.783333 104.073597 237.509696 104.185079 237.236059 104.29656 236.997894 104.534726 236.7952 104.899574L236.7952 104.899574 236.7952 104.929979C236.166849 106.146141 235.285131 107.357237 234.150046 108.563265 233.014961 109.769293 231.71772 110.980389 230.258325 112.196552 230.542096 111.446584 230.775194 110.752358 230.957619 110.113873 231.140043 109.475387 231.231255 109.014259 231.231255 108.730487 231.231255 108.365639 231.119774 107.970386 230.89681 107.544729 230.673847 107.119072 230.400211 106.733953 230.0759 106.389374 230.359672 106.328566 230.623174 106.044794 230.866406 105.53806 230.906945 105.396174 230.937349 105.173211 230.957619 104.86917 230.977888 104.56513 230.952551 104.225618 230.881608 103.850634 230.810666 103.47565 230.678915 103.090532 230.486355 102.695279 230.293796 102.300026 230.025227 101.935177 229.680648 101.600733 229.336068 101.266288 228.900276 100.992651 228.373272 100.779823 227.846269 100.566994 227.197648 100.46058 226.427412 100.46058 225.51529 100.46058 224.608235 100.643004 223.706248 101.007853 222.80426 101.372702 221.942811 101.864235 221.121901 102.482451 220.300992 103.100667 219.535822 103.82023 218.826394 104.64114 218.116966 105.46205 217.503817 106.333633 216.986948 107.25589 216.470079 108.178147 216.064691 109.115606 215.770785 110.068267 215.476879 111.020927 215.329926 111.93305 215.329926 112.804633 215.329926 113.514061 215.43634 114.22349 215.649169 114.932918 215.861997 115.642346 216.171105 116.285899 216.576493 116.863577 216.98188 117.441254 217.483548 117.90745 218.081494 118.262164 218.679441 118.616878 219.373667 118.794235 220.164173 118.794235 220.569561 118.794235 220.964814 118.713158 221.349932 118.551003 221.73505 118.388847 222.120168 118.165884 222.505287 117.882113L222.505287 117.882113 222.353266 118.216558C220.93441 119.230027 219.581429 120.202957 218.294323 121.135349 217.007217 122.06774 215.872132 122.954526 214.889067 123.795705 213.906002 124.636884 213.125631 125.42739 212.547953 126.167222 211.970276 126.907055 211.681437 127.591146 211.681437 128.219497 211.681437 128.523538 211.75238 128.873185 211.894266 129.268438 212.036151 129.663691 212.284451 130.033607 212.639166 130.378186 212.99388 130.722766 213.475277 131.016672 214.083359 131.259904 214.69144 131.503137 215.461677 131.624753 216.394068 131.624753ZM220.58983 116.51393C220.366867 116.51393 220.209779 116.41765 220.118567 116.225091 220.027355 116.032532 219.981749 115.763963 219.981749 115.419383 219.981749 114.831571 220.098298 114.12721 220.331396 113.3063 220.564493 112.48539 220.873602 111.629009 221.25872 110.737156 221.643838 109.845303 222.089764 108.968653 222.596499 108.107204 223.103233 107.245755 223.630237 106.470451 224.177511 105.781293 224.724784 105.092134 225.277125 104.534726 225.834533 104.109069 226.391941 103.683412 226.913877 103.470583 227.400342 103.470583 227.866538 103.470583 228.226319 103.551661 228.479687 103.713816 228.733054 103.875971 228.915478 104.058395 229.02696 104.261089 229.138442 104.463783 229.19925 104.656342 229.209384 104.838766 229.219519 105.021191 229.214452 105.132672 229.194182 105.173211 229.133374 105.274558 229.12324 105.416444 229.163778 105.598868 228.798929 105.355636 228.45435 105.234019 228.13004 105.234019 227.744922 105.234019 227.435814 105.36577 227.202716 105.629272 226.969618 105.892774 226.853069 106.348835 226.853069 106.997455L226.853069 106.997455 226.853069 107.119072C226.81253 107.321765 226.756789 107.559931 226.685847 107.833567 226.614904 108.107204 226.538894 108.396043 226.457816 108.700083L226.457816 108.700083 226.457816 108.669679C226.214583 109.379108 225.880139 110.184816 225.454482 111.086803 225.028825 111.98879 224.552494 112.840104 224.02549 113.640745 223.498486 114.441386 222.941078 115.12041 222.353266 115.677818 221.765454 116.235226 221.177642 116.51393 220.58983 116.51393ZM213.779318 128.857983C213.475277 128.857983 213.323257 128.695828 213.323257 128.371518 213.323257 128.026938 213.525951 127.606348 213.931339 127.109749 214.336726 126.613149 214.889067 126.055741 215.58836 125.437525 216.287654 124.819309 217.108564 124.145352 218.05109 123.415654 218.993616 122.685956 220.002018 121.91572 221.076295 121.104945 220.468214 122.158952 219.849998 123.157219 219.221647 124.099746 218.593296 125.042272 217.970013 125.863182 217.351797 126.562475 216.73358 127.261769 216.120432 127.819177 215.51235 128.234699 214.904269 128.650222 214.326591 128.857983 213.779318 128.857983ZM259.050981 118.703023C259.659062 118.703023 260.333019 118.439521 261.072851 117.912517 261.812684 117.385513 262.562651 116.706489 263.322753 115.875444 264.082854 115.0444 264.832821 114.12721 265.572654 113.123876 266.312486 112.120541 266.991511 111.132409 267.609727 110.159479 268.227943 109.186549 268.765081 108.299763 269.221142 107.499123 269.677204 106.698482 270.006581 106.095468 270.209275 105.69008 270.37143 105.304962 270.406901 104.975585 270.315689 104.701948 270.224477 104.428311 270.062322 104.245887 269.829224 104.154675 269.596126 104.063462 269.342759 104.073597 269.069122 104.185079 268.795485 104.29656 268.55732 104.534726 268.354626 104.899574L268.354626 104.899574 268.354626 104.929979C268.192471 105.254289 267.918835 105.750888 267.533716 106.419778 267.148598 107.088668 266.692537 107.843702 266.165533 108.684881 265.638529 109.526061 265.065919 110.387509 264.447703 111.269227 263.829487 112.150945 263.216338 112.956653 262.608257 113.686351 262.000175 114.416049 261.422498 115.013996 260.875225 115.480191 260.327952 115.946387 259.861756 116.179485 259.476638 116.179485 259.314483 116.179485 259.344887 115.84504 259.56785 115.176151 259.790813 114.507261 260.14046 113.625543 260.61679 112.530996 261.093121 111.43645 261.650529 110.200018 262.289014 108.8217 262.9275 107.443382 263.581187 106.044794 264.250077 104.625938 264.817619 103.409775 265.36996 102.224016 265.907099 101.068661 266.444237 99.9133067 266.920568 98.8339622 267.33609 97.8306278 267.751612 96.8272935 268.086057 95.9455754 268.339424 95.1854736 268.592792 94.4253718 268.719475 93.8324924 268.719475 93.4068354 268.719475 93.224411 268.618128 93.0318519 268.415435 92.8291581 268.212741 92.6264643 267.959373 92.4288378 267.655333 92.2362787 267.351292 92.0437196 267.016847 91.8663625 266.651998 91.7042074 266.28715 91.5420524 265.952705 91.4255034 265.648664 91.3545606 265.344623 91.2836178 265.091256 91.2684157 264.888562 91.3089545 264.685868 91.3494933 264.584522 91.4609749 264.584522 91.6433993 264.584522 91.7447462 264.483175 92.0893257 264.280481 92.6771377 264.077787 93.2649498 263.794016 94.0149169 263.429167 94.927039 263.064318 95.8391611 262.638661 96.8830343 262.152196 98.0586584 261.665731 99.2342825 261.138727 100.470715 260.571184 101.767955 260.287413 101.403106 259.89216 101.099066 259.385425 100.855833 258.878691 100.6126 258.209801 100.490984 257.378757 100.490984 256.486904 100.490984 255.595051 100.673409 254.703198 101.038257 253.811346 101.403106 252.954964 101.894639 252.134054 102.512855 251.313144 103.131071 250.553043 103.845567 249.853749 104.656342 249.154455 105.467117 248.546374 106.328566 248.029505 107.240688 247.512635 108.15281 247.107248 109.080134 246.813342 110.02266 246.519436 110.965187 246.372483 111.872241 246.372483 112.743825 246.372483 113.453253 246.47383 114.162682 246.676523 114.87211 246.879217 115.581538 247.188325 116.220024 247.603848 116.787566 248.01937 117.355109 248.526105 117.816237 249.124051 118.170952 249.721998 118.525666 250.416224 118.703023 251.20673 118.703023 251.652657 118.703023 252.088448 118.611811 252.514105 118.429386 252.939762 118.246962 253.335015 118.018931 253.699864 117.745295 254.064713 117.471658 254.404225 117.177752 254.7184 116.863577 255.032576 116.549401 255.301145 116.250428 255.524108 115.966656 255.767341 116.49366 256.071382 116.949721 256.43623 117.33484 256.740271 117.679419 257.110187 117.993595 257.545979 118.277366 257.981771 118.561137 258.483438 118.703023 259.050981 118.703023ZM251.632387 116.422718C251.20673 116.422718 250.993902 116.057869 250.993902 115.328171 250.993902 114.740359 251.105383 114.041065 251.328346 113.23029 251.55131 112.419515 251.85535 111.573268 252.240469 110.69155 252.625587 109.809832 253.066446 108.943316 253.563046 108.092002 254.059646 107.240688 254.581582 106.475519 255.128855 105.796495 255.676129 105.11747 256.228469 104.56513 256.785877 104.139473 257.343285 103.713816 257.865222 103.500987 258.351687 103.500987 258.392226 103.500987 258.412495 103.561795 258.412495 103.683412 258.412495 103.926644 258.351687 104.205348 258.230071 104.519524 258.108454 104.833699 258.037512 105.031325 258.017242 105.112403 257.936165 105.274558 257.951367 105.44178 258.062848 105.61407 258.17433 105.78636 258.341552 105.923178 258.564515 106.024525 257.895626 107.402843 257.226736 108.720353 256.557847 109.977054 255.888957 111.233756 255.250472 112.338437 254.64239 113.291098 254.034309 114.243759 253.471833 115.003861 252.954964 115.571404 252.438095 116.138946 251.997236 116.422718 251.632387 116.422718ZM270.938972 118.703023C272.134866 118.703023 273.280086 118.439521 274.374633 117.912517 275.469179 117.385513 276.492783 116.706489 277.445444 115.875444 278.398105 115.0444 279.269688 114.122143 280.060194 113.108674 280.8507 112.095205 281.555061 111.107072 282.173277 110.144277 282.791493 109.181481 283.308362 108.299763 283.723885 107.499123 284.139407 106.698482 284.448515 106.095468 284.651209 105.69008 284.712017 105.527925 284.666411 105.36577 284.51439 105.203615 284.36237 105.04146 284.174878 104.914776 283.951915 104.823564 283.728952 104.732352 283.500921 104.686746 283.267823 104.686746 283.034726 104.686746 282.877638 104.767823 282.79656 104.929979 282.634405 105.254289 282.365836 105.745821 281.990852 106.404576 281.615869 107.063331 281.15474 107.803163 280.607467 108.624073 280.060194 109.444983 279.43691 110.286162 278.737617 111.147611 278.038323 112.00906 277.293423 112.794498 276.502918 113.503927 275.712412 114.213355 274.881367 114.7961 274.009784 115.252161 273.1382 115.708222 272.256482 115.936252 271.364629 115.936252 270.979511 115.936252 270.705875 115.789299 270.54372 115.495393 270.381565 115.201487 270.300487 114.821436 270.300487 114.355241 270.300487 113.970122 270.341026 113.585004 270.422103 113.199886 271.070723 113.058 271.749748 112.779296 272.459176 112.363774 273.168604 111.948252 273.862831 111.446584 274.541855 110.858772 275.220879 110.27096 275.864432 109.62234 276.472513 108.912912 277.080595 108.203484 277.617734 107.483921 278.083929 106.754223 278.550125 106.024525 278.920041 105.320164 279.193678 104.64114 279.467315 103.962116 279.604133 103.359101 279.604133 102.832098 279.604133 102.122669 279.396372 101.555127 278.980849 101.12947 278.565327 100.703813 277.881235 100.490984 276.928575 100.490984 275.469179 100.490984 274.03512 100.830496 272.626398 101.50952 271.217676 102.188545 269.95084 103.07533 268.82589 104.169877 267.700939 105.264423 266.793884 106.505923 266.104725 107.894375 265.415566 109.282828 265.070987 110.686483 265.070987 112.105339 265.070987 112.814768 265.187536 113.5546 265.420634 114.324837 265.653731 115.095073 266.013513 115.804501 266.499978 116.453122 266.986443 117.101742 267.594525 117.63888 268.324222 118.064537 269.05392 118.490194 269.925503 118.703023 270.938972 118.703023ZM271.182205 110.61554C271.526785 109.683148 271.947374 108.740622 272.443974 107.787961 272.940574 106.8353 273.467578 105.978919 274.024986 105.218817 274.582394 104.458715 275.149936 103.840499 275.727614 103.364169 276.305291 102.887838 276.837362 102.649673 277.323827 102.649673 277.425174 102.649673 277.475848 102.710481 277.475848 102.832098 277.475848 103.278024 277.288356 103.865836 276.913373 104.595534 276.538389 105.325231 276.046856 106.075199 275.438775 106.845435 274.830694 107.615671 274.151669 108.345369 273.401702 109.034528 272.651735 109.723687 271.911903 110.250691 271.182205 110.61554ZM283.009389 118.672619C283.597201 118.672619 284.235686 118.591541 284.924845 118.429386 285.978853 118.105076 286.972053 117.618611 287.904444 116.969991 288.836836 116.321371 289.708419 115.586606 290.519194 114.765696 291.32997 113.944786 292.064735 113.07827 292.72349 112.166148 293.382245 111.254025 293.964989 110.377375 294.471724 109.536195 294.978458 108.695016 295.404115 107.934914 295.748695 107.25589 296.093274 106.576866 296.356776 106.054929 296.539201 105.69008 296.600009 105.527925 296.554403 105.370838 296.402382 105.218817 296.250362 105.066797 296.06287 104.945181 295.839907 104.853968 295.616944 104.762756 295.393981 104.71715 295.171017 104.71715 294.948054 104.71715 294.796034 104.798228 294.714956 104.960383L294.714956 104.960383 294.74536 104.929979 294.44132 105.568464C294.258895 105.953582 294.02073 106.429913 293.726824 106.997455 293.432918 107.564998 293.098473 108.178147 292.72349 108.836902 292.348506 109.495657 291.922849 110.174681 291.446519 110.873974 290.970188 111.573268 290.448252 112.23709 289.880709 112.865441 289.880709 112.703286 289.885776 112.520862 289.895911 112.318168 289.906046 112.115474 289.911113 111.93305 289.911113 111.770895 289.911113 110.93985 289.784429 110.205085 289.531062 109.566599 289.277695 108.928114 288.978722 108.314965 288.634142 107.727153L288.634142 107.727153 288.634142 107.757557C288.350371 107.190014 288.081801 106.622472 287.828434 106.054929 287.575067 105.487386 287.448383 104.848901 287.448383 104.139473 287.448383 103.531391 287.605471 103.014522 287.919646 102.588865 288.233822 102.163208 288.553065 101.798359 288.877375 101.494318 289.161146 101.210547 289.404379 100.931843 289.607072 100.658206 289.809766 100.38457 289.911113 100.075462 289.911113 99.7308823 289.911113 99.3254947 289.804699 99.0011846 289.59187 98.757952 289.379042 98.5147194 289.120607 98.3272277 288.816566 98.1954767 288.512526 98.0637257 288.19835 97.9775808 287.87404 97.9370421 287.54973 97.8965033 287.286228 97.8762339 287.083534 97.8762339 286.698416 97.8762339 286.242355 98.0181196 285.715351 98.3018909 285.188347 98.5856623 284.681613 98.9910499 284.195148 99.5180538 283.708682 100.045058 283.298228 100.678476 282.963783 101.418308 282.629338 102.158141 282.462116 102.973983 282.462116 103.865836 282.462116 104.149607 282.49252 104.473917 282.553328 104.838766L282.553328 104.838766 282.310095 105.355636 282.340499 105.325231C282.259422 105.507656 282.178344 105.695148 282.097267 105.887707 282.016189 106.080266 281.914842 106.298162 281.793226 106.541394 281.67161 106.784627 281.519589 107.068398 281.337165 107.392708 281.15474 107.717018 280.941912 108.102137 280.698679 108.548063 280.617602 108.689949 280.648006 108.841969 280.789892 109.004124 280.931777 109.166279 281.109134 109.303097 281.321963 109.414579 281.534791 109.526061 281.752687 109.597003 281.97565 109.627408 282.198614 109.657812 282.350634 109.591936 282.431711 109.429781 282.715483 108.963585 282.923244 108.593669 283.054995 108.320032 283.186746 108.046396 283.303295 107.798096 283.404642 107.575133L283.404642 107.575133 283.951915 108.548063 283.921511 108.517659C284.205282 109.044663 284.468784 109.561532 284.712017 110.068267 284.955249 110.575001 285.076866 111.122274 285.076866 111.710086 285.076866 112.338437 284.975519 112.926249 284.772825 113.473523 284.570131 114.020796 284.316764 114.497126 284.012723 114.902514 283.708682 115.307902 283.374238 115.627144 283.009389 115.860242 282.64454 116.09334 282.299961 116.209889 281.97565 116.209889 281.712148 116.209889 281.49932 116.174418 281.337165 116.103475 281.17501 116.032532 281.043259 115.94132 280.941912 115.829838 280.840565 115.718357 280.759488 115.601808 280.698679 115.480191 280.637871 115.358575 280.587198 115.236959 280.546659 115.115342 280.445312 114.85184 280.338898 114.628877 280.227416 114.446453 280.115935 114.264028 279.898039 114.172816 279.573729 114.172816 279.411574 114.172816 279.305159 114.405914 279.254486 114.87211 279.203813 115.338306 279.279823 115.855175 279.482517 116.422718 279.68521 116.99026 280.050059 117.507129 280.577063 117.973325 281.104067 118.439521 281.854034 118.672619 282.826964 118.672619L282.826964 118.672619 283.009389 118.672619ZM313.018207 125.118282C315.045145 125.118282 317.02141 124.652086 318.947001 123.719695 320.872592 122.787303 322.691769 121.545804 324.404532 119.995196 326.117295 118.444588 327.693239 116.660883 329.132365 114.644079 330.571491 112.627276 331.807923 110.534462 332.841662 108.365639 333.8754 106.196815 334.681108 104.033058 335.258786 101.874369 335.836463 99.7156803 336.125302 97.7140789 336.125302 95.8695652 336.125302 94.5925942 335.983416 93.4220375 335.699645 92.357895 335.415873 91.2937525 334.969947 90.376563 334.361865 89.6063265 333.753784 88.83609 332.97848 88.2381433 332.035954 87.8124863 331.093428 87.3868293 329.973545 87.1740008 328.676304 87.1740008 326.243978 87.1740008 323.857259 87.4780415 321.516145 88.0861229 319.175032 88.6942044 316.965669 89.4999123 314.888058 90.5032466 312.810446 91.506581 310.900057 92.6619357 309.15689 93.9693108 307.413724 95.2766858 305.913789 96.6347343 304.657088 98.0434563 303.400386 99.4521783 302.417321 100.855833 301.707893 102.25442 300.998464 103.653008 300.64375 104.950248 300.64375 106.146141 300.64375 106.977186 300.800838 107.696749 301.115013 108.30483 301.429189 108.912912 301.814307 109.424714 302.270368 109.840236 302.726429 110.255758 303.212894 110.564866 303.729764 110.76756 304.246633 110.970254 304.707761 111.071601 305.113149 111.071601 305.538806 111.071601 305.883385 110.975321 306.146887 110.782762 306.410389 110.590203 306.54214 110.301364 306.54214 109.916246 306.54214 109.693283 306.516803 109.526061 306.46613 109.414579 306.415456 109.303097 306.36985 109.166279 306.329312 109.004124 306.248234 108.841969 306.177291 108.629141 306.116483 108.365639 306.055675 108.102137 306.025271 107.696749 306.025271 107.149476 306.025271 106.399509 306.339446 105.44178 306.967797 104.276291 307.596148 103.110802 308.457597 101.864235 309.552143 100.53659 310.64669 99.2089457 311.918593 97.8762339 313.367854 96.5384548 314.817115 95.2006756 316.367723 93.9946475 318.019677 92.9203703 319.671632 91.8460931 321.37426 90.9694424 323.127561 90.2904181 324.880863 89.6113938 326.598693 89.2718817 328.281051 89.2718817 329.476945 89.2718817 330.343461 89.7026061 330.880599 90.5640548 331.417738 91.4255034 331.686307 92.5656561 331.686307 93.9845128 331.686307 95.1804063 331.529219 96.5080507 331.215044 97.9674461 330.900869 99.4268416 330.465077 100.941978 329.907669 102.512855 329.350261 104.083732 328.686439 105.679946 327.916202 107.301496 327.145966 108.923047 326.304787 110.483789 325.392664 111.983723 324.480542 113.483657 323.517747 114.892379 322.504278 116.209889 321.490809 117.527399 320.452003 118.672619 319.38786 119.645549 318.323718 120.618479 317.259575 121.388716 316.195433 121.956259 315.13129 122.523801 314.092485 122.807573 313.079015 122.807573 312.227701 122.807573 311.614553 122.518734 311.239569 121.941056 310.864586 121.363379 310.677094 120.588075 310.677094 119.615145 310.677094 118.439521 310.900057 117.076405 311.345983 115.525797 311.79191 113.97519 312.394924 112.389111 313.155026 110.76756 313.915127 109.14601 314.796846 107.549796 315.80018 105.978919 316.803514 104.408042 317.857522 103.009455 318.962203 101.783157 320.066885 100.55686 321.186768 99.5636599 322.321853 98.8035581 323.456939 98.0434563 324.54135 97.6634054 325.575089 97.6634054 325.635897 97.6634054 325.701772 97.6684728 325.772715 97.6786075 325.843658 97.6887422 325.919668 97.6938095 326.000746 97.6938095 326.081823 97.7140789 326.157834 97.7292809 326.228776 97.7394156 326.299719 97.7495503 326.416268 97.7546176 326.578423 97.7546176 327.00408 97.7546176 327.313188 97.6380687 327.505747 97.4049708 327.698306 97.1718729 327.794586 96.8627649 327.794586 96.4776466 327.794586 96.1938753 327.723643 95.8746326 327.581758 95.5199184 327.439872 95.1652042 327.232111 94.8358268 326.958474 94.5317861 326.684837 94.2277454 326.345325 93.9693108 325.939938 93.7564823 325.53455 93.5436538 325.078489 93.4372395 324.571754 93.4372395 323.274514 93.4372395 321.916466 93.8375598 320.497609 94.6382003 319.078752 95.4388409 317.685232 96.5029834 316.317049 97.8306278 314.948866 99.1582723 313.646558 100.678476 312.410126 102.391239 311.173694 104.104001 310.089282 105.877572 309.15689 107.711951 308.224499 109.54633 307.479599 111.370574 306.922191 113.184684 306.364783 114.998793 306.086079 116.66595 306.086079 118.186154 306.086079 119.199623 306.212763 120.132014 306.46613 120.983328 306.719497 121.834642 307.124885 122.56434 307.682293 123.172421 308.239701 123.780503 308.959264 124.256833 309.840982 124.601413 310.7227 124.945992 311.781775 125.118282 313.018207 125.118282ZM339.044092 118.703023C340.158908 118.703023 341.24332 118.439521 342.297328 117.912517 343.351336 117.385513 344.35467 116.701421 345.307331 115.860242 346.259992 115.019063 347.14171 114.091739 347.952485 113.07827 348.763261 112.064801 349.487891 111.076668 350.126377 110.113873 350.764862 109.151077 351.302001 108.264292 351.737792 107.453516 352.173584 106.642741 352.492827 106.03466 352.695521 105.629272 352.877945 105.244154 352.918484 104.914776 352.817137 104.64114 352.71579 104.367503 352.553635 104.190146 352.330672 104.109069 352.107709 104.027991 351.854341 104.043193 351.57057 104.154675 351.286799 104.266156 351.043566 104.504322 350.840872 104.86917 350.678717 105.19348 350.415215 105.69008 350.050366 106.35897 349.685517 107.027859 349.239591 107.772759 348.712587 108.593669 348.185583 109.414579 347.577502 110.255758 346.888343 111.117207 346.199184 111.978656 345.459352 112.769162 344.668846 113.488725 343.87834 114.208288 343.047295 114.7961 342.175712 115.252161 341.304128 115.708222 340.402141 115.936252 339.469749 115.936252 339.104901 115.936252 338.841399 115.789299 338.679244 115.495393 338.517089 115.201487 338.436011 114.821436 338.436011 114.355241 338.436011 113.70662 338.542425 112.961721 338.755254 112.120541 338.968082 111.279362 339.261988 110.417913 339.636972 109.536195 340.011955 108.654477 340.437612 107.782894 340.913943 106.921445 341.390273 106.059996 341.886873 105.294827 342.403742 104.625938 342.920612 103.957048 343.447615 103.41991 343.984754 103.014522 344.521893 102.609134 345.02356 102.406441 345.489756 102.406441 345.570833 102.406441 345.621507 102.472316 345.641776 102.604067 345.662045 102.735818 345.67218 102.90304 345.67218 103.105734 345.67218 103.409775 345.641776 103.739152 345.580968 104.093867 345.52016 104.448581 345.449217 104.777958 345.368139 105.081999 345.287062 105.446848 345.19585 105.791427 345.094503 106.115737L345.094503 106.115737 345.094503 106.085333C345.033695 106.247488 345.084368 106.389374 345.246523 106.51099 345.408678 106.632607 345.611372 106.718751 345.854604 106.769425 346.097837 106.820098 346.330935 106.825166 346.553898 106.784627 346.776861 106.744088 346.918747 106.642741 346.979555 106.480586L346.979555 106.480586 346.979555 106.450182C346.979555 106.429913 346.984622 106.419778 346.994757 106.419778 347.004892 106.419778 347.009959 106.409643 347.009959 106.389374 347.091037 106.105603 347.21772 105.664744 347.39001 105.066797 347.5623 104.46885 347.648445 103.845567 347.648445 103.196946 347.648445 102.446979 347.471088 101.798359 347.116373 101.251086 346.761659 100.703813 346.087702 100.430176 345.094503 100.430176 343.635107 100.430176 342.195981 100.769688 340.777125 101.448712 339.358268 102.127737 338.086364 103.019589 336.961414 104.124271 335.836463 105.228952 334.929408 106.475519 334.240249 107.863971 333.55109 109.252424 333.206511 110.656079 333.206511 112.074935 333.206511 112.784364 333.32306 113.524196 333.556158 114.294433 333.789255 115.064669 334.149037 115.779165 334.635502 116.43792 335.121967 117.096674 335.730049 117.63888 336.459746 118.064537 337.189444 118.490194 338.050893 118.703023 339.044092 118.703023ZM350.415215 118.703023C351.307068 118.703023 352.203988 118.439521 353.105976 117.912517 354.007963 117.385513 354.884614 116.706489 355.735928 115.875444 356.587242 115.0444 357.398017 114.12721 358.168253 113.123876 358.93849 112.120541 359.637784 111.132409 360.266134 110.159479 360.894485 109.186549 361.426556 108.299763 361.862348 107.499123 362.29814 106.698482 362.617383 106.095468 362.820076 105.69008 362.880884 105.527925 362.835278 105.370838 362.683258 105.218817 362.531238 105.066797 362.338679 104.945181 362.105581 104.853968 361.872483 104.762756 361.644452 104.71715 361.421489 104.71715 361.198526 104.71715 361.046506 104.788093 360.965428 104.929979 360.803273 105.254289 360.529636 105.755956 360.144518 106.43498 359.7594 107.114004 359.298271 107.869039 358.761133 108.700083 358.223994 109.531128 357.626047 110.387509 356.967293 111.269227 356.308538 112.150945 355.644715 112.956653 354.975826 113.686351 354.306936 114.416049 353.643114 115.013996 352.984359 115.480191 352.325604 115.946387 351.712456 116.179485 351.144913 116.179485 350.840872 116.179485 350.688852 115.936252 350.688852 115.449787 350.688852 114.902514 350.82567 114.193086 351.099307 113.321502 351.372943 112.449919 351.727658 111.487123 352.163449 110.433115 352.599241 109.379108 353.090773 108.259224 353.638047 107.073466 354.18532 105.887707 354.732593 104.71715 355.279867 103.561795 355.48256 103.156408 355.680187 102.75102 355.872746 102.345632 356.065305 101.940245 356.252797 101.534857 356.435221 101.12947 357.935156 101.12947 359.232396 101.017988 360.326942 100.795025 361.421489 100.572062 362.318409 100.313627 363.017703 100.019721 363.716996 99.7258149 364.233866 99.4268416 364.56831 99.1228009 364.902755 98.8187601 365.069978 98.5856623 365.069978 98.4235072 365.069978 98.038389 364.887553 97.8306278 364.522704 97.8002238 364.157855 97.7698197 363.651121 97.8356952 363.002501 97.9978502L363.002501 97.9978502 363.032905 97.9674461C362.445093 98.1296012 361.679924 98.2917562 360.737397 98.4539113 359.794871 98.6160663 358.725661 98.7174132 357.529768 98.757952 357.995964 97.7242136 358.36588 96.8070241 358.639517 96.0063835 358.913153 95.205743 359.049971 94.5723248 359.049971 94.1061291 359.049971 93.6804721 358.847278 93.2548151 358.44189 92.8291581 358.036502 92.4035011 357.585509 92.0589216 357.088909 91.7954196 356.592309 91.5319177 356.141315 91.3798973 355.735928 91.3393586 355.33054 91.2988198 355.127846 91.4407055 355.127846 91.7650156 355.127846 92.2717501 354.889681 93.1382661 354.413351 94.3645637 353.93702 95.5908612 353.334006 96.9945159 352.604308 98.5755276 351.611109 98.4741807 350.74966 98.3576317 350.019962 98.2258808 349.290265 98.0941298 348.692318 97.9775808 348.226122 97.8762339 347.820734 97.7951564 347.476155 97.7242136 347.192384 97.6634054 346.908612 97.6025973 346.675514 97.5873953 346.49309 97.6177993 346.310666 97.6482034 346.173847 97.7292809 346.082635 97.8610319 345.991423 97.9927829 345.945817 98.200544 345.945817 98.4843154 345.945817 98.6059316 346.0725 98.773154 346.325868 98.9859825 346.579235 99.198811 346.944084 99.4167069 347.420414 99.6396701 347.896745 99.8626333 348.484557 100.080529 349.18385 100.293358 349.883144 100.506186 350.678717 100.683543 351.57057 100.825429L351.57057 100.825429 350.932084 102.193612C350.364542 103.409775 349.802066 104.62087 349.244658 105.826899 348.68725 107.032927 348.190651 108.162945 347.754859 109.216953 347.319067 110.27096 346.96942 111.208419 346.705918 112.029329 346.442417 112.850239 346.310666 113.483657 346.310666 113.929584 346.310666 114.69982 346.452551 115.378844 346.736323 115.966656 347.020094 116.554468 347.374808 117.051068 347.800465 117.456456 348.226122 117.861844 348.677116 118.170952 349.153446 118.38378 349.629777 118.596609 350.050366 118.703023 350.415215 118.703023ZM363.063309 118.703023C364.299741 118.703023 365.495635 118.297635 366.650989 117.48686 367.806344 116.676085 368.840082 115.632212 369.752205 114.355241 370.603519 114.233624 371.404159 113.97519 372.154126 113.579937 372.904093 113.184684 373.59832 112.718488 374.236805 112.18135 374.875291 111.644211 375.463103 111.066534 376.000241 110.448317 376.53738 109.830101 377.008643 109.227087 377.414031 108.639275 377.819418 108.051463 378.15893 107.514325 378.432567 107.027859 378.706204 106.541394 378.913965 106.156276 379.05585 105.872505 379.136928 105.69008 379.106524 105.507656 378.964638 105.325231 378.822753 105.142807 378.645396 104.990787 378.432567 104.86917 378.219739 104.747554 377.996775 104.686746 377.763677 104.686746 377.53058 104.686746 377.373492 104.777958 377.292414 104.960383 377.130259 105.264423 376.866757 105.71035 376.501908 106.298162 376.13706 106.885974 375.691133 107.50419 375.164129 108.15281 374.637125 108.80143 374.044246 109.439916 373.385491 110.068267 372.726736 110.696617 372.03251 111.213487 371.302812 111.618874 372.498706 109.186549 373.096652 106.642741 373.096652 103.987452 373.096652 103.480718 373.040912 103.009455 372.92943 102.573663 372.817948 102.137871 372.615255 101.762888 372.321349 101.448712 372.027443 101.134537 371.63219 100.891304 371.13559 100.719015 370.63899 100.546725 370.005572 100.46058 369.235335 100.46058 368.708332 100.46058 368.191462 100.55686 367.684728 100.749419 367.177993 100.941978 366.686461 101.195345 366.21013 101.50952 365.7338 101.823696 365.287873 102.193612 364.872351 102.619269 364.456829 103.044926 364.066643 103.500987 363.701794 103.987452 363.478831 103.926644 363.245733 103.875971 363.002501 103.835432 362.759268 103.794893 362.536305 103.774624 362.333611 103.774624 362.04984 103.774624 361.64952 104.04826 361.13265 104.595534 360.615781 105.142807 360.109047 105.842101 359.612447 106.693415 359.115847 107.544729 358.680055 108.482188 358.305072 109.505791 357.930088 110.529395 357.742596 111.527662 357.742596 112.500592 357.742596 113.534331 357.894617 114.436318 358.198657 115.206555 358.502698 115.976791 358.903018 116.620344 359.399618 117.137213 359.896218 117.654082 360.463761 118.044268 361.102246 118.30777 361.740732 118.571272 362.394419 118.703023 363.063309 118.703023ZM368.232001 112.40938C367.644189 112.328303 367.238801 112.125609 367.015838 111.801299 366.792875 111.476989 366.681393 111.081736 366.681393 110.61554 366.681393 109.885842 366.843548 109.085202 367.167859 108.213618 367.492169 107.342035 367.87222 106.521125 368.308011 105.750888 368.743803 104.980652 369.174527 104.337099 369.600184 103.82023 370.025841 103.303361 370.340017 103.044926 370.54271 103.044926 370.745404 103.044926 370.846751 103.450314 370.846751 104.261089 370.846751 104.747554 370.785943 105.320164 370.664327 105.978919 370.54271 106.637674 370.370421 107.326833 370.147458 108.046396 369.924494 108.765959 369.650858 109.500724 369.326548 110.250691 369.002238 111.000658 368.637389 111.720221 368.232001 112.40938ZM363.154521 116.361909C362.749134 116.361909 362.465362 116.26563 362.303207 116.073071 362.141052 115.880512 362.059975 115.611942 362.059975 115.267363 362.059975 114.821436 362.146119 114.304567 362.318409 113.716755 362.490699 113.128943 362.708595 112.520862 362.972097 111.892511 363.458562 112.439784 364.041307 112.921182 364.720331 113.336704 365.399355 113.752227 366.123985 114.061335 366.894222 114.264028 366.346949 114.912649 365.764204 115.42445 365.145988 115.799434 364.527772 116.174418 363.863949 116.361909 363.154521 116.361909ZM377.383627 118.672619C377.971439 118.672619 378.609924 118.591541 379.299083 118.429386 380.353091 118.105076 381.346291 117.618611 382.278682 116.969991 383.211074 116.321371 384.082657 115.586606 384.893432 114.765696 385.704207 113.944786 386.438972 113.07827 387.097727 112.166148 387.756482 111.254025 388.339227 110.377375 388.845961 109.536195 389.352696 108.695016 389.778353 107.934914 390.122932 107.25589 390.467512 106.576866 390.731014 106.054929 390.913438 105.69008 390.974246 105.527925 390.92864 105.370838 390.77662 105.218817 390.6246 105.066797 390.437108 104.945181 390.214145 104.853968 389.991182 104.762756 389.768218 104.71715 389.545255 104.71715 389.322292 104.71715 389.170272 104.798228 389.089194 104.960383L389.089194 104.960383 389.119598 104.929979 388.815557 105.568464C388.633133 105.953582 388.394968 106.429913 388.101062 106.997455 387.807156 107.564998 387.472711 108.178147 387.097727 108.836902 386.722744 109.495657 386.297087 110.174681 385.820756 110.873974 385.344426 111.573268 384.822489 112.23709 384.254947 112.865441 384.254947 112.703286 384.260014 112.520862 384.270149 112.318168 384.280283 112.115474 384.285351 111.93305 384.285351 111.770895 384.285351 110.93985 384.158667 110.205085 383.9053 109.566599 383.651933 108.928114 383.352959 108.314965 383.00838 107.727153L383.00838 107.727153 383.00838 107.757557C382.724608 107.190014 382.456039 106.622472 382.202672 106.054929 381.949305 105.487386 381.822621 104.848901 381.822621 104.139473 381.822621 103.531391 381.979709 103.014522 382.293884 102.588865 382.608059 102.163208 382.927302 101.798359 383.251612 101.494318 383.535384 101.210547 383.778616 100.931843 383.98131 100.658206 384.184004 100.38457 384.285351 100.075462 384.285351 99.7308823 384.285351 99.3254947 384.178937 99.0011846 383.966108 98.757952 383.75328 98.5147194 383.494845 98.3272277 383.190804 98.1954767 382.886763 98.0637257 382.572588 97.9775808 382.248278 97.9370421 381.923968 97.8965033 381.660466 97.8762339 381.457772 97.8762339 381.072654 97.8762339 380.616593 98.0181196 380.089589 98.3018909 379.562585 98.5856623 379.05585 98.9910499 378.569385 99.5180538 378.08292 100.045058 377.672465 100.678476 377.33802 101.418308 377.003576 102.158141 376.836353 102.973983 376.836353 103.865836 376.836353 104.149607 376.866757 104.473917 376.927565 104.838766L376.927565 104.838766 376.684333 105.355636 376.714737 105.325231C376.633659 105.507656 376.552582 105.695148 376.471504 105.887707 376.390427 106.080266 376.28908 106.298162 376.167464 106.541394 376.045847 106.784627 375.893827 107.068398 375.711403 107.392708 375.528978 107.717018 375.31615 108.102137 375.072917 108.548063 374.99184 108.689949 375.022244 108.841969 375.164129 109.004124 375.306015 109.166279 375.483372 109.303097 375.696201 109.414579 375.909029 109.526061 376.126925 109.597003 376.349888 109.627408 376.572851 109.657812 376.724872 109.591936 376.805949 109.429781 377.089721 108.963585 377.297482 108.593669 377.429233 108.320032 377.560984 108.046396 377.677533 107.798096 377.778879 107.575133L377.778879 107.575133 378.326153 108.548063 378.295749 108.517659C378.57952 109.044663 378.843022 109.561532 379.086255 110.068267 379.329487 110.575001 379.451103 111.122274 379.451103 111.710086 379.451103 112.338437 379.349757 112.926249 379.147063 113.473523 378.944369 114.020796 378.691002 114.497126 378.386961 114.902514 378.08292 115.307902 377.748475 115.627144 377.383627 115.860242 377.018778 116.09334 376.674198 116.209889 376.349888 116.209889 376.086386 116.209889 375.873558 116.174418 375.711403 116.103475 375.549248 116.032532 375.417497 115.94132 375.31615 115.829838 375.214803 115.718357 375.133725 115.601808 375.072917 115.480191 375.012109 115.358575 374.961436 115.236959 374.920897 115.115342 374.81955 114.85184 374.713136 114.628877 374.601654 114.446453 374.490172 114.264028 374.272277 114.172816 373.947966 114.172816 373.785811 114.172816 373.679397 114.405914 373.628724 114.87211 373.57805 115.338306 373.65406 115.855175 373.856754 116.422718 374.059448 116.99026 374.424297 117.507129 374.951301 117.973325 375.478305 118.439521 376.228272 118.672619 377.201202 118.672619L377.201202 118.672619 377.383627 118.672619Z"/></g></svg>