<svg xmlns="http://www.w3.org/2000/svg" width="75" height="125" viewBox="0 0 75 125" fill="none"><g clip-path="url(#clip0)"><path d="M21.8447 33.54H37.3331c3.7674.0 8.7364.0 11.3023 1.5527C51.4494 36.7612 53.6587 39.797 53.6587 43.976c0 4.5267-2.38760000000001 7.9255-6.3411 9.5322V53.6318c5.2636 1.0737 8.1318 5.0056 8.1318 10.2506C55.4494 70.1393 50.961 76.1028 42.4726 76.1028H21.8447V33.54zm5.6744 18.292H38.8912c6.4574.0 9.0931-2.3251 9.0931-6.7977.0-5.9016-4.1861-6.7359-9.0931-6.7359H27.5191V51.832zm0 19.4892H41.7595c4.8992.0 8.0155-2.9817 8.0155-7.6242.0-5.5463-4.4884-7.0912-9.2714-7.0912H27.5191V71.3212z" fill="#000"/><path d="M69.9842 54.8296c0 17.8748-14.5426 32.3662-32.4884 32.3662-17.938.0-32.48061-14.4914-32.48061-32.3662.0-17.8748 14.54261-32.3662 32.48061-32.3662C55.4416 22.4711 69.9842 36.9548 69.9842 54.8296zM37.4958 17.5273C16.8369 17.5273.0849609 34.2203.0849609 54.8064.0849609 75.3926 16.8369 92.0855 37.4958 92.0855c20.6667.0 37.4186-16.6929 37.4186-37.2791.0-20.5861-16.7519-37.2791-37.4186-37.2791z" fill="#000"/><path d="M74.8375 99.957H.163086v4.89H74.8375v-4.89z" fill="#000"/><path d="M72.5041 94.5731C72.5971 94.5731 72.6824 94.5654 72.7677 94.5654 72.8452 94.5577 72.9227 94.5422 72.9847 94.5191 73.0545 94.4882 73.101 94.4418 73.1398 94.3877 73.1785 94.3259 73.194 94.2487 73.194 94.1483 73.194 94.0633 73.1785 93.9861 73.1475 93.9397 73.1165 93.8856 73.07 93.847 73.0157 93.8238 72.9615 93.7929 72.9072 93.7775 72.8297 93.762 72.7599 93.7543 72.6979 93.7543 72.6204 93.7543H72.0855V94.5809H72.5041V94.5731zM72.6824 93.4222C72.9925 93.4222 73.2173 93.484 73.3723 93.6076 73.5196 93.7311 73.5971 93.9165 73.5971 94.1715 73.5971 94.4109 73.5274 94.5731 73.4033 94.689 73.2715 94.7971 73.1088 94.8589 72.9072 94.8821L73.6514 96.0254H73.2173L72.5041 94.9053H72.0777V96.0254H71.6669V93.4299h1.0155V93.4222zm-1.8372 2.0393C70.9305 95.6932 71.0622 95.9018 71.2328 96.0717 71.3956 96.2417 71.5894 96.373 71.8142 96.4734 72.0312 96.5661 72.2793 96.6124 72.5351 96.6124 72.7987 96.6124 73.039 96.5661 73.256 96.4734 73.4808 96.373 73.6746 96.2417 73.8374 96.0717 74.0002 95.9018 74.132 95.7009 74.2173 95.4615 74.3103 95.2297 74.3646 94.9825 74.3646 94.7122 74.3646 94.4418 74.3181 94.1946 74.2173 93.9629 74.1243 93.7311 73.9925 93.5303 73.8374 93.3604 73.6669 93.1904 73.4731 93.0591 73.256 92.9664 73.039 92.8737 72.7909 92.8196 72.5351 92.8196S72.0312 92.8737 71.8142 92.9664C71.5894 93.0668 71.3878 93.1981 71.2328 93.3604 71.0622 93.5303 70.9382 93.7311 70.8452 93.9629 70.7522 94.1946 70.7056 94.4341 70.7056 94.7122 70.7056 94.9825 70.7522 95.2375 70.8452 95.4615zM70.4808 93.8316C70.5971 93.5612 70.7599 93.3372 70.9615 93.1363 71.163 92.9355 71.4033 92.7887 71.6746 92.6729 71.946 92.557 72.2405 92.5029 72.5351 92.5029 72.8452 92.5029 73.132 92.557 73.4111 92.6729 73.6746 92.7887 73.915 92.9355 74.1088 93.1363 74.3103 93.3372 74.4809 93.5689 74.5894 93.8316 74.7134 94.1019 74.7677 94.3955 74.7677 94.7122S74.7134 95.3224 74.5894 95.5928C74.4731 95.8709 74.3103 96.1026 74.1088 96.3034 73.9072 96.512 73.6746 96.6588 73.4111 96.7747 73.132 96.8828 72.8452 96.9369 72.5351 96.9369 72.2328 96.9369 71.946 96.8828 71.6746 96.7747 71.4033 96.6588 71.163 96.512 70.9615 96.3034 70.7599 96.1026 70.5971 95.8709 70.4808 95.5928 70.3568 95.3224 70.3103 95.0289 70.3103 94.7122 70.3025 94.4032 70.3568 94.1019 70.4808 93.8316z" fill="#000"/><path d="M9.1938 114.888C9.0155 114.61 8.79845 114.363 8.53488 114.147 8.27132 113.931 7.97674 113.768 7.64341 113.652 7.31008 113.537 6.96124 113.475 6.5969 113.475c-.66667.0-1.23256.131-1.68992.38600000000001C4.44186 114.116 4.06977 114.464 3.77519 114.888 3.48837 115.321 3.27907 115.808 3.14729 116.356 3.0155 116.905 2.95349 117.476 2.95349 118.063 2.95349 118.627 3.0155 119.176 3.14729 119.701 3.27907 120.234 3.48837 120.713 3.77519 121.138 4.06202 121.563 4.44186 121.902 4.90698 122.157c.46511.25500000000001 1.031.387 1.68992.387C7.49612 122.544 8.20155 122.265 8.71318 121.717S9.53488 120.442 9.64341 119.546H12.5039C12.4264 120.381 12.2326 121.138 11.9225 121.817 11.6124 122.489 11.1938 123.069 10.6822 123.54 10.1705 124.019 9.56589 124.374 8.87597 124.629 8.18605 124.876 7.42636 125.008 6.5969 125.008 5.56589 125.008 4.64341 124.83 3.82171 124.475 3 124.119 2.31008 123.625 1.74419 123.007 1.17829 122.381.744186 121.647.449612 120.805.147287 119.948.0 119.037.0 118.063.0 117.067.147287 116.132.449612 115.282.751938 114.425 1.18605 113.683 1.74419 113.042 2.31008 112.409 3 111.907 3.82171 111.544 4.64341 111.181 5.56589 111.003 6.5969 111.003 7.33333 111.003 8.03876 111.111 8.69767 111.32 9.35659 111.536 9.94574 111.845 10.4651 112.247 10.9845 112.656 11.4186 113.158 11.7519 113.753 12.093 114.355 12.3023 115.043 12.3876 115.815H9.53488C9.48837 115.475 9.37209 115.167 9.1938 114.888z" fill="#000"/><path d="M16.8988 122.373C17.3019 122.759 17.8756 122.953 18.6275 122.953 19.1701 122.953 19.6275 122.821 20.0229 122.551 20.4105 122.281 20.6508 121.995 20.736 121.701h2.3489C22.705 122.86 22.1314 123.694 21.3562 124.196 20.581 124.698 19.6353 124.946 18.5345 124.946 17.767 124.946 17.0771 124.822 16.4647 124.582 15.8523 124.335 15.3329 123.995 14.9066 123.54 14.4802 123.092 14.1546 122.551 13.9221 121.925c-.2326-.625-.3489-1.313-.3489-2.062C13.5732 119.137 13.6895 118.465 13.9298 117.839S14.5035 116.672 14.9453 116.217C15.3872 115.761 15.9066 115.398 16.519 115.143 17.1236 114.88 17.798 114.749 18.5422 114.749 19.3717 114.749 20.0926 114.911 20.705 115.228 21.3174 115.545 21.8213 115.977 22.2167 116.51 22.612 117.051 22.8988 117.661 23.0694 118.349 23.2477 119.036 23.3097 119.755 23.2554 120.504H16.2399C16.2787 121.361 16.5035 121.987 16.8988 122.373zm3.0233-5.098C19.6043 116.927 19.1159 116.75 18.4647 116.75 18.0384 116.75 17.6818 116.819 17.4027 116.966 17.1236 117.113 16.8911 117.29 16.7283 117.499 16.5577 117.715 16.4415 117.939 16.3717 118.171 16.3019 118.41 16.2632 118.619 16.2477 118.804h4.341C20.4647 118.14 20.2399 117.623 19.9221 117.275z" fill="#000"/><path d="M26.9997 115.012v1.8H27.0385C27.1625 116.51 27.3331 116.232 27.5501 115.977 27.7594 115.722 28.0075 115.506 28.2865 115.321 28.5656 115.143 28.8602 114.996 29.1703 114.896 29.4803 114.795 29.8059 114.749 30.147 114.749 30.3253 114.749 30.5191 114.78 30.7284 114.842V117.314C30.6044 117.29 30.4493 117.267 30.2788 117.252 30.1005 117.236 29.9377 117.221 29.7749 117.221 29.2865 117.221 28.8757 117.306 28.5346 117.468 28.1935 117.63 27.9222 117.854 27.7129 118.132 27.5036 118.41 27.3563 118.743 27.271 119.113 27.1858 119.492 27.1393 119.894 27.1393 120.334V124.698H24.4648V115.012h2.5349z" fill="#000"/><path d="M37.7988 115.012V116.796H35.8454v4.797C35.8454 122.041 35.9229 122.343 36.0702 122.489 36.2174 122.636 36.5198 122.713 36.9694 122.713 37.1167 122.713 37.264 122.706 37.4035 122.698 37.543 122.682 37.6748 122.667 37.7988 122.644v2.062C37.574 124.745 37.3182 124.768 37.0469 124.784 36.7678 124.799 36.5043 124.799 36.2407 124.799 35.8299 124.799 35.4345 124.768 35.0624 124.714 34.6903 124.66 34.3647 124.552 34.0857 124.39 33.8066 124.227 33.5818 123.996 33.419 123.694 33.2562 123.393 33.1709 122.999 33.1709 122.512V116.796H31.5508V115.012h1.6201v-2.905H35.8454v2.905h1.9534z" fill="#000"/><path d="M39.2167 113.505v-2.193H41.8912v2.193H39.2167zM41.8834 115.012V124.698H39.209V115.012h2.6744z" fill="#000"/><path d="M43.1865 116.788V115.004h1.5969V114.255C44.7834 113.389 45.0547 112.687 45.5896 112.138 46.1323 111.59 46.9462 111.312 48.0315 111.312 48.2718 111.312 48.5044 111.319 48.7447 111.342 48.985 111.358 49.2175 111.373 49.4423 111.389v1.985C49.1323 113.335 48.8067 113.32 48.4656 113.32 48.1013 113.32 47.8377 113.405 47.6826 113.575 47.5276 113.745 47.4501 114.031 47.4501 114.425V115.004h1.845V116.788h-1.845v7.91H44.7757v-7.91H43.1865zm7.7287-3.283v-2.193h2.6744v2.193H50.9152zM53.5896 115.012V124.698H50.9152V115.012h2.6744z" fill="#000"/><path d="M58.225 122.373C58.6281 122.759 59.2017 122.953 59.9537 122.953 60.4963 122.953 60.9537 122.821 61.349 122.551 61.7366 122.281 61.9769 121.995 62.0622 121.701H64.411C64.0312 122.86 63.4576 123.694 62.6824 124.196s-1.721.75-2.8217.75C59.0932 124.946 58.4033 124.822 57.7909 124.582 57.1785 124.335 56.6591 123.995 56.2327 123.54 55.8064 123.092 55.4731 122.551 55.2482 121.925 55.0157 121.3 54.8994 120.612 54.8994 119.863 54.8994 119.137 55.0157 118.465 55.256 117.839S55.8296 116.672 56.2715 116.217C56.7134 115.761 57.2328 115.398 57.8452 115.143 58.4498 114.88 59.1242 114.749 59.8684 114.749 60.6979 114.749 61.4188 114.911 62.0312 115.228 62.6436 115.545 63.1475 115.977 63.5428 116.51 63.9382 117.051 64.225 117.661 64.3955 118.349 64.5738 119.036 64.6358 119.755 64.5816 120.504H57.5661C57.6048 121.361 57.8219 121.987 58.225 122.373zm3.0155-5.098C60.9227 116.927 60.4343 116.75 59.7831 116.75 59.3568 116.75 59.0002 116.819 58.7211 116.966 58.4421 117.113 58.2172 117.29 58.0467 117.499 57.8762 117.715 57.7599 117.939 57.6901 118.171 57.6203 118.41 57.5816 118.619 57.5661 118.804h4.3411C61.7831 118.14 61.5583 117.623 61.2405 117.275z" fill="#000"/><path d="M68.6283 122.373C69.0314 122.759 69.6051 122.953 70.357 122.953 70.8996 122.953 71.357 122.821 71.7524 122.551 72.1399 122.281 72.3803 121.995 72.4655 121.701h2.3489C74.4345 122.86 73.8609 123.694 73.0857 124.196S71.3648 124.946 70.264 124.946C69.4965 124.946 68.8066 124.822 68.1942 124.582 67.5818 124.335 67.0624 123.995 66.6361 123.54 66.2097 123.092 65.8764 122.551 65.6516 121.925 65.419 121.3 65.3027 120.612 65.3027 119.863 65.3027 119.137 65.419 118.465 65.6593 117.839S66.233 116.672 66.6748 116.217C67.1167 115.761 67.6361 115.398 68.2485 115.143 68.8531 114.88 69.5275 114.749 70.2717 114.749 71.1012 114.749 71.8221 114.911 72.4345 115.228 73.0469 115.545 73.5508 115.977 73.9462 116.51 74.3415 117.051 74.6283 117.661 74.7989 118.349 74.9772 119.036 75.0392 119.755 74.9849 120.504H67.9694C68.0082 121.361 68.2252 121.987 68.6283 122.373zm3.0155-5.098C71.326 116.927 70.8376 116.75 70.1865 116.75 69.7601 116.75 69.4035 116.819 69.1244 116.966 68.8454 117.113 68.6206 117.29 68.45 117.499 68.2795 117.715 68.1632 117.939 68.0934 118.171 68.0237 118.41 67.9849 118.619 67.9694 118.804H72.3105C72.1865 118.14 71.9694 117.623 71.6438 117.275z" fill="#000"/><path d="M58.8447 113.606 60.8835 110.602h3.3411L60.9532 113.606H58.8447z" fill="#000"/><path d="M8.4189.0V2.03158H2.58944V4.38759H7.93828V6.26468H2.58944V8.96057H8.54293V10.9922H.163086V0H8.4189z" fill="#000"/><path d="M12.0394 3.03563V4.14797h.0465c.2791-.46348.6357-.79563 1.0853-1.01192C13.6131 2.92748 14.0704 2.81934 14.5356 2.81934c.5891.0 1.0697.0772400000000002 1.4418.23946C16.3573 3.22102 16.6518 3.43731 16.8689 3.72312c.216999999999999.28581.3721.62569.4574 1.0351C17.4115 5.16762 17.458 5.61565 17.458 6.1023v4.8974H15.2642V6.50399C15.2642 5.84739 15.1635 5.35301 14.9542 5.0363 14.7449 4.71187 14.3805 4.54965 13.8534 4.54965c-.5969.0-1.031.17767-1.2946.533-.2713.35534-.4031.93468-.4031 1.74577V10.9997H9.96191V3.03563H12.0394z" fill="#000"/><path d="M23.5039 3.03535V4.4953H21.8992V8.44259C21.8992 8.81337 21.9612 9.06056 22.0852 9.18416 22.2093 9.30775 22.4573 9.36955 22.8294 9.36955 22.9535 9.36955 23.0697 9.36182 23.186 9.3541 23.3023 9.34637 23.4108 9.33092 23.5116 9.30775V10.9994C23.3256 11.0303 23.1163 11.0535 22.8915 11.0612 22.6666 11.069 22.4418 11.0767 22.2248 11.0767 21.8837 11.0767 21.5659 11.0535 21.2558 11.0072 20.9535 10.9608 20.6821 10.8681 20.4496 10.7368 20.217 10.6055 20.031 10.4124 19.8992 10.1652 19.7674 9.918 19.6977 9.59356 19.6977 9.19188V4.4953H18.3721V3.03535h1.3256V.648438h2.1938V3.03535h1.6124z" fill="#000"/><path d="M33.1867 9.09174C33.52 9.40845 33.9929 9.57066 34.6053 9.57066 35.0472 9.57066 35.427 9.46252 35.7526 9.23851 36.0704 9.01449 36.2642 8.78275 36.3417 8.53556H38.272C37.9619 9.49342 37.489 10.1732 36.8534 10.5826c-.6357.409400000000002-1.4109.618-2.3179.618C33.9076 11.2006 33.3417 11.1001 32.8379 10.8993 32.334 10.6985 31.9076 10.4127 31.5588 10.0419 31.2099 9.67109 30.9386 9.23078 30.7448 8.71323 30.551 8.2034 30.458 7.63178 30.458 7.02154 30.458 6.42674 30.5588 5.87057 30.7526 5.36074S31.2254 4.40289 31.5898 4.0321C31.9541 3.6536 32.3805 3.36006 32.8844 3.14377 33.3805 2.92748 33.9386 2.81934 34.5433 2.81934c.682199999999995.0 1.2713.13131 1.7752.39395C36.8223 3.47593 37.241 3.82354 37.5665 4.27157 37.8921 4.71187 38.1247 5.21397 38.272 5.77787 38.4192 6.34177 38.4658 6.93657 38.427 7.54681H32.6596C32.6751 8.25748 32.8534 8.7673 33.1867 9.09174zm2.4806-4.19448C35.4037 4.61145 35.0084 4.46468 34.4658 4.46468 34.1169 4.46468 33.8224 4.52648 33.5898 4.64235 33.3572 4.75822 33.1712 4.90499 33.0317 5.08265 32.8921 5.26032 32.7913 5.44571 32.7371 5.63883 32.6828 5.83194 32.6441 6.00961 32.6363 6.1641h3.5736C36.1092 5.60793 35.9309 5.18307 35.6673 4.89726z" fill="#000"/><path d="M27.1009 3.03563V4.51875H27.1319C27.2327 4.27157 27.3722 4.03983 27.5505 3.83126 27.7288 3.6227 27.9304 3.44503 28.1552 3.29054 28.38 3.14377 28.6203 3.0279 28.8838 2.94293 29.1397 2.85796 29.411 2.81934 29.69 2.81934 29.8373 2.81934 29.9924 2.84251 30.1707 2.89658V4.92816C30.0699 4.90499 29.9459 4.88954 29.7986 4.87409 29.6513 4.85864 29.5117 4.85091 29.38 4.85091 28.9769 4.85091 28.6358 4.92044 28.3567 5.05175 28.0776 5.18307 27.8528 5.36846 27.6823 5.6002 27.5117 5.83194 27.3877 6.1023 27.318 6.41129 27.2482 6.72027 27.2094 7.05243 27.2094 7.41549V11.0074H25.0156V3.03563h2.0853z" fill="#000"/><path d="M41.5277 3.03563V4.05528H41.5587C41.83 3.6227 42.1634 3.31371 42.582 3.11287 42.9928 2.91976 43.4502 2.81934 43.9463 2.81934c.627899999999997.0 1.1706.11587 1.6202.35533C46.0161 3.41413 46.3959 3.72312 46.6983 4.11707 47.0006 4.50331 47.2176 4.95906 47.3649 5.47661S47.582 6.53488 47.582 7.09878C47.582 7.63178 47.5122 8.14933 47.3649 8.63598 47.2176 9.13036 47.0006 9.56294 46.706 9.94917 46.4114 10.3277 46.0471 10.6289 45.6052 10.8607 45.1634 11.0847 44.6517 11.2006 44.0703 11.2006 43.5742 11.2006 43.1169 11.1001 42.706 10.8993 42.2874 10.6985 41.9463 10.4049 41.675 10.011H41.644v3.7773H39.4502V3.03563h2.0775zm2.8527 6.31102C44.6207 9.19988 44.8223 9.01449 44.9696 8.78275S45.2254 8.28065 45.2874 7.97167C45.3494 7.66268 45.3804 7.35369 45.3804 7.02926 45.3804 6.71255 45.3494 6.39584 45.2797 6.08686 45.2099 5.77787 45.1014 5.50751 44.9463 5.26032 44.7913 5.02086 44.5897 4.82774 44.3494 4.67325 44.1091 4.52648 43.8145 4.44923 43.4579 4.44923 43.0936 4.44923 42.799 4.52648 42.551 4.67325 42.3107 4.82002 42.1091 5.01313 41.9618 5.2526 41.8145 5.49206 41.706 5.76242 41.644 6.07141 41.582 6.38039 41.551 6.6971 41.551 7.02926 41.551 7.34597 41.582 7.66268 41.6517 7.97167 41.7215 8.28065 41.83 8.55101 41.9773 8.78275S42.3262 9.19988 42.5742 9.34665C42.8223 9.49342 43.1169 9.56294 43.4735 9.56294 43.8378 9.56294 44.1401 9.49342 44.3804 9.34665z" fill="#000"/><path d="M50.9769 3.03563V4.51875H51.0079C51.1087 4.27157 51.2482 4.03983 51.4265 3.83126 51.6048 3.6227 51.8063 3.44503 52.0311 3.29054 52.2559 3.14377 52.4963 3.0279 52.7598 2.94293 53.0156 2.85796 53.287 2.81934 53.566 2.81934 53.7133 2.81934 53.8683 2.84251 54.0466 2.89658V4.92816C53.9459 4.90499 53.8218 4.88954 53.6745 4.87409 53.5273 4.85864 53.3877 4.85091 53.2559 4.85091 52.8528 4.85091 52.5118 4.92044 52.2327 5.05175 51.9536 5.18307 51.7288 5.36846 51.5583 5.6002 51.3877 5.83194 51.2637 6.1023 51.1939 6.41129 51.1242 6.72027 51.0854 7.05243 51.0854 7.41549V11.0074H48.8916V3.03563h2.0853z" fill="#000"/><path d="M54.9619 1.79984V0h2.1938V1.79984H54.9619zm2.2016 1.23594V10.9999H54.9619V3.03578h2.2016z" fill="#000"/><path d="M60.7363 9.02204C60.8371 9.19198 60.9611 9.33103 61.1162 9.43917 61.2712 9.54731 61.4495 9.62456 61.6511 9.67863 61.8526 9.73271 62.0619 9.75588 62.279 9.75588 62.434 9.75588 62.5968 9.74043 62.7674 9.70181 62.9379 9.66318 63.0929 9.60911 63.2325 9.53187 63.372 9.45462 63.4883 9.3542 63.5813 9.22288 63.6743 9.09156 63.7208 8.92934 63.7208 8.73623 63.7208 8.40407 63.5038 8.16461 63.0619 7.99466 62.6201 7.83245 62.0154 7.6625 61.2325 7.50029 60.9146 7.43077 60.6046 7.34579 60.2945 7.24537 59.9922 7.14495 59.7208 7.02136 59.4805 6.85914 59.2402 6.69693 59.0542 6.49609 58.9069 6.25662 58.7596 6.01716 58.6898 5.72362 58.6898 5.36829c0-.50983.1008-.93468.302399999999999-1.26684C59.1937 3.76929 59.4573 3.51438 59.7906 3.32126 60.1239 3.12815 60.4883 2.99683 60.9069 2.91958 61.3177 2.84233 61.7441 2.80371 62.1782 2.80371 62.6123 2.80371 63.0309 2.84233 63.4418 2.9273 63.8449 3.01228 64.2092 3.15132 64.5348 3.34444 64.8526 3.53755 65.1162 3.80019 65.3332 4.12462 65.5425 4.44906 65.6743 4.85846 65.7131 5.35284H63.6278C63.5968 4.92798 63.434 4.6499 63.1472 4.49541 62.8604 4.34864 62.5193 4.27139 62.1239 4.27139 61.9999 4.27139 61.8681 4.27912 61.7208 4.29456 61.5736 4.31001 61.4418 4.34091 61.3255 4.39499 61.2092 4.44906 61.1084 4.51858 61.0232 4.619 60.9379 4.71942 60.8991 4.85074 60.8991 5.01296 60.8991 5.20607 60.9689 5.36829 61.1162 5.49188 61.2635 5.61548 61.4495 5.7159 61.6821 5.79314 61.9146 5.87039 62.1782 5.93991 62.4805 6.00171 62.7829 6.06351 63.0852 6.13303 63.3953 6.20255 63.7131 6.27207 64.0232 6.36477 64.3332 6.46519 64.6123 6.57333 64.8836 6.70465 65.1162 6.87459 65.3565 7.04453 65.5425 7.2531 65.6898 7.50801 65.8371 7.76292 65.9069 8.07191 65.9069 8.44269 65.9069 8.96797 65.7984 9.40827 65.5891 9.75588 65.3798 10.1112 65.1007 10.397 64.7596 10.6133 64.4185 10.8296 64.0309 10.9841 63.5891 11.0691 63.1472 11.154 62.7053 11.2004 62.2557 11.2004 61.7906 11.2004 61.341 11.154 60.8914 11.0613 60.4495 10.9686 60.0542 10.8142 59.7053 10.5979 59.3565 10.3816 59.0774 10.0958 58.8526 9.74043 58.6278 9.3851 58.5115 8.94479 58.4883 8.41179h2.0853C60.5891 8.64353 60.6356 8.8521 60.7363 9.02204z" fill="#000"/><path d="M69.5431 9.09174C69.8765 9.40845 70.3493 9.57066 70.9617 9.57066 71.4036 9.57066 71.7834 9.46252 72.109 9.23851 72.4268 9.01449 72.6206 8.78275 72.6982 8.53556h1.9302C74.3183 9.49342 73.8455 10.1732 73.2098 10.5826 72.5741 10.992 71.7989 11.2006 70.892 11.2006 70.2641 11.2006 69.6982 11.1001 69.1943 10.8993 68.6904 10.6985 68.2641 10.4127 67.9152 10.0419 67.5664 9.67109 67.2951 9.23078 67.1013 8.71323 66.9075 8.2034 66.8145 7.63178 66.8145 7.02154 66.8145 6.42674 66.9152 5.87057 67.109 5.36074 67.3028 4.85091 67.5819 4.40289 67.9462 4.0321 68.3106 3.6536 68.7369 3.36006 69.2408 3.14377 69.7369 2.92748 70.2951 2.81934 70.8997 2.81934 71.5819 2.81934 72.171 2.95065 72.6749 3.21329 73.1788 3.47593 73.5974 3.82354 73.923 4.27157 74.2486 4.71187 74.4811 5.21397 74.6284 5.77787S74.8222 6.93657 74.7834 7.54681H69.016C69.0315 8.25748 69.2098 8.7673 69.5431 9.09174zm2.4807-4.19448C71.7602 4.61145 71.3648 4.46468 70.8222 4.46468 70.4734 4.46468 70.1788 4.52648 69.9462 4.64235 69.7137 4.75822 69.5276 4.90499 69.3881 5.08265 69.2486 5.26032 69.1478 5.44571 69.0935 5.63883 69.0393 5.83194 69.0005 6.00961 68.9927 6.1641h3.5737C72.4656 5.60793 72.2873 5.18307 72.0238 4.89726z" fill="#000"/></g><defs><clipPath id="clip0"><rect width="75" height="125" fill="#fff"/></clipPath></defs></svg>