<svg width="1161" height="1241" viewBox="0 0 1161 1241" xmlns="http://www.w3.org/2000/svg" xmlns:xlink="http://www.w3.org/1999/xlink"><view id="facebook" viewBox="0 0 158 310"/><svg width="158" height="310" fill="none" viewBox="0 0 158 310" xmlns="http://www.w3.org/2000/svg"><path d="M5.703 165.106h33.981V305a5 5 0 005 5H102.3a5 5 0 005-5V165.765h39.064a5 5 0 004.967-4.429l5.933-51.502a5 5 0 00-4.966-5.572h-44.996V71.978c0-9.732 5.24-14.667 15.576-14.667h29.42a5 5 0 005-5V5.037a5 5 0 00-5-5h-40.545A39.746 39.746.0 00109.896.0c-7.035.0-31.488 1.381-50.804 19.151-21.402 19.692-18.427 43.27-17.716 47.358v37.752H5.703a5 5 0 00-5 5v50.844a5 5 0 005 5.001z" fill="#000"/></svg><view id="instagram" viewBox="158 310 310 310"/><svg width="310" height="310" fill="none" viewBox="0 0 310 310" x="158" y="310" xmlns="http://www.w3.org/2000/svg"><path d="M224.448.0H85.546C38.376.0.0 38.378.0 85.548V224.45c0 47.172 38.376 85.548 85.546 85.548h138.902c47.174.0 85.55-38.378 85.55-85.548V85.548C310 38.378 271.622.0 224.448.0zm58.047 224.45c0 32.006-26.039 58.044-58.045 58.044H85.546c-32.004.001-58.042-26.038-58.042-58.044V85.548c0-32.004 26.038-58.044 58.042-58.044h138.902c32.006.0 58.046 26.04 58.046 58.044V224.45h.001z" fill="#000"/><path d="M154.999 75.124c-44.046.0-79.879 35.833-79.879 79.879.0 44.044 35.833 79.875 79.879 79.875 44.046.0 79.879-35.831 79.879-79.875.0-44.046-35.833-79.879-79.879-79.879zm0 132.247c-28.878.0-52.374-23.492-52.374-52.37.0-28.88 23.494-52.374 52.374-52.374s52.374 23.494 52.374 52.374c0 28.878-23.496 52.37-52.374 52.37zm83.229-155.569c-5.299.0-10.505 2.146-14.248 5.905-3.76 3.74-5.922 8.948-5.922 14.265.0 5.301 2.163 10.507 5.922 14.266 3.741 3.74 8.949 5.904 14.248 5.904 5.317.0 10.506-2.163 14.265-5.904 3.759-3.759 5.905-8.967 5.905-14.266.0-5.317-2.146-10.525-5.905-14.265-3.74-3.76-8.948-5.905-14.265-5.905z" fill="#000"/></svg><view id="linkedin" viewBox="468 620 312 311"/><svg width="312" height="311" fill="none" viewBox="0 0 312 311" x="468" y="620" xmlns="http://www.w3.org/2000/svg"><path d="M72.393 99.71H9.96a5.016 5.016.0 00-5.016 5.017v200.574a5.015 5.015.0 005.016 5.016h62.434a5.015 5.015.0 005.016-5.016V104.727a5.016 5.016.0 00-5.016-5.017zM41.199.0C18.482.0.0 18.462.0 41.154c0 22.702 18.482 41.17 41.199 41.17 22.699.0 41.165-18.47 41.165-41.17C82.365 18.46 63.898.0 41.2.0zm190 94.725c-25.076.0-43.612 10.78-54.856 23.028v-13.027a5.016 5.016.0 00-5.016-5.016h-59.792a5.016 5.016.0 00-5.016 5.016v200.575a5.016 5.016.0 005.016 5.016h62.298a5.015 5.015.0 005.016-5.016v-99.238c0-33.441 9.084-46.469 32.395-46.469 25.388.0 27.405 20.885 27.405 48.189v97.519a5.015 5.015.0 005.016 5.016h62.321a5.015 5.015.0 005.016-5.016V195.283c0-49.725-9.481-100.558-79.803-100.558z" fill="#000"/></svg><view id="twitter" viewBox="780 931 381 310"/><svg width="381" height="310" fill="none" viewBox="0 0 381 310" x="780" y="931" xmlns="http://www.w3.org/2000/svg"><path d="M381 40.623l-40.821 6.81 27.214-34.047-47.625 13.618c-61.232-68.093-156.482 6.81-129.268 68.094-108.857.0-163.286-81.712-163.286-81.712S-13.607 74.67 54.43 122.335l-40.822-13.619c0 40.856 27.214 68.094 74.84 81.712H40.82c27.215 54.475 74.84 54.475 74.84 54.475S74.839 278.949.0 278.949c224.518 108.95 360.589-95.33 340.179-204.28L381 40.624z" fill="#000"/></svg></svg>